<svg xmlns="http://www.w3.org/2000/svg" width="270" height="133" viewBox="0 0 270 133">
    <g fill="#EE4540" fill-rule="nonzero" opacity=".5">
        <ellipse cx="267.94" cy="130.93" rx="1.659" ry="1.669"/>
        <path d="M258.65 132.6c.916 0 1.659-.748 1.659-1.67 0-.922-.743-1.669-1.66-1.669-.61 0-1.163.556-1.658 1.67.495 1.112 1.048 1.668 1.659 1.668z"/>
        <ellipse cx="249.359" cy="130.93" rx="1.659" ry="1.669"/>
        <ellipse cx="240.732" cy="130.93" rx="1.659" ry="1.669"/>
        <ellipse cx="230.778" cy="130.93" rx="1.659" ry="1.669"/>
        <ellipse cx="222.151" cy="130.93" rx="1.659" ry="1.669"/>
        <ellipse cx="212.861" cy="130.93" rx="1.659" ry="1.669"/>
        <ellipse cx="204.234" cy="130.93" rx="1.659" ry="1.669"/>
        <ellipse cx="194.943" cy="130.93" rx="1.659" ry="1.669"/>
        <ellipse cx="185.653" cy="130.93" rx="1.659" ry="1.669"/>
        <ellipse cx="177.026" cy="130.93" rx="1.659" ry="1.669"/>
        <ellipse cx="167.072" cy="130.93" rx="1.659" ry="1.669"/>
        <ellipse cx="158.445" cy="130.93" rx="1.659" ry="1.669"/>
        <ellipse cx="149.154" cy="130.93" rx="1.659" ry="1.669"/>
        <ellipse cx="139.864" cy="130.93" rx="1.659" ry="1.669"/>
        <ellipse cx="267.94" cy="121.583" rx="1.659" ry="1.669"/>
        <ellipse cx="258.65" cy="121.583" rx="1.659" ry="1.669"/>
        <ellipse cx="249.359" cy="121.583" rx="1.659" ry="1.669"/>
        <ellipse cx="240.732" cy="121.583" rx="1.659" ry="1.669"/>
        <ellipse cx="230.778" cy="121.583" rx="1.659" ry="1.669"/>
        <ellipse cx="222.151" cy="121.583" rx="1.659" ry="1.669"/>
        <ellipse cx="212.861" cy="121.583" rx="1.659" ry="1.669"/>
        <ellipse cx="204.234" cy="121.583" rx="1.659" ry="1.669"/>
        <ellipse cx="194.943" cy="121.583" rx="1.659" ry="1.669"/>
        <ellipse cx="185.653" cy="121.583" rx="1.659" ry="1.669"/>
        <ellipse cx="177.026" cy="121.583" rx="1.659" ry="1.669"/>
        <ellipse cx="167.072" cy="121.583" rx="1.659" ry="1.669"/>
        <ellipse cx="158.445" cy="121.583" rx="1.659" ry="1.669"/>
        <ellipse cx="149.154" cy="121.583" rx="1.659" ry="1.669"/>
        <ellipse cx="139.864" cy="121.583" rx="1.659" ry="1.669"/>
        <ellipse cx="267.94" cy="112.235" rx="1.659" ry="1.669"/>
        <ellipse cx="258.65" cy="112.235" rx="1.659" ry="1.669"/>
        <ellipse cx="249.359" cy="112.235" rx="1.659" ry="1.669"/>
        <ellipse cx="240.732" cy="112.235" rx="1.659" ry="1.669"/>
        <ellipse cx="230.778" cy="112.235" rx="1.659" ry="1.669"/>
        <ellipse cx="222.151" cy="112.235" rx="1.659" ry="1.669"/>
        <ellipse cx="212.861" cy="112.235" rx="1.659" ry="1.669"/>
        <ellipse cx="204.234" cy="112.235" rx="1.659" ry="1.669"/>
        <ellipse cx="194.943" cy="112.235" rx="1.659" ry="1.669"/>
        <ellipse cx="185.653" cy="112.235" rx="1.659" ry="1.669"/>
        <ellipse cx="177.026" cy="112.235" rx="1.659" ry="1.669"/>
        <ellipse cx="167.072" cy="112.235" rx="1.659" ry="1.669"/>
        <ellipse cx="158.445" cy="112.235" rx="1.659" ry="1.669"/>
        <ellipse cx="149.154" cy="112.235" rx="1.659" ry="1.669"/>
        <ellipse cx="139.864" cy="112.235" rx="1.659" ry="1.669"/>
        <ellipse cx="267.94" cy="103.556" rx="1.659" ry="1.669"/>
        <ellipse cx="258.65" cy="103.556" rx="1.659" ry="1.669"/>
        <ellipse cx="249.359" cy="103.556" rx="1.659" ry="1.669"/>
        <ellipse cx="240.732" cy="103.556" rx="1.659" ry="1.669"/>
        <ellipse cx="230.778" cy="103.556" rx="1.659" ry="1.669"/>
        <ellipse cx="222.151" cy="103.556" rx="1.659" ry="1.669"/>
        <ellipse cx="212.861" cy="103.556" rx="1.659" ry="1.669"/>
        <ellipse cx="204.234" cy="103.556" rx="1.659" ry="1.669"/>
        <ellipse cx="194.943" cy="103.556" rx="1.659" ry="1.669"/>
        <ellipse cx="185.653" cy="103.556" rx="1.659" ry="1.669"/>
        <ellipse cx="177.026" cy="103.556" rx="1.659" ry="1.669"/>
        <ellipse cx="167.072" cy="103.556" rx="1.659" ry="1.669"/>
        <ellipse cx="158.445" cy="103.556" rx="1.659" ry="1.669"/>
        <ellipse cx="149.154" cy="103.556" rx="1.659" ry="1.669"/>
        <ellipse cx="139.864" cy="103.556" rx="1.659" ry="1.669"/>
        <ellipse cx="267.94" cy="93.541" rx="1.659" ry="1.669"/>
        <ellipse cx="258.65" cy="93.541" rx="1.659" ry="1.669"/>
        <ellipse cx="249.359" cy="93.541" rx="1.659" ry="1.669"/>
        <ellipse cx="240.732" cy="93.541" rx="1.659" ry="1.669"/>
        <ellipse cx="230.778" cy="93.541" rx="1.659" ry="1.669"/>
        <ellipse cx="222.151" cy="93.541" rx="1.659" ry="1.669"/>
        <ellipse cx="212.861" cy="93.541" rx="1.659" ry="1.669"/>
        <ellipse cx="204.234" cy="93.541" rx="1.659" ry="1.669"/>
        <ellipse cx="194.943" cy="93.541" rx="1.659" ry="1.669"/>
        <ellipse cx="185.653" cy="93.541" rx="1.659" ry="1.669"/>
        <ellipse cx="177.026" cy="93.541" rx="1.659" ry="1.669"/>
        <ellipse cx="167.072" cy="93.541" rx="1.659" ry="1.669"/>
        <ellipse cx="158.445" cy="93.541" rx="1.659" ry="1.669"/>
        <ellipse cx="149.154" cy="93.541" rx="1.659" ry="1.669"/>
        <ellipse cx="139.864" cy="93.541" rx="1.659" ry="1.669"/>
        <ellipse cx="267.94" cy="84.861" rx="1.659" ry="1.669"/>
        <ellipse cx="258.65" cy="84.861" rx="1.659" ry="1.669"/>
        <ellipse cx="249.359" cy="84.861" rx="1.659" ry="1.669"/>
        <ellipse cx="240.732" cy="84.861" rx="1.659" ry="1.669"/>
        <ellipse cx="230.778" cy="84.861" rx="1.659" ry="1.669"/>
        <ellipse cx="222.151" cy="84.861" rx="1.659" ry="1.669"/>
        <ellipse cx="212.861" cy="84.861" rx="1.659" ry="1.669"/>
        <ellipse cx="204.234" cy="84.861" rx="1.659" ry="1.669"/>
        <ellipse cx="194.943" cy="84.861" rx="1.659" ry="1.669"/>
        <ellipse cx="185.653" cy="84.861" rx="1.659" ry="1.669"/>
        <ellipse cx="177.026" cy="84.861" rx="1.659" ry="1.669"/>
        <ellipse cx="167.072" cy="84.861" rx="1.659" ry="1.669"/>
        <ellipse cx="158.445" cy="84.861" rx="1.659" ry="1.669"/>
        <ellipse cx="149.154" cy="84.861" rx="1.659" ry="1.669"/>
        <ellipse cx="139.864" cy="84.861" rx="1.659" ry="1.669"/>
        <ellipse cx="267.94" cy="75.514" rx="1.659" ry="1.669"/>
        <ellipse cx="258.65" cy="75.514" rx="1.659" ry="1.669"/>
        <ellipse cx="249.359" cy="75.514" rx="1.659" ry="1.669"/>
        <ellipse cx="240.732" cy="75.514" rx="1.659" ry="1.669"/>
        <ellipse cx="230.778" cy="75.514" rx="1.659" ry="1.669"/>
        <ellipse cx="222.151" cy="75.514" rx="1.659" ry="1.669"/>
        <ellipse cx="212.861" cy="75.514" rx="1.659" ry="1.669"/>
        <ellipse cx="204.234" cy="75.514" rx="1.659" ry="1.669"/>
        <ellipse cx="194.943" cy="75.514" rx="1.659" ry="1.669"/>
        <ellipse cx="185.653" cy="75.514" rx="1.659" ry="1.669"/>
        <ellipse cx="177.026" cy="75.514" rx="1.659" ry="1.669"/>
        <ellipse cx="167.072" cy="75.514" rx="1.659" ry="1.669"/>
        <ellipse cx="158.445" cy="75.514" rx="1.659" ry="1.669"/>
        <ellipse cx="149.154" cy="75.514" rx="1.659" ry="1.669"/>
        <ellipse cx="139.864" cy="75.514" rx="1.659" ry="1.669"/>
        <ellipse cx="267.94" cy="66.834" rx="1.659" ry="1.669"/>
        <ellipse cx="258.65" cy="66.834" rx="1.659" ry="1.669"/>
        <ellipse cx="249.359" cy="66.834" rx="1.659" ry="1.669"/>
        <ellipse cx="240.732" cy="66.834" rx="1.659" ry="1.669"/>
        <ellipse cx="230.778" cy="66.834" rx="1.659" ry="1.669"/>
        <ellipse cx="222.151" cy="66.834" rx="1.659" ry="1.669"/>
        <ellipse cx="212.861" cy="66.834" rx="1.659" ry="1.669"/>
        <ellipse cx="204.234" cy="66.834" rx="1.659" ry="1.669"/>
        <ellipse cx="194.943" cy="66.834" rx="1.659" ry="1.669"/>
        <ellipse cx="185.653" cy="66.834" rx="1.659" ry="1.669"/>
        <ellipse cx="177.026" cy="66.834" rx="1.659" ry="1.669"/>
        <ellipse cx="167.072" cy="66.834" rx="1.659" ry="1.669"/>
        <ellipse cx="158.445" cy="66.834" rx="1.659" ry="1.669"/>
        <ellipse cx="149.154" cy="66.834" rx="1.659" ry="1.669"/>
        <ellipse cx="139.864" cy="66.834" rx="1.659" ry="1.669"/>
        <ellipse cx="267.94" cy="57.486" rx="1.659" ry="1.669"/>
        <ellipse cx="258.65" cy="57.486" rx="1.659" ry="1.669"/>
        <ellipse cx="249.359" cy="57.486" rx="1.659" ry="1.669"/>
        <ellipse cx="240.732" cy="57.486" rx="1.659" ry="1.669"/>
        <ellipse cx="230.778" cy="57.486" rx="1.659" ry="1.669"/>
        <ellipse cx="222.151" cy="57.486" rx="1.659" ry="1.669"/>
        <ellipse cx="212.861" cy="57.486" rx="1.659" ry="1.669"/>
        <ellipse cx="204.234" cy="57.486" rx="1.659" ry="1.669"/>
        <ellipse cx="194.943" cy="57.486" rx="1.659" ry="1.669"/>
        <ellipse cx="185.653" cy="57.486" rx="1.659" ry="1.669"/>
        <ellipse cx="177.026" cy="57.486" rx="1.659" ry="1.669"/>
        <ellipse cx="167.072" cy="57.486" rx="1.659" ry="1.669"/>
        <ellipse cx="158.445" cy="57.486" rx="1.659" ry="1.669"/>
        <ellipse cx="149.154" cy="57.486" rx="1.659" ry="1.669"/>
        <ellipse cx="139.864" cy="57.486" rx="1.659" ry="1.669"/>
        <ellipse cx="267.94" cy="48.139" rx="1.659" ry="1.669"/>
        <ellipse cx="258.65" cy="48.139" rx="1.659" ry="1.669"/>
        <ellipse cx="249.359" cy="48.139" rx="1.659" ry="1.669"/>
        <ellipse cx="240.732" cy="48.139" rx="1.659" ry="1.669"/>
        <ellipse cx="230.778" cy="48.139" rx="1.659" ry="1.669"/>
        <ellipse cx="222.151" cy="48.139" rx="1.659" ry="1.669"/>
        <ellipse cx="212.861" cy="48.139" rx="1.659" ry="1.669"/>
        <ellipse cx="204.234" cy="48.139" rx="1.659" ry="1.669"/>
        <ellipse cx="194.943" cy="48.139" rx="1.659" ry="1.669"/>
        <ellipse cx="185.653" cy="48.139" rx="1.659" ry="1.669"/>
        <ellipse cx="177.026" cy="48.139" rx="1.659" ry="1.669"/>
        <ellipse cx="167.072" cy="48.139" rx="1.659" ry="1.669"/>
        <ellipse cx="158.445" cy="48.139" rx="1.659" ry="1.669"/>
        <ellipse cx="149.154" cy="48.139" rx="1.659" ry="1.669"/>
        <ellipse cx="139.864" cy="48.139" rx="1.659" ry="1.669"/>
        <ellipse cx="267.94" cy="39.459" rx="1.659" ry="1.669"/>
        <ellipse cx="258.65" cy="39.459" rx="1.659" ry="1.669"/>
        <ellipse cx="249.359" cy="39.459" rx="1.659" ry="1.669"/>
        <ellipse cx="240.732" cy="39.459" rx="1.659" ry="1.669"/>
        <ellipse cx="230.778" cy="39.459" rx="1.659" ry="1.669"/>
        <ellipse cx="222.151" cy="39.459" rx="1.659" ry="1.669"/>
        <ellipse cx="212.861" cy="39.459" rx="1.659" ry="1.669"/>
        <ellipse cx="204.234" cy="39.459" rx="1.659" ry="1.669"/>
        <ellipse cx="194.943" cy="39.459" rx="1.659" ry="1.669"/>
        <ellipse cx="185.653" cy="39.459" rx="1.659" ry="1.669"/>
        <ellipse cx="177.026" cy="39.459" rx="1.659" ry="1.669"/>
        <ellipse cx="167.072" cy="39.459" rx="1.659" ry="1.669"/>
        <ellipse cx="158.445" cy="39.459" rx="1.659" ry="1.669"/>
        <ellipse cx="149.154" cy="39.459" rx="1.659" ry="1.669"/>
        <ellipse cx="139.864" cy="39.459" rx="1.659" ry="1.669"/>
        <ellipse cx="267.94" cy="29.444" rx="1.659" ry="1.669"/>
        <ellipse cx="258.65" cy="29.444" rx="1.659" ry="1.669"/>
        <ellipse cx="249.359" cy="29.444" rx="1.659" ry="1.669"/>
        <ellipse cx="240.732" cy="29.444" rx="1.659" ry="1.669"/>
        <ellipse cx="230.778" cy="29.444" rx="1.659" ry="1.669"/>
        <ellipse cx="222.151" cy="29.444" rx="1.659" ry="1.669"/>
        <ellipse cx="212.861" cy="29.444" rx="1.659" ry="1.669"/>
        <ellipse cx="204.234" cy="29.444" rx="1.659" ry="1.669"/>
        <ellipse cx="194.943" cy="29.444" rx="1.659" ry="1.669"/>
        <ellipse cx="185.653" cy="29.444" rx="1.659" ry="1.669"/>
        <ellipse cx="177.026" cy="29.444" rx="1.659" ry="1.669"/>
        <ellipse cx="167.072" cy="29.444" rx="1.659" ry="1.669"/>
        <ellipse cx="158.445" cy="29.444" rx="1.659" ry="1.669"/>
        <ellipse cx="149.154" cy="29.444" rx="1.659" ry="1.669"/>
        <ellipse cx="139.864" cy="29.444" rx="1.659" ry="1.669"/>
        <ellipse cx="267.94" cy="20.765" rx="1.659" ry="1.669"/>
        <ellipse cx="258.65" cy="20.765" rx="1.659" ry="1.669"/>
        <ellipse cx="249.359" cy="20.765" rx="1.659" ry="1.669"/>
        <ellipse cx="240.732" cy="20.765" rx="1.659" ry="1.669"/>
        <ellipse cx="230.778" cy="20.765" rx="1.659" ry="1.669"/>
        <ellipse cx="222.151" cy="20.765" rx="1.659" ry="1.669"/>
        <ellipse cx="212.861" cy="20.765" rx="1.659" ry="1.669"/>
        <ellipse cx="204.234" cy="20.765" rx="1.659" ry="1.669"/>
        <ellipse cx="194.943" cy="20.765" rx="1.659" ry="1.669"/>
        <ellipse cx="185.653" cy="20.765" rx="1.659" ry="1.669"/>
        <ellipse cx="177.026" cy="20.765" rx="1.659" ry="1.669"/>
        <ellipse cx="167.072" cy="20.765" rx="1.659" ry="1.669"/>
        <ellipse cx="158.445" cy="20.765" rx="1.659" ry="1.669"/>
        <ellipse cx="149.154" cy="20.765" rx="1.659" ry="1.669"/>
        <ellipse cx="139.864" cy="20.765" rx="1.659" ry="1.669"/>
        <ellipse cx="267.94" cy="11.417" rx="1.659" ry="1.669"/>
        <ellipse cx="258.65" cy="11.417" rx="1.659" ry="1.669"/>
        <ellipse cx="249.359" cy="11.417" rx="1.659" ry="1.669"/>
        <ellipse cx="240.732" cy="11.417" rx="1.659" ry="1.669"/>
        <ellipse cx="230.778" cy="11.417" rx="1.659" ry="1.669"/>
        <ellipse cx="222.151" cy="11.417" rx="1.659" ry="1.669"/>
        <ellipse cx="212.861" cy="11.417" rx="1.659" ry="1.669"/>
        <ellipse cx="204.234" cy="11.417" rx="1.659" ry="1.669"/>
        <ellipse cx="194.943" cy="11.417" rx="1.659" ry="1.669"/>
        <ellipse cx="185.653" cy="11.417" rx="1.659" ry="1.669"/>
        <ellipse cx="177.026" cy="11.417" rx="1.659" ry="1.669"/>
        <ellipse cx="167.072" cy="11.417" rx="1.659" ry="1.669"/>
        <ellipse cx="158.445" cy="11.417" rx="1.659" ry="1.669"/>
        <ellipse cx="149.154" cy="11.417" rx="1.659" ry="1.669"/>
        <ellipse cx="139.864" cy="11.417" rx="1.659" ry="1.669"/>
        <ellipse cx="267.94" cy="2.07" rx="1.659" ry="1.669"/>
        <ellipse cx="258.65" cy="2.07" rx="1.659" ry="1.669"/>
        <ellipse cx="249.359" cy="2.07" rx="1.659" ry="1.669"/>
        <ellipse cx="240.732" cy="2.07" rx="1.659" ry="1.669"/>
        <ellipse cx="230.778" cy="2.07" rx="1.659" ry="1.669"/>
        <ellipse cx="222.151" cy="2.07" rx="1.659" ry="1.669"/>
        <ellipse cx="212.861" cy="2.07" rx="1.659" ry="1.669"/>
        <ellipse cx="204.234" cy="2.07" rx="1.659" ry="1.669"/>
        <ellipse cx="194.943" cy="2.07" rx="1.659" ry="1.669"/>
        <ellipse cx="185.653" cy="2.07" rx="1.659" ry="1.669"/>
        <ellipse cx="177.026" cy="2.07" rx="1.659" ry="1.669"/>
        <ellipse cx="167.072" cy="2.07" rx="1.659" ry="1.669"/>
        <ellipse cx="158.445" cy="2.07" rx="1.659" ry="1.669"/>
        <ellipse cx="149.154" cy="2.07" rx="1.659" ry="1.669"/>
        <ellipse cx="139.864" cy="2.07" rx="1.659" ry="1.669"/>
        <ellipse cx="130.136" cy="130.93" rx="1.659" ry="1.669"/>
        <path d="M120.846 132.6c.916 0 1.659-.748 1.659-1.67 0-.922-.743-1.669-1.66-1.669-.61 0-1.163.556-1.658 1.67.495 1.112 1.048 1.668 1.659 1.668z"/>
        <ellipse cx="111.555" cy="130.93" rx="1.659" ry="1.669"/>
        <ellipse cx="102.928" cy="130.93" rx="1.659" ry="1.669"/>
        <ellipse cx="92.974" cy="130.93" rx="1.659" ry="1.669"/>
        <ellipse cx="84.347" cy="130.93" rx="1.659" ry="1.669"/>
        <ellipse cx="75.057" cy="130.93" rx="1.659" ry="1.669"/>
        <ellipse cx="66.43" cy="130.93" rx="1.659" ry="1.669"/>
        <ellipse cx="57.139" cy="130.93" rx="1.659" ry="1.669"/>
        <ellipse cx="47.849" cy="130.93" rx="1.659" ry="1.669"/>
        <ellipse cx="39.222" cy="130.93" rx="1.659" ry="1.669"/>
        <ellipse cx="29.268" cy="130.93" rx="1.659" ry="1.669"/>
        <ellipse cx="20.641" cy="130.93" rx="1.659" ry="1.669"/>
        <ellipse cx="11.35" cy="130.93" rx="1.659" ry="1.669"/>
        <ellipse cx="2.06" cy="130.93" rx="1.659" ry="1.669"/>
        <ellipse cx="130.136" cy="121.583" rx="1.659" ry="1.669"/>
        <ellipse cx="120.846" cy="121.583" rx="1.659" ry="1.669"/>
        <ellipse cx="111.555" cy="121.583" rx="1.659" ry="1.669"/>
        <ellipse cx="102.928" cy="121.583" rx="1.659" ry="1.669"/>
        <ellipse cx="92.974" cy="121.583" rx="1.659" ry="1.669"/>
        <ellipse cx="84.347" cy="121.583" rx="1.659" ry="1.669"/>
        <ellipse cx="75.057" cy="121.583" rx="1.659" ry="1.669"/>
        <ellipse cx="66.43" cy="121.583" rx="1.659" ry="1.669"/>
        <ellipse cx="57.139" cy="121.583" rx="1.659" ry="1.669"/>
        <ellipse cx="47.849" cy="121.583" rx="1.659" ry="1.669"/>
        <ellipse cx="39.222" cy="121.583" rx="1.659" ry="1.669"/>
        <ellipse cx="29.268" cy="121.583" rx="1.659" ry="1.669"/>
        <ellipse cx="20.641" cy="121.583" rx="1.659" ry="1.669"/>
        <ellipse cx="11.35" cy="121.583" rx="1.659" ry="1.669"/>
        <ellipse cx="2.06" cy="121.583" rx="1.659" ry="1.669"/>
        <ellipse cx="130.136" cy="112.235" rx="1.659" ry="1.669"/>
        <ellipse cx="120.846" cy="112.235" rx="1.659" ry="1.669"/>
        <ellipse cx="111.555" cy="112.235" rx="1.659" ry="1.669"/>
        <ellipse cx="102.928" cy="112.235" rx="1.659" ry="1.669"/>
        <ellipse cx="92.974" cy="112.235" rx="1.659" ry="1.669"/>
        <ellipse cx="84.347" cy="112.235" rx="1.659" ry="1.669"/>
        <ellipse cx="75.057" cy="112.235" rx="1.659" ry="1.669"/>
        <ellipse cx="66.43" cy="112.235" rx="1.659" ry="1.669"/>
        <ellipse cx="57.139" cy="112.235" rx="1.659" ry="1.669"/>
        <ellipse cx="47.849" cy="112.235" rx="1.659" ry="1.669"/>
        <ellipse cx="39.222" cy="112.235" rx="1.659" ry="1.669"/>
        <ellipse cx="29.268" cy="112.235" rx="1.659" ry="1.669"/>
        <ellipse cx="20.641" cy="112.235" rx="1.659" ry="1.669"/>
        <ellipse cx="11.35" cy="112.235" rx="1.659" ry="1.669"/>
        <ellipse cx="2.06" cy="112.235" rx="1.659" ry="1.669"/>
        <ellipse cx="130.136" cy="103.556" rx="1.659" ry="1.669"/>
        <ellipse cx="120.846" cy="103.556" rx="1.659" ry="1.669"/>
        <ellipse cx="111.555" cy="103.556" rx="1.659" ry="1.669"/>
        <ellipse cx="102.928" cy="103.556" rx="1.659" ry="1.669"/>
        <ellipse cx="92.974" cy="103.556" rx="1.659" ry="1.669"/>
        <ellipse cx="84.347" cy="103.556" rx="1.659" ry="1.669"/>
        <ellipse cx="75.057" cy="103.556" rx="1.659" ry="1.669"/>
        <ellipse cx="66.43" cy="103.556" rx="1.659" ry="1.669"/>
        <ellipse cx="57.139" cy="103.556" rx="1.659" ry="1.669"/>
        <ellipse cx="47.849" cy="103.556" rx="1.659" ry="1.669"/>
        <ellipse cx="39.222" cy="103.556" rx="1.659" ry="1.669"/>
        <ellipse cx="29.268" cy="103.556" rx="1.659" ry="1.669"/>
        <ellipse cx="20.641" cy="103.556" rx="1.659" ry="1.669"/>
        <ellipse cx="11.35" cy="103.556" rx="1.659" ry="1.669"/>
        <ellipse cx="2.06" cy="103.556" rx="1.659" ry="1.669"/>
        <ellipse cx="130.136" cy="93.541" rx="1.659" ry="1.669"/>
        <ellipse cx="120.846" cy="93.541" rx="1.659" ry="1.669"/>
        <ellipse cx="111.555" cy="93.541" rx="1.659" ry="1.669"/>
        <ellipse cx="102.928" cy="93.541" rx="1.659" ry="1.669"/>
        <ellipse cx="92.974" cy="93.541" rx="1.659" ry="1.669"/>
        <ellipse cx="84.347" cy="93.541" rx="1.659" ry="1.669"/>
        <ellipse cx="75.057" cy="93.541" rx="1.659" ry="1.669"/>
        <ellipse cx="66.43" cy="93.541" rx="1.659" ry="1.669"/>
        <ellipse cx="57.139" cy="93.541" rx="1.659" ry="1.669"/>
        <ellipse cx="47.849" cy="93.541" rx="1.659" ry="1.669"/>
        <ellipse cx="39.222" cy="93.541" rx="1.659" ry="1.669"/>
        <ellipse cx="29.268" cy="93.541" rx="1.659" ry="1.669"/>
        <ellipse cx="20.641" cy="93.541" rx="1.659" ry="1.669"/>
        <ellipse cx="11.35" cy="93.541" rx="1.659" ry="1.669"/>
        <ellipse cx="2.06" cy="93.541" rx="1.659" ry="1.669"/>
        <ellipse cx="130.136" cy="84.861" rx="1.659" ry="1.669"/>
        <ellipse cx="120.846" cy="84.861" rx="1.659" ry="1.669"/>
        <ellipse cx="111.555" cy="84.861" rx="1.659" ry="1.669"/>
        <ellipse cx="102.928" cy="84.861" rx="1.659" ry="1.669"/>
        <ellipse cx="92.974" cy="84.861" rx="1.659" ry="1.669"/>
        <ellipse cx="84.347" cy="84.861" rx="1.659" ry="1.669"/>
        <ellipse cx="75.057" cy="84.861" rx="1.659" ry="1.669"/>
        <ellipse cx="66.43" cy="84.861" rx="1.659" ry="1.669"/>
        <ellipse cx="57.139" cy="84.861" rx="1.659" ry="1.669"/>
        <ellipse cx="47.849" cy="84.861" rx="1.659" ry="1.669"/>
        <ellipse cx="39.222" cy="84.861" rx="1.659" ry="1.669"/>
        <ellipse cx="29.268" cy="84.861" rx="1.659" ry="1.669"/>
        <ellipse cx="20.641" cy="84.861" rx="1.659" ry="1.669"/>
        <ellipse cx="11.35" cy="84.861" rx="1.659" ry="1.669"/>
        <ellipse cx="2.06" cy="84.861" rx="1.659" ry="1.669"/>
        <ellipse cx="130.136" cy="75.514" rx="1.659" ry="1.669"/>
        <ellipse cx="120.846" cy="75.514" rx="1.659" ry="1.669"/>
        <ellipse cx="111.555" cy="75.514" rx="1.659" ry="1.669"/>
        <ellipse cx="102.928" cy="75.514" rx="1.659" ry="1.669"/>
        <ellipse cx="92.974" cy="75.514" rx="1.659" ry="1.669"/>
        <ellipse cx="84.347" cy="75.514" rx="1.659" ry="1.669"/>
        <ellipse cx="75.057" cy="75.514" rx="1.659" ry="1.669"/>
        <ellipse cx="66.43" cy="75.514" rx="1.659" ry="1.669"/>
        <ellipse cx="57.139" cy="75.514" rx="1.659" ry="1.669"/>
        <ellipse cx="47.849" cy="75.514" rx="1.659" ry="1.669"/>
        <ellipse cx="39.222" cy="75.514" rx="1.659" ry="1.669"/>
        <ellipse cx="29.268" cy="75.514" rx="1.659" ry="1.669"/>
        <ellipse cx="20.641" cy="75.514" rx="1.659" ry="1.669"/>
        <ellipse cx="11.35" cy="75.514" rx="1.659" ry="1.669"/>
        <ellipse cx="2.06" cy="75.514" rx="1.659" ry="1.669"/>
        <ellipse cx="130.136" cy="66.834" rx="1.659" ry="1.669"/>
        <ellipse cx="120.846" cy="66.834" rx="1.659" ry="1.669"/>
        <ellipse cx="111.555" cy="66.834" rx="1.659" ry="1.669"/>
        <ellipse cx="102.928" cy="66.834" rx="1.659" ry="1.669"/>
        <ellipse cx="92.974" cy="66.834" rx="1.659" ry="1.669"/>
        <ellipse cx="84.347" cy="66.834" rx="1.659" ry="1.669"/>
        <ellipse cx="75.057" cy="66.834" rx="1.659" ry="1.669"/>
        <ellipse cx="66.43" cy="66.834" rx="1.659" ry="1.669"/>
        <ellipse cx="57.139" cy="66.834" rx="1.659" ry="1.669"/>
        <ellipse cx="47.849" cy="66.834" rx="1.659" ry="1.669"/>
        <ellipse cx="39.222" cy="66.834" rx="1.659" ry="1.669"/>
        <ellipse cx="29.268" cy="66.834" rx="1.659" ry="1.669"/>
        <ellipse cx="20.641" cy="66.834" rx="1.659" ry="1.669"/>
        <ellipse cx="11.35" cy="66.834" rx="1.659" ry="1.669"/>
        <ellipse cx="2.06" cy="66.834" rx="1.659" ry="1.669"/>
        <ellipse cx="130.136" cy="57.486" rx="1.659" ry="1.669"/>
        <ellipse cx="120.846" cy="57.486" rx="1.659" ry="1.669"/>
        <ellipse cx="111.555" cy="57.486" rx="1.659" ry="1.669"/>
        <ellipse cx="102.928" cy="57.486" rx="1.659" ry="1.669"/>
        <ellipse cx="92.974" cy="57.486" rx="1.659" ry="1.669"/>
        <ellipse cx="84.347" cy="57.486" rx="1.659" ry="1.669"/>
        <ellipse cx="75.057" cy="57.486" rx="1.659" ry="1.669"/>
        <ellipse cx="66.43" cy="57.486" rx="1.659" ry="1.669"/>
        <ellipse cx="57.139" cy="57.486" rx="1.659" ry="1.669"/>
        <ellipse cx="47.849" cy="57.486" rx="1.659" ry="1.669"/>
        <ellipse cx="39.222" cy="57.486" rx="1.659" ry="1.669"/>
        <ellipse cx="29.268" cy="57.486" rx="1.659" ry="1.669"/>
        <ellipse cx="20.641" cy="57.486" rx="1.659" ry="1.669"/>
        <ellipse cx="11.35" cy="57.486" rx="1.659" ry="1.669"/>
        <ellipse cx="2.06" cy="57.486" rx="1.659" ry="1.669"/>
        <ellipse cx="130.136" cy="48.139" rx="1.659" ry="1.669"/>
        <ellipse cx="120.846" cy="48.139" rx="1.659" ry="1.669"/>
        <ellipse cx="111.555" cy="48.139" rx="1.659" ry="1.669"/>
        <ellipse cx="102.928" cy="48.139" rx="1.659" ry="1.669"/>
        <ellipse cx="92.974" cy="48.139" rx="1.659" ry="1.669"/>
        <ellipse cx="84.347" cy="48.139" rx="1.659" ry="1.669"/>
        <ellipse cx="75.057" cy="48.139" rx="1.659" ry="1.669"/>
        <ellipse cx="66.43" cy="48.139" rx="1.659" ry="1.669"/>
        <ellipse cx="57.139" cy="48.139" rx="1.659" ry="1.669"/>
        <ellipse cx="47.849" cy="48.139" rx="1.659" ry="1.669"/>
        <ellipse cx="39.222" cy="48.139" rx="1.659" ry="1.669"/>
        <ellipse cx="29.268" cy="48.139" rx="1.659" ry="1.669"/>
        <ellipse cx="20.641" cy="48.139" rx="1.659" ry="1.669"/>
        <ellipse cx="11.35" cy="48.139" rx="1.659" ry="1.669"/>
        <ellipse cx="2.06" cy="48.139" rx="1.659" ry="1.669"/>
        <ellipse cx="130.136" cy="39.459" rx="1.659" ry="1.669"/>
        <ellipse cx="120.846" cy="39.459" rx="1.659" ry="1.669"/>
        <ellipse cx="111.555" cy="39.459" rx="1.659" ry="1.669"/>
        <ellipse cx="102.928" cy="39.459" rx="1.659" ry="1.669"/>
        <ellipse cx="92.974" cy="39.459" rx="1.659" ry="1.669"/>
        <ellipse cx="84.347" cy="39.459" rx="1.659" ry="1.669"/>
        <ellipse cx="75.057" cy="39.459" rx="1.659" ry="1.669"/>
        <ellipse cx="66.43" cy="39.459" rx="1.659" ry="1.669"/>
        <ellipse cx="57.139" cy="39.459" rx="1.659" ry="1.669"/>
        <ellipse cx="47.849" cy="39.459" rx="1.659" ry="1.669"/>
        <ellipse cx="39.222" cy="39.459" rx="1.659" ry="1.669"/>
        <ellipse cx="29.268" cy="39.459" rx="1.659" ry="1.669"/>
        <ellipse cx="20.641" cy="39.459" rx="1.659" ry="1.669"/>
        <ellipse cx="11.35" cy="39.459" rx="1.659" ry="1.669"/>
        <ellipse cx="2.06" cy="39.459" rx="1.659" ry="1.669"/>
        <ellipse cx="130.136" cy="29.444" rx="1.659" ry="1.669"/>
        <ellipse cx="120.846" cy="29.444" rx="1.659" ry="1.669"/>
        <ellipse cx="111.555" cy="29.444" rx="1.659" ry="1.669"/>
        <ellipse cx="102.928" cy="29.444" rx="1.659" ry="1.669"/>
        <ellipse cx="92.974" cy="29.444" rx="1.659" ry="1.669"/>
        <ellipse cx="84.347" cy="29.444" rx="1.659" ry="1.669"/>
        <ellipse cx="75.057" cy="29.444" rx="1.659" ry="1.669"/>
        <ellipse cx="66.43" cy="29.444" rx="1.659" ry="1.669"/>
        <ellipse cx="57.139" cy="29.444" rx="1.659" ry="1.669"/>
        <ellipse cx="47.849" cy="29.444" rx="1.659" ry="1.669"/>
        <ellipse cx="39.222" cy="29.444" rx="1.659" ry="1.669"/>
        <ellipse cx="29.268" cy="29.444" rx="1.659" ry="1.669"/>
        <ellipse cx="20.641" cy="29.444" rx="1.659" ry="1.669"/>
        <ellipse cx="11.35" cy="29.444" rx="1.659" ry="1.669"/>
        <ellipse cx="2.06" cy="29.444" rx="1.659" ry="1.669"/>
        <ellipse cx="130.136" cy="20.765" rx="1.659" ry="1.669"/>
        <ellipse cx="120.846" cy="20.765" rx="1.659" ry="1.669"/>
        <ellipse cx="111.555" cy="20.765" rx="1.659" ry="1.669"/>
        <ellipse cx="102.928" cy="20.765" rx="1.659" ry="1.669"/>
        <ellipse cx="92.974" cy="20.765" rx="1.659" ry="1.669"/>
        <ellipse cx="84.347" cy="20.765" rx="1.659" ry="1.669"/>
        <ellipse cx="75.057" cy="20.765" rx="1.659" ry="1.669"/>
        <ellipse cx="66.43" cy="20.765" rx="1.659" ry="1.669"/>
        <ellipse cx="57.139" cy="20.765" rx="1.659" ry="1.669"/>
        <ellipse cx="47.849" cy="20.765" rx="1.659" ry="1.669"/>
        <ellipse cx="39.222" cy="20.765" rx="1.659" ry="1.669"/>
        <ellipse cx="29.268" cy="20.765" rx="1.659" ry="1.669"/>
        <ellipse cx="20.641" cy="20.765" rx="1.659" ry="1.669"/>
        <ellipse cx="11.35" cy="20.765" rx="1.659" ry="1.669"/>
        <ellipse cx="2.06" cy="20.765" rx="1.659" ry="1.669"/>
        <ellipse cx="130.136" cy="11.417" rx="1.659" ry="1.669"/>
        <ellipse cx="120.846" cy="11.417" rx="1.659" ry="1.669"/>
        <ellipse cx="111.555" cy="11.417" rx="1.659" ry="1.669"/>
        <ellipse cx="102.928" cy="11.417" rx="1.659" ry="1.669"/>
        <ellipse cx="92.974" cy="11.417" rx="1.659" ry="1.669"/>
        <ellipse cx="84.347" cy="11.417" rx="1.659" ry="1.669"/>
        <ellipse cx="75.057" cy="11.417" rx="1.659" ry="1.669"/>
        <ellipse cx="66.43" cy="11.417" rx="1.659" ry="1.669"/>
        <ellipse cx="57.139" cy="11.417" rx="1.659" ry="1.669"/>
        <ellipse cx="47.849" cy="11.417" rx="1.659" ry="1.669"/>
        <ellipse cx="39.222" cy="11.417" rx="1.659" ry="1.669"/>
        <ellipse cx="29.268" cy="11.417" rx="1.659" ry="1.669"/>
        <ellipse cx="20.641" cy="11.417" rx="1.659" ry="1.669"/>
        <ellipse cx="11.35" cy="11.417" rx="1.659" ry="1.669"/>
        <ellipse cx="2.06" cy="11.417" rx="1.659" ry="1.669"/>
        <ellipse cx="130.136" cy="2.07" rx="1.659" ry="1.669"/>
        <ellipse cx="120.846" cy="2.07" rx="1.659" ry="1.669"/>
        <ellipse cx="111.555" cy="2.07" rx="1.659" ry="1.669"/>
        <ellipse cx="102.928" cy="2.07" rx="1.659" ry="1.669"/>
        <ellipse cx="92.974" cy="2.07" rx="1.659" ry="1.669"/>
        <ellipse cx="84.347" cy="2.07" rx="1.659" ry="1.669"/>
        <ellipse cx="75.057" cy="2.07" rx="1.659" ry="1.669"/>
        <ellipse cx="66.43" cy="2.07" rx="1.659" ry="1.669"/>
        <ellipse cx="57.139" cy="2.07" rx="1.659" ry="1.669"/>
        <ellipse cx="47.849" cy="2.07" rx="1.659" ry="1.669"/>
        <ellipse cx="39.222" cy="2.07" rx="1.659" ry="1.669"/>
        <ellipse cx="29.268" cy="2.07" rx="1.659" ry="1.669"/>
        <ellipse cx="20.641" cy="2.07" rx="1.659" ry="1.669"/>
        <ellipse cx="11.35" cy="2.07" rx="1.659" ry="1.669"/>
        <ellipse cx="2.06" cy="2.07" rx="1.659" ry="1.669"/>
    </g>
</svg>
