<svg xmlns="http://www.w3.org/2000/svg" width="134" height="270" viewBox="0 0 134 270">
    <g fill="#4E3440" fill-rule="nonzero" opacity=".4">
        <ellipse cx="2.474" cy="267.547" rx="1.654" ry="1.672" transform="rotate(90 2.474 267.547)"/>
        <path d="M.802 258.284c0 .914.749 1.654 1.672 1.654.923 0 1.672-.74 1.672-1.654 0-.609-.558-1.16-1.672-1.654-1.114.494-1.672 1.045-1.672 1.654z"/>
        <ellipse cx="2.474" cy="249.021" rx="1.654" ry="1.672" transform="rotate(90 2.474 249.021)"/>
        <ellipse cx="2.474" cy="240.42" rx="1.654" ry="1.672" transform="rotate(90 2.474 240.42)"/>
        <ellipse cx="2.474" cy="230.495" rx="1.654" ry="1.672" transform="rotate(90 2.474 230.495)"/>
        <ellipse cx="2.474" cy="221.893" rx="1.654" ry="1.672" transform="rotate(90 2.474 221.893)"/>
        <ellipse cx="2.474" cy="212.63" rx="1.654" ry="1.672" transform="rotate(90 2.474 212.63)"/>
        <ellipse cx="2.474" cy="204.029" rx="1.654" ry="1.672" transform="rotate(90 2.474 204.029)"/>
        <ellipse cx="2.474" cy="194.766" rx="1.654" ry="1.672" transform="rotate(90 2.474 194.766)"/>
        <ellipse cx="2.474" cy="185.503" rx="1.654" ry="1.672" transform="rotate(90 2.474 185.503)"/>
        <ellipse cx="2.474" cy="176.902" rx="1.654" ry="1.672" transform="rotate(90 2.474 176.902)"/>
        <ellipse cx="2.474" cy="166.977" rx="1.654" ry="1.672" transform="rotate(90 2.474 166.977)"/>
        <ellipse cx="2.474" cy="158.375" rx="1.654" ry="1.672" transform="rotate(90 2.474 158.375)"/>
        <ellipse cx="2.474" cy="149.112" rx="1.654" ry="1.672" transform="rotate(90 2.474 149.112)"/>
        <ellipse cx="2.474" cy="139.849" rx="1.654" ry="1.672" transform="rotate(90 2.474 139.85)"/>
        <ellipse cx="11.835" cy="267.547" rx="1.654" ry="1.672" transform="rotate(90 11.835 267.547)"/>
        <ellipse cx="11.835" cy="258.284" rx="1.654" ry="1.672" transform="rotate(90 11.835 258.284)"/>
        <ellipse cx="11.835" cy="249.021" rx="1.654" ry="1.672" transform="rotate(90 11.835 249.021)"/>
        <ellipse cx="11.835" cy="240.42" rx="1.654" ry="1.672" transform="rotate(90 11.835 240.42)"/>
        <ellipse cx="11.835" cy="230.495" rx="1.654" ry="1.672" transform="rotate(90 11.835 230.495)"/>
        <ellipse cx="11.835" cy="221.893" rx="1.654" ry="1.672" transform="rotate(90 11.835 221.893)"/>
        <ellipse cx="11.835" cy="212.63" rx="1.654" ry="1.672" transform="rotate(90 11.835 212.63)"/>
        <ellipse cx="11.835" cy="204.029" rx="1.654" ry="1.672" transform="rotate(90 11.835 204.029)"/>
        <ellipse cx="11.835" cy="194.766" rx="1.654" ry="1.672" transform="rotate(90 11.835 194.766)"/>
        <ellipse cx="11.835" cy="185.503" rx="1.654" ry="1.672" transform="rotate(90 11.835 185.503)"/>
        <ellipse cx="11.835" cy="176.902" rx="1.654" ry="1.672" transform="rotate(90 11.835 176.902)"/>
        <ellipse cx="11.835" cy="166.977" rx="1.654" ry="1.672" transform="rotate(90 11.835 166.977)"/>
        <ellipse cx="11.835" cy="158.375" rx="1.654" ry="1.672" transform="rotate(90 11.835 158.375)"/>
        <ellipse cx="11.835" cy="149.112" rx="1.654" ry="1.672" transform="rotate(90 11.835 149.112)"/>
        <ellipse cx="11.835" cy="139.849" rx="1.654" ry="1.672" transform="rotate(90 11.835 139.85)"/>
        <ellipse cx="21.197" cy="267.547" rx="1.654" ry="1.672" transform="rotate(90 21.197 267.547)"/>
        <ellipse cx="21.197" cy="258.284" rx="1.654" ry="1.672" transform="rotate(90 21.197 258.284)"/>
        <ellipse cx="21.197" cy="249.021" rx="1.654" ry="1.672" transform="rotate(90 21.197 249.021)"/>
        <ellipse cx="21.197" cy="240.42" rx="1.654" ry="1.672" transform="rotate(90 21.197 240.42)"/>
        <ellipse cx="21.197" cy="230.495" rx="1.654" ry="1.672" transform="rotate(90 21.197 230.495)"/>
        <ellipse cx="21.197" cy="221.893" rx="1.654" ry="1.672" transform="rotate(90 21.197 221.893)"/>
        <ellipse cx="21.197" cy="212.63" rx="1.654" ry="1.672" transform="rotate(90 21.197 212.63)"/>
        <ellipse cx="21.197" cy="204.029" rx="1.654" ry="1.672" transform="rotate(90 21.197 204.029)"/>
        <ellipse cx="21.197" cy="194.766" rx="1.654" ry="1.672" transform="rotate(90 21.197 194.766)"/>
        <ellipse cx="21.197" cy="185.503" rx="1.654" ry="1.672" transform="rotate(90 21.197 185.503)"/>
        <ellipse cx="21.197" cy="176.902" rx="1.654" ry="1.672" transform="rotate(90 21.197 176.902)"/>
        <ellipse cx="21.197" cy="166.977" rx="1.654" ry="1.672" transform="rotate(90 21.197 166.977)"/>
        <ellipse cx="21.197" cy="158.375" rx="1.654" ry="1.672" transform="rotate(90 21.197 158.375)"/>
        <ellipse cx="21.197" cy="149.112" rx="1.654" ry="1.672" transform="rotate(90 21.197 149.112)"/>
        <ellipse cx="21.197" cy="139.849" rx="1.654" ry="1.672" transform="rotate(90 21.197 139.85)"/>
        <ellipse cx="29.889" cy="267.547" rx="1.654" ry="1.672" transform="rotate(90 29.89 267.547)"/>
        <ellipse cx="29.889" cy="258.284" rx="1.654" ry="1.672" transform="rotate(90 29.89 258.284)"/>
        <ellipse cx="29.889" cy="249.021" rx="1.654" ry="1.672" transform="rotate(90 29.89 249.021)"/>
        <ellipse cx="29.889" cy="240.42" rx="1.654" ry="1.672" transform="rotate(90 29.89 240.42)"/>
        <ellipse cx="29.889" cy="230.495" rx="1.654" ry="1.672" transform="rotate(90 29.89 230.495)"/>
        <ellipse cx="29.889" cy="221.893" rx="1.654" ry="1.672" transform="rotate(90 29.89 221.893)"/>
        <ellipse cx="29.889" cy="212.63" rx="1.654" ry="1.672" transform="rotate(90 29.89 212.63)"/>
        <ellipse cx="29.889" cy="204.029" rx="1.654" ry="1.672" transform="rotate(90 29.89 204.029)"/>
        <ellipse cx="29.889" cy="194.766" rx="1.654" ry="1.672" transform="rotate(90 29.89 194.766)"/>
        <ellipse cx="29.889" cy="185.503" rx="1.654" ry="1.672" transform="rotate(90 29.89 185.503)"/>
        <ellipse cx="29.889" cy="176.902" rx="1.654" ry="1.672" transform="rotate(90 29.89 176.902)"/>
        <ellipse cx="29.889" cy="166.977" rx="1.654" ry="1.672" transform="rotate(90 29.89 166.977)"/>
        <ellipse cx="29.889" cy="158.375" rx="1.654" ry="1.672" transform="rotate(90 29.89 158.375)"/>
        <ellipse cx="29.889" cy="149.112" rx="1.654" ry="1.672" transform="rotate(90 29.89 149.112)"/>
        <ellipse cx="29.889" cy="139.849" rx="1.654" ry="1.672" transform="rotate(90 29.89 139.85)"/>
        <ellipse cx="39.919" cy="267.547" rx="1.654" ry="1.672" transform="rotate(90 39.92 267.547)"/>
        <ellipse cx="39.919" cy="258.284" rx="1.654" ry="1.672" transform="rotate(90 39.92 258.284)"/>
        <ellipse cx="39.919" cy="249.021" rx="1.654" ry="1.672" transform="rotate(90 39.92 249.021)"/>
        <ellipse cx="39.919" cy="240.42" rx="1.654" ry="1.672" transform="rotate(90 39.92 240.42)"/>
        <ellipse cx="39.919" cy="230.495" rx="1.654" ry="1.672" transform="rotate(90 39.92 230.495)"/>
        <ellipse cx="39.919" cy="221.893" rx="1.654" ry="1.672" transform="rotate(90 39.92 221.893)"/>
        <ellipse cx="39.919" cy="212.63" rx="1.654" ry="1.672" transform="rotate(90 39.92 212.63)"/>
        <ellipse cx="39.919" cy="204.029" rx="1.654" ry="1.672" transform="rotate(90 39.92 204.029)"/>
        <ellipse cx="39.919" cy="194.766" rx="1.654" ry="1.672" transform="rotate(90 39.92 194.766)"/>
        <ellipse cx="39.919" cy="185.503" rx="1.654" ry="1.672" transform="rotate(90 39.92 185.503)"/>
        <ellipse cx="39.919" cy="176.902" rx="1.654" ry="1.672" transform="rotate(90 39.92 176.902)"/>
        <ellipse cx="39.919" cy="166.977" rx="1.654" ry="1.672" transform="rotate(90 39.92 166.977)"/>
        <ellipse cx="39.919" cy="158.375" rx="1.654" ry="1.672" transform="rotate(90 39.92 158.375)"/>
        <ellipse cx="39.919" cy="149.112" rx="1.654" ry="1.672" transform="rotate(90 39.92 149.112)"/>
        <ellipse cx="39.919" cy="139.849" rx="1.654" ry="1.672" transform="rotate(90 39.92 139.85)"/>
        <ellipse cx="48.612" cy="267.547" rx="1.654" ry="1.672" transform="rotate(90 48.612 267.547)"/>
        <ellipse cx="48.612" cy="258.284" rx="1.654" ry="1.672" transform="rotate(90 48.612 258.284)"/>
        <ellipse cx="48.612" cy="249.021" rx="1.654" ry="1.672" transform="rotate(90 48.612 249.021)"/>
        <ellipse cx="48.612" cy="240.42" rx="1.654" ry="1.672" transform="rotate(90 48.612 240.42)"/>
        <ellipse cx="48.612" cy="230.495" rx="1.654" ry="1.672" transform="rotate(90 48.612 230.495)"/>
        <ellipse cx="48.612" cy="221.893" rx="1.654" ry="1.672" transform="rotate(90 48.612 221.893)"/>
        <ellipse cx="48.612" cy="212.63" rx="1.654" ry="1.672" transform="rotate(90 48.612 212.63)"/>
        <ellipse cx="48.612" cy="204.029" rx="1.654" ry="1.672" transform="rotate(90 48.612 204.029)"/>
        <ellipse cx="48.612" cy="194.766" rx="1.654" ry="1.672" transform="rotate(90 48.612 194.766)"/>
        <ellipse cx="48.612" cy="185.503" rx="1.654" ry="1.672" transform="rotate(90 48.612 185.503)"/>
        <ellipse cx="48.612" cy="176.902" rx="1.654" ry="1.672" transform="rotate(90 48.612 176.902)"/>
        <ellipse cx="48.612" cy="166.977" rx="1.654" ry="1.672" transform="rotate(90 48.612 166.977)"/>
        <ellipse cx="48.612" cy="158.375" rx="1.654" ry="1.672" transform="rotate(90 48.612 158.375)"/>
        <ellipse cx="48.612" cy="149.112" rx="1.654" ry="1.672" transform="rotate(90 48.612 149.112)"/>
        <ellipse cx="48.612" cy="139.849" rx="1.654" ry="1.672" transform="rotate(90 48.612 139.85)"/>
        <ellipse cx="57.973" cy="267.547" rx="1.654" ry="1.672" transform="rotate(90 57.973 267.547)"/>
        <ellipse cx="57.973" cy="258.284" rx="1.654" ry="1.672" transform="rotate(90 57.973 258.284)"/>
        <ellipse cx="57.973" cy="249.021" rx="1.654" ry="1.672" transform="rotate(90 57.973 249.021)"/>
        <ellipse cx="57.973" cy="240.42" rx="1.654" ry="1.672" transform="rotate(90 57.973 240.42)"/>
        <ellipse cx="57.973" cy="230.495" rx="1.654" ry="1.672" transform="rotate(90 57.973 230.495)"/>
        <ellipse cx="57.973" cy="221.893" rx="1.654" ry="1.672" transform="rotate(90 57.973 221.893)"/>
        <ellipse cx="57.973" cy="212.63" rx="1.654" ry="1.672" transform="rotate(90 57.973 212.63)"/>
        <ellipse cx="57.973" cy="204.029" rx="1.654" ry="1.672" transform="rotate(90 57.973 204.029)"/>
        <ellipse cx="57.973" cy="194.766" rx="1.654" ry="1.672" transform="rotate(90 57.973 194.766)"/>
        <ellipse cx="57.973" cy="185.503" rx="1.654" ry="1.672" transform="rotate(90 57.973 185.503)"/>
        <ellipse cx="57.973" cy="176.902" rx="1.654" ry="1.672" transform="rotate(90 57.973 176.902)"/>
        <ellipse cx="57.973" cy="166.977" rx="1.654" ry="1.672" transform="rotate(90 57.973 166.977)"/>
        <ellipse cx="57.973" cy="158.375" rx="1.654" ry="1.672" transform="rotate(90 57.973 158.375)"/>
        <ellipse cx="57.973" cy="149.112" rx="1.654" ry="1.672" transform="rotate(90 57.973 149.112)"/>
        <ellipse cx="57.973" cy="139.849" rx="1.654" ry="1.672" transform="rotate(90 57.973 139.85)"/>
        <ellipse cx="66.666" cy="267.547" rx="1.654" ry="1.672" transform="rotate(90 66.666 267.547)"/>
        <ellipse cx="66.666" cy="258.284" rx="1.654" ry="1.672" transform="rotate(90 66.666 258.284)"/>
        <ellipse cx="66.666" cy="249.021" rx="1.654" ry="1.672" transform="rotate(90 66.666 249.021)"/>
        <ellipse cx="66.666" cy="240.42" rx="1.654" ry="1.672" transform="rotate(90 66.666 240.42)"/>
        <ellipse cx="66.666" cy="230.495" rx="1.654" ry="1.672" transform="rotate(90 66.666 230.495)"/>
        <ellipse cx="66.666" cy="221.893" rx="1.654" ry="1.672" transform="rotate(90 66.666 221.893)"/>
        <ellipse cx="66.666" cy="212.63" rx="1.654" ry="1.672" transform="rotate(90 66.666 212.63)"/>
        <ellipse cx="66.666" cy="204.029" rx="1.654" ry="1.672" transform="rotate(90 66.666 204.029)"/>
        <ellipse cx="66.666" cy="194.766" rx="1.654" ry="1.672" transform="rotate(90 66.666 194.766)"/>
        <ellipse cx="66.666" cy="185.503" rx="1.654" ry="1.672" transform="rotate(90 66.666 185.503)"/>
        <ellipse cx="66.666" cy="176.902" rx="1.654" ry="1.672" transform="rotate(90 66.666 176.902)"/>
        <ellipse cx="66.666" cy="166.977" rx="1.654" ry="1.672" transform="rotate(90 66.666 166.977)"/>
        <ellipse cx="66.666" cy="158.375" rx="1.654" ry="1.672" transform="rotate(90 66.666 158.375)"/>
        <ellipse cx="66.666" cy="149.112" rx="1.654" ry="1.672" transform="rotate(90 66.666 149.112)"/>
        <ellipse cx="66.666" cy="139.849" rx="1.654" ry="1.672" transform="rotate(90 66.666 139.85)"/>
        <ellipse cx="76.027" cy="267.547" rx="1.654" ry="1.672" transform="rotate(90 76.027 267.547)"/>
        <ellipse cx="76.027" cy="258.284" rx="1.654" ry="1.672" transform="rotate(90 76.027 258.284)"/>
        <ellipse cx="76.027" cy="249.021" rx="1.654" ry="1.672" transform="rotate(90 76.027 249.021)"/>
        <ellipse cx="76.027" cy="240.42" rx="1.654" ry="1.672" transform="rotate(90 76.027 240.42)"/>
        <ellipse cx="76.027" cy="230.495" rx="1.654" ry="1.672" transform="rotate(90 76.027 230.495)"/>
        <ellipse cx="76.027" cy="221.893" rx="1.654" ry="1.672" transform="rotate(90 76.027 221.893)"/>
        <ellipse cx="76.027" cy="212.63" rx="1.654" ry="1.672" transform="rotate(90 76.027 212.63)"/>
        <ellipse cx="76.027" cy="204.029" rx="1.654" ry="1.672" transform="rotate(90 76.027 204.029)"/>
        <ellipse cx="76.027" cy="194.766" rx="1.654" ry="1.672" transform="rotate(90 76.027 194.766)"/>
        <ellipse cx="76.027" cy="185.503" rx="1.654" ry="1.672" transform="rotate(90 76.027 185.503)"/>
        <ellipse cx="76.027" cy="176.902" rx="1.654" ry="1.672" transform="rotate(90 76.027 176.902)"/>
        <ellipse cx="76.027" cy="166.977" rx="1.654" ry="1.672" transform="rotate(90 76.027 166.977)"/>
        <ellipse cx="76.027" cy="158.375" rx="1.654" ry="1.672" transform="rotate(90 76.027 158.375)"/>
        <ellipse cx="76.027" cy="149.112" rx="1.654" ry="1.672" transform="rotate(90 76.027 149.112)"/>
        <ellipse cx="76.027" cy="139.849" rx="1.654" ry="1.672" transform="rotate(90 76.027 139.85)"/>
        <ellipse cx="85.388" cy="267.547" rx="1.654" ry="1.672" transform="rotate(90 85.388 267.547)"/>
        <ellipse cx="85.388" cy="258.284" rx="1.654" ry="1.672" transform="rotate(90 85.388 258.284)"/>
        <ellipse cx="85.388" cy="249.021" rx="1.654" ry="1.672" transform="rotate(90 85.388 249.021)"/>
        <ellipse cx="85.388" cy="240.42" rx="1.654" ry="1.672" transform="rotate(90 85.388 240.42)"/>
        <ellipse cx="85.388" cy="230.495" rx="1.654" ry="1.672" transform="rotate(90 85.388 230.495)"/>
        <ellipse cx="85.388" cy="221.893" rx="1.654" ry="1.672" transform="rotate(90 85.388 221.893)"/>
        <ellipse cx="85.388" cy="212.63" rx="1.654" ry="1.672" transform="rotate(90 85.388 212.63)"/>
        <ellipse cx="85.388" cy="204.029" rx="1.654" ry="1.672" transform="rotate(90 85.388 204.029)"/>
        <ellipse cx="85.388" cy="194.766" rx="1.654" ry="1.672" transform="rotate(90 85.388 194.766)"/>
        <ellipse cx="85.388" cy="185.503" rx="1.654" ry="1.672" transform="rotate(90 85.388 185.503)"/>
        <ellipse cx="85.388" cy="176.902" rx="1.654" ry="1.672" transform="rotate(90 85.388 176.902)"/>
        <ellipse cx="85.388" cy="166.977" rx="1.654" ry="1.672" transform="rotate(90 85.388 166.977)"/>
        <ellipse cx="85.388" cy="158.375" rx="1.654" ry="1.672" transform="rotate(90 85.388 158.375)"/>
        <ellipse cx="85.388" cy="149.112" rx="1.654" ry="1.672" transform="rotate(90 85.388 149.112)"/>
        <ellipse cx="85.388" cy="139.849" rx="1.654" ry="1.672" transform="rotate(90 85.388 139.85)"/>
        <ellipse cx="94.081" cy="267.547" rx="1.654" ry="1.672" transform="rotate(90 94.08 267.547)"/>
        <ellipse cx="94.081" cy="258.284" rx="1.654" ry="1.672" transform="rotate(90 94.08 258.284)"/>
        <ellipse cx="94.081" cy="249.021" rx="1.654" ry="1.672" transform="rotate(90 94.08 249.021)"/>
        <ellipse cx="94.081" cy="240.42" rx="1.654" ry="1.672" transform="rotate(90 94.08 240.42)"/>
        <ellipse cx="94.081" cy="230.495" rx="1.654" ry="1.672" transform="rotate(90 94.08 230.495)"/>
        <ellipse cx="94.081" cy="221.893" rx="1.654" ry="1.672" transform="rotate(90 94.08 221.893)"/>
        <ellipse cx="94.081" cy="212.63" rx="1.654" ry="1.672" transform="rotate(90 94.08 212.63)"/>
        <ellipse cx="94.081" cy="204.029" rx="1.654" ry="1.672" transform="rotate(90 94.08 204.029)"/>
        <ellipse cx="94.081" cy="194.766" rx="1.654" ry="1.672" transform="rotate(90 94.08 194.766)"/>
        <ellipse cx="94.081" cy="185.503" rx="1.654" ry="1.672" transform="rotate(90 94.08 185.503)"/>
        <ellipse cx="94.081" cy="176.902" rx="1.654" ry="1.672" transform="rotate(90 94.08 176.902)"/>
        <ellipse cx="94.081" cy="166.977" rx="1.654" ry="1.672" transform="rotate(90 94.08 166.977)"/>
        <ellipse cx="94.081" cy="158.375" rx="1.654" ry="1.672" transform="rotate(90 94.08 158.375)"/>
        <ellipse cx="94.081" cy="149.112" rx="1.654" ry="1.672" transform="rotate(90 94.08 149.112)"/>
        <ellipse cx="94.081" cy="139.849" rx="1.654" ry="1.672" transform="rotate(90 94.08 139.85)"/>
        <ellipse cx="104.111" cy="267.547" rx="1.654" ry="1.672" transform="rotate(90 104.11 267.547)"/>
        <ellipse cx="104.111" cy="258.284" rx="1.654" ry="1.672" transform="rotate(90 104.11 258.284)"/>
        <ellipse cx="104.111" cy="249.021" rx="1.654" ry="1.672" transform="rotate(90 104.11 249.021)"/>
        <ellipse cx="104.111" cy="240.42" rx="1.654" ry="1.672" transform="rotate(90 104.11 240.42)"/>
        <ellipse cx="104.111" cy="230.495" rx="1.654" ry="1.672" transform="rotate(90 104.11 230.495)"/>
        <ellipse cx="104.111" cy="221.893" rx="1.654" ry="1.672" transform="rotate(90 104.11 221.893)"/>
        <ellipse cx="104.111" cy="212.63" rx="1.654" ry="1.672" transform="rotate(90 104.11 212.63)"/>
        <ellipse cx="104.111" cy="204.029" rx="1.654" ry="1.672" transform="rotate(90 104.11 204.029)"/>
        <ellipse cx="104.111" cy="194.766" rx="1.654" ry="1.672" transform="rotate(90 104.11 194.766)"/>
        <ellipse cx="104.111" cy="185.503" rx="1.654" ry="1.672" transform="rotate(90 104.11 185.503)"/>
        <ellipse cx="104.111" cy="176.902" rx="1.654" ry="1.672" transform="rotate(90 104.11 176.902)"/>
        <ellipse cx="104.111" cy="166.977" rx="1.654" ry="1.672" transform="rotate(90 104.11 166.977)"/>
        <ellipse cx="104.111" cy="158.375" rx="1.654" ry="1.672" transform="rotate(90 104.11 158.375)"/>
        <ellipse cx="104.111" cy="149.112" rx="1.654" ry="1.672" transform="rotate(90 104.11 149.112)"/>
        <ellipse cx="104.111" cy="139.849" rx="1.654" ry="1.672" transform="rotate(90 104.11 139.85)"/>
        <ellipse cx="112.803" cy="267.547" rx="1.654" ry="1.672" transform="rotate(90 112.803 267.547)"/>
        <ellipse cx="112.803" cy="258.284" rx="1.654" ry="1.672" transform="rotate(90 112.803 258.284)"/>
        <ellipse cx="112.803" cy="249.021" rx="1.654" ry="1.672" transform="rotate(90 112.803 249.021)"/>
        <ellipse cx="112.803" cy="240.42" rx="1.654" ry="1.672" transform="rotate(90 112.803 240.42)"/>
        <ellipse cx="112.803" cy="230.495" rx="1.654" ry="1.672" transform="rotate(90 112.803 230.495)"/>
        <ellipse cx="112.803" cy="221.893" rx="1.654" ry="1.672" transform="rotate(90 112.803 221.893)"/>
        <ellipse cx="112.803" cy="212.63" rx="1.654" ry="1.672" transform="rotate(90 112.803 212.63)"/>
        <ellipse cx="112.803" cy="204.029" rx="1.654" ry="1.672" transform="rotate(90 112.803 204.029)"/>
        <ellipse cx="112.803" cy="194.766" rx="1.654" ry="1.672" transform="rotate(90 112.803 194.766)"/>
        <ellipse cx="112.803" cy="185.503" rx="1.654" ry="1.672" transform="rotate(90 112.803 185.503)"/>
        <ellipse cx="112.803" cy="176.902" rx="1.654" ry="1.672" transform="rotate(90 112.803 176.902)"/>
        <ellipse cx="112.803" cy="166.977" rx="1.654" ry="1.672" transform="rotate(90 112.803 166.977)"/>
        <ellipse cx="112.803" cy="158.375" rx="1.654" ry="1.672" transform="rotate(90 112.803 158.375)"/>
        <ellipse cx="112.803" cy="149.112" rx="1.654" ry="1.672" transform="rotate(90 112.803 149.112)"/>
        <ellipse cx="112.803" cy="139.849" rx="1.654" ry="1.672" transform="rotate(90 112.803 139.85)"/>
        <ellipse cx="122.165" cy="267.547" rx="1.654" ry="1.672" transform="rotate(90 122.165 267.547)"/>
        <ellipse cx="122.165" cy="258.284" rx="1.654" ry="1.672" transform="rotate(90 122.165 258.284)"/>
        <ellipse cx="122.165" cy="249.021" rx="1.654" ry="1.672" transform="rotate(90 122.165 249.021)"/>
        <ellipse cx="122.165" cy="240.42" rx="1.654" ry="1.672" transform="rotate(90 122.165 240.42)"/>
        <ellipse cx="122.165" cy="230.495" rx="1.654" ry="1.672" transform="rotate(90 122.165 230.495)"/>
        <ellipse cx="122.165" cy="221.893" rx="1.654" ry="1.672" transform="rotate(90 122.165 221.893)"/>
        <ellipse cx="122.165" cy="212.63" rx="1.654" ry="1.672" transform="rotate(90 122.165 212.63)"/>
        <ellipse cx="122.165" cy="204.029" rx="1.654" ry="1.672" transform="rotate(90 122.165 204.029)"/>
        <ellipse cx="122.165" cy="194.766" rx="1.654" ry="1.672" transform="rotate(90 122.165 194.766)"/>
        <ellipse cx="122.165" cy="185.503" rx="1.654" ry="1.672" transform="rotate(90 122.165 185.503)"/>
        <ellipse cx="122.165" cy="176.902" rx="1.654" ry="1.672" transform="rotate(90 122.165 176.902)"/>
        <ellipse cx="122.165" cy="166.977" rx="1.654" ry="1.672" transform="rotate(90 122.165 166.977)"/>
        <ellipse cx="122.165" cy="158.375" rx="1.654" ry="1.672" transform="rotate(90 122.165 158.375)"/>
        <ellipse cx="122.165" cy="149.112" rx="1.654" ry="1.672" transform="rotate(90 122.165 149.112)"/>
        <ellipse cx="122.165" cy="139.849" rx="1.654" ry="1.672" transform="rotate(90 122.165 139.85)"/>
        <ellipse cx="131.526" cy="267.547" rx="1.654" ry="1.672" transform="rotate(90 131.526 267.547)"/>
        <ellipse cx="131.526" cy="258.284" rx="1.654" ry="1.672" transform="rotate(90 131.526 258.284)"/>
        <ellipse cx="131.526" cy="249.021" rx="1.654" ry="1.672" transform="rotate(90 131.526 249.021)"/>
        <ellipse cx="131.526" cy="240.42" rx="1.654" ry="1.672" transform="rotate(90 131.526 240.42)"/>
        <ellipse cx="131.526" cy="230.495" rx="1.654" ry="1.672" transform="rotate(90 131.526 230.495)"/>
        <ellipse cx="131.526" cy="221.893" rx="1.654" ry="1.672" transform="rotate(90 131.526 221.893)"/>
        <ellipse cx="131.526" cy="212.63" rx="1.654" ry="1.672" transform="rotate(90 131.526 212.63)"/>
        <ellipse cx="131.526" cy="204.029" rx="1.654" ry="1.672" transform="rotate(90 131.526 204.029)"/>
        <ellipse cx="131.526" cy="194.766" rx="1.654" ry="1.672" transform="rotate(90 131.526 194.766)"/>
        <ellipse cx="131.526" cy="185.503" rx="1.654" ry="1.672" transform="rotate(90 131.526 185.503)"/>
        <ellipse cx="131.526" cy="176.902" rx="1.654" ry="1.672" transform="rotate(90 131.526 176.902)"/>
        <ellipse cx="131.526" cy="166.977" rx="1.654" ry="1.672" transform="rotate(90 131.526 166.977)"/>
        <ellipse cx="131.526" cy="158.375" rx="1.654" ry="1.672" transform="rotate(90 131.526 158.375)"/>
        <ellipse cx="131.526" cy="149.112" rx="1.654" ry="1.672" transform="rotate(90 131.526 149.112)"/>
        <ellipse cx="131.526" cy="139.849" rx="1.654" ry="1.672" transform="rotate(90 131.526 139.85)"/>
        <ellipse cx="2.474" cy="130.151" rx="1.654" ry="1.672" transform="rotate(90 2.474 130.15)"/>
        <path d="M.802 120.888c0 .913.749 1.654 1.672 1.654.923 0 1.672-.74 1.672-1.654 0-.61-.558-1.16-1.672-1.655-1.114.494-1.672 1.046-1.672 1.655z"/>
        <ellipse cx="2.474" cy="111.625" rx="1.654" ry="1.672" transform="rotate(90 2.474 111.625)"/>
        <ellipse cx="2.474" cy="103.023" rx="1.654" ry="1.672" transform="rotate(90 2.474 103.023)"/>
        <ellipse cx="2.474" cy="93.098" rx="1.654" ry="1.672" transform="rotate(90 2.474 93.098)"/>
        <ellipse cx="2.474" cy="84.497" rx="1.654" ry="1.672" transform="rotate(90 2.474 84.497)"/>
        <ellipse cx="2.474" cy="75.234" rx="1.654" ry="1.672" transform="rotate(90 2.474 75.234)"/>
        <ellipse cx="2.474" cy="66.633" rx="1.654" ry="1.672" transform="rotate(90 2.474 66.633)"/>
        <ellipse cx="2.474" cy="57.37" rx="1.654" ry="1.672" transform="rotate(90 2.474 57.37)"/>
        <ellipse cx="2.474" cy="48.107" rx="1.654" ry="1.672" transform="rotate(90 2.474 48.107)"/>
        <ellipse cx="2.474" cy="39.505" rx="1.654" ry="1.672" transform="rotate(90 2.474 39.505)"/>
        <ellipse cx="2.474" cy="29.58" rx="1.654" ry="1.672" transform="rotate(90 2.474 29.58)"/>
        <ellipse cx="2.474" cy="20.979" rx="1.654" ry="1.672" transform="rotate(90 2.474 20.979)"/>
        <ellipse cx="2.474" cy="11.716" rx="1.654" ry="1.672" transform="rotate(90 2.474 11.716)"/>
        <ellipse cx="2.474" cy="2.453" rx="1.654" ry="1.672" transform="rotate(90 2.474 2.453)"/>
        <ellipse cx="11.835" cy="130.151" rx="1.654" ry="1.672" transform="rotate(90 11.835 130.15)"/>
        <ellipse cx="11.835" cy="120.888" rx="1.654" ry="1.672" transform="rotate(90 11.835 120.888)"/>
        <ellipse cx="11.835" cy="111.625" rx="1.654" ry="1.672" transform="rotate(90 11.835 111.625)"/>
        <ellipse cx="11.835" cy="103.023" rx="1.654" ry="1.672" transform="rotate(90 11.835 103.023)"/>
        <ellipse cx="11.835" cy="93.098" rx="1.654" ry="1.672" transform="rotate(90 11.835 93.098)"/>
        <ellipse cx="11.835" cy="84.497" rx="1.654" ry="1.672" transform="rotate(90 11.835 84.497)"/>
        <ellipse cx="11.835" cy="75.234" rx="1.654" ry="1.672" transform="rotate(90 11.835 75.234)"/>
        <ellipse cx="11.835" cy="66.633" rx="1.654" ry="1.672" transform="rotate(90 11.835 66.633)"/>
        <ellipse cx="11.835" cy="57.37" rx="1.654" ry="1.672" transform="rotate(90 11.835 57.37)"/>
        <ellipse cx="11.835" cy="48.107" rx="1.654" ry="1.672" transform="rotate(90 11.835 48.107)"/>
        <ellipse cx="11.835" cy="39.505" rx="1.654" ry="1.672" transform="rotate(90 11.835 39.505)"/>
        <ellipse cx="11.835" cy="29.58" rx="1.654" ry="1.672" transform="rotate(90 11.835 29.58)"/>
        <ellipse cx="11.835" cy="20.979" rx="1.654" ry="1.672" transform="rotate(90 11.835 20.979)"/>
        <ellipse cx="11.835" cy="11.716" rx="1.654" ry="1.672" transform="rotate(90 11.835 11.716)"/>
        <ellipse cx="11.835" cy="2.453" rx="1.654" ry="1.672" transform="rotate(90 11.835 2.453)"/>
        <ellipse cx="21.197" cy="130.151" rx="1.654" ry="1.672" transform="rotate(90 21.197 130.15)"/>
        <ellipse cx="21.197" cy="120.888" rx="1.654" ry="1.672" transform="rotate(90 21.197 120.888)"/>
        <ellipse cx="21.197" cy="111.625" rx="1.654" ry="1.672" transform="rotate(90 21.197 111.625)"/>
        <ellipse cx="21.197" cy="103.023" rx="1.654" ry="1.672" transform="rotate(90 21.197 103.023)"/>
        <ellipse cx="21.197" cy="93.098" rx="1.654" ry="1.672" transform="rotate(90 21.197 93.098)"/>
        <ellipse cx="21.197" cy="84.497" rx="1.654" ry="1.672" transform="rotate(90 21.197 84.497)"/>
        <ellipse cx="21.197" cy="75.234" rx="1.654" ry="1.672" transform="rotate(90 21.197 75.234)"/>
        <ellipse cx="21.197" cy="66.633" rx="1.654" ry="1.672" transform="rotate(90 21.197 66.633)"/>
        <ellipse cx="21.197" cy="57.37" rx="1.654" ry="1.672" transform="rotate(90 21.197 57.37)"/>
        <ellipse cx="21.197" cy="48.107" rx="1.654" ry="1.672" transform="rotate(90 21.197 48.107)"/>
        <ellipse cx="21.197" cy="39.505" rx="1.654" ry="1.672" transform="rotate(90 21.197 39.505)"/>
        <ellipse cx="21.197" cy="29.58" rx="1.654" ry="1.672" transform="rotate(90 21.197 29.58)"/>
        <ellipse cx="21.197" cy="20.979" rx="1.654" ry="1.672" transform="rotate(90 21.197 20.979)"/>
        <ellipse cx="21.197" cy="11.716" rx="1.654" ry="1.672" transform="rotate(90 21.197 11.716)"/>
        <ellipse cx="21.197" cy="2.453" rx="1.654" ry="1.672" transform="rotate(90 21.197 2.453)"/>
        <ellipse cx="29.889" cy="130.151" rx="1.654" ry="1.672" transform="rotate(90 29.89 130.15)"/>
        <ellipse cx="29.889" cy="120.888" rx="1.654" ry="1.672" transform="rotate(90 29.89 120.888)"/>
        <ellipse cx="29.889" cy="111.625" rx="1.654" ry="1.672" transform="rotate(90 29.89 111.625)"/>
        <ellipse cx="29.889" cy="103.023" rx="1.654" ry="1.672" transform="rotate(90 29.89 103.023)"/>
        <ellipse cx="29.889" cy="93.098" rx="1.654" ry="1.672" transform="rotate(90 29.89 93.098)"/>
        <ellipse cx="29.889" cy="84.497" rx="1.654" ry="1.672" transform="rotate(90 29.89 84.497)"/>
        <ellipse cx="29.889" cy="75.234" rx="1.654" ry="1.672" transform="rotate(90 29.89 75.234)"/>
        <ellipse cx="29.889" cy="66.633" rx="1.654" ry="1.672" transform="rotate(90 29.89 66.633)"/>
        <ellipse cx="29.889" cy="57.37" rx="1.654" ry="1.672" transform="rotate(90 29.89 57.37)"/>
        <ellipse cx="29.889" cy="48.107" rx="1.654" ry="1.672" transform="rotate(90 29.89 48.107)"/>
        <ellipse cx="29.889" cy="39.505" rx="1.654" ry="1.672" transform="rotate(90 29.89 39.505)"/>
        <ellipse cx="29.889" cy="29.58" rx="1.654" ry="1.672" transform="rotate(90 29.89 29.58)"/>
        <ellipse cx="29.889" cy="20.979" rx="1.654" ry="1.672" transform="rotate(90 29.89 20.979)"/>
        <ellipse cx="29.889" cy="11.716" rx="1.654" ry="1.672" transform="rotate(90 29.89 11.716)"/>
        <ellipse cx="29.889" cy="2.453" rx="1.654" ry="1.672" transform="rotate(90 29.89 2.453)"/>
        <ellipse cx="39.919" cy="130.151" rx="1.654" ry="1.672" transform="rotate(90 39.92 130.15)"/>
        <ellipse cx="39.919" cy="120.888" rx="1.654" ry="1.672" transform="rotate(90 39.92 120.888)"/>
        <ellipse cx="39.919" cy="111.625" rx="1.654" ry="1.672" transform="rotate(90 39.92 111.625)"/>
        <ellipse cx="39.919" cy="103.023" rx="1.654" ry="1.672" transform="rotate(90 39.92 103.023)"/>
        <ellipse cx="39.919" cy="93.098" rx="1.654" ry="1.672" transform="rotate(90 39.92 93.098)"/>
        <ellipse cx="39.919" cy="84.497" rx="1.654" ry="1.672" transform="rotate(90 39.92 84.497)"/>
        <ellipse cx="39.919" cy="75.234" rx="1.654" ry="1.672" transform="rotate(90 39.92 75.234)"/>
        <ellipse cx="39.919" cy="66.633" rx="1.654" ry="1.672" transform="rotate(90 39.92 66.633)"/>
        <ellipse cx="39.919" cy="57.37" rx="1.654" ry="1.672" transform="rotate(90 39.92 57.37)"/>
        <ellipse cx="39.919" cy="48.107" rx="1.654" ry="1.672" transform="rotate(90 39.92 48.107)"/>
        <ellipse cx="39.919" cy="39.505" rx="1.654" ry="1.672" transform="rotate(90 39.92 39.505)"/>
        <ellipse cx="39.919" cy="29.58" rx="1.654" ry="1.672" transform="rotate(90 39.92 29.58)"/>
        <ellipse cx="39.919" cy="20.979" rx="1.654" ry="1.672" transform="rotate(90 39.92 20.979)"/>
        <ellipse cx="39.919" cy="11.716" rx="1.654" ry="1.672" transform="rotate(90 39.92 11.716)"/>
        <ellipse cx="39.919" cy="2.453" rx="1.654" ry="1.672" transform="rotate(90 39.92 2.453)"/>
        <ellipse cx="48.612" cy="130.151" rx="1.654" ry="1.672" transform="rotate(90 48.612 130.15)"/>
        <ellipse cx="48.612" cy="120.888" rx="1.654" ry="1.672" transform="rotate(90 48.612 120.888)"/>
        <ellipse cx="48.612" cy="111.625" rx="1.654" ry="1.672" transform="rotate(90 48.612 111.625)"/>
        <ellipse cx="48.612" cy="103.023" rx="1.654" ry="1.672" transform="rotate(90 48.612 103.023)"/>
        <ellipse cx="48.612" cy="93.098" rx="1.654" ry="1.672" transform="rotate(90 48.612 93.098)"/>
        <ellipse cx="48.612" cy="84.497" rx="1.654" ry="1.672" transform="rotate(90 48.612 84.497)"/>
        <ellipse cx="48.612" cy="75.234" rx="1.654" ry="1.672" transform="rotate(90 48.612 75.234)"/>
        <ellipse cx="48.612" cy="66.633" rx="1.654" ry="1.672" transform="rotate(90 48.612 66.633)"/>
        <ellipse cx="48.612" cy="57.37" rx="1.654" ry="1.672" transform="rotate(90 48.612 57.37)"/>
        <ellipse cx="48.612" cy="48.107" rx="1.654" ry="1.672" transform="rotate(90 48.612 48.107)"/>
        <ellipse cx="48.612" cy="39.505" rx="1.654" ry="1.672" transform="rotate(90 48.612 39.505)"/>
        <ellipse cx="48.612" cy="29.58" rx="1.654" ry="1.672" transform="rotate(90 48.612 29.58)"/>
        <ellipse cx="48.612" cy="20.979" rx="1.654" ry="1.672" transform="rotate(90 48.612 20.979)"/>
        <ellipse cx="48.612" cy="11.716" rx="1.654" ry="1.672" transform="rotate(90 48.612 11.716)"/>
        <ellipse cx="48.612" cy="2.453" rx="1.654" ry="1.672" transform="rotate(90 48.612 2.453)"/>
        <ellipse cx="57.973" cy="130.151" rx="1.654" ry="1.672" transform="rotate(90 57.973 130.15)"/>
        <ellipse cx="57.973" cy="120.888" rx="1.654" ry="1.672" transform="rotate(90 57.973 120.888)"/>
        <ellipse cx="57.973" cy="111.625" rx="1.654" ry="1.672" transform="rotate(90 57.973 111.625)"/>
        <ellipse cx="57.973" cy="103.023" rx="1.654" ry="1.672" transform="rotate(90 57.973 103.023)"/>
        <ellipse cx="57.973" cy="93.098" rx="1.654" ry="1.672" transform="rotate(90 57.973 93.098)"/>
        <ellipse cx="57.973" cy="84.497" rx="1.654" ry="1.672" transform="rotate(90 57.973 84.497)"/>
        <ellipse cx="57.973" cy="75.234" rx="1.654" ry="1.672" transform="rotate(90 57.973 75.234)"/>
        <ellipse cx="57.973" cy="66.633" rx="1.654" ry="1.672" transform="rotate(90 57.973 66.633)"/>
        <ellipse cx="57.973" cy="57.37" rx="1.654" ry="1.672" transform="rotate(90 57.973 57.37)"/>
        <ellipse cx="57.973" cy="48.107" rx="1.654" ry="1.672" transform="rotate(90 57.973 48.107)"/>
        <ellipse cx="57.973" cy="39.505" rx="1.654" ry="1.672" transform="rotate(90 57.973 39.505)"/>
        <ellipse cx="57.973" cy="29.58" rx="1.654" ry="1.672" transform="rotate(90 57.973 29.58)"/>
        <ellipse cx="57.973" cy="20.979" rx="1.654" ry="1.672" transform="rotate(90 57.973 20.979)"/>
        <ellipse cx="57.973" cy="11.716" rx="1.654" ry="1.672" transform="rotate(90 57.973 11.716)"/>
        <ellipse cx="57.973" cy="2.453" rx="1.654" ry="1.672" transform="rotate(90 57.973 2.453)"/>
        <ellipse cx="66.666" cy="130.151" rx="1.654" ry="1.672" transform="rotate(90 66.666 130.15)"/>
        <ellipse cx="66.666" cy="120.888" rx="1.654" ry="1.672" transform="rotate(90 66.666 120.888)"/>
        <ellipse cx="66.666" cy="111.625" rx="1.654" ry="1.672" transform="rotate(90 66.666 111.625)"/>
        <ellipse cx="66.666" cy="103.023" rx="1.654" ry="1.672" transform="rotate(90 66.666 103.023)"/>
        <ellipse cx="66.666" cy="93.098" rx="1.654" ry="1.672" transform="rotate(90 66.666 93.098)"/>
        <ellipse cx="66.666" cy="84.497" rx="1.654" ry="1.672" transform="rotate(90 66.666 84.497)"/>
        <ellipse cx="66.666" cy="75.234" rx="1.654" ry="1.672" transform="rotate(90 66.666 75.234)"/>
        <ellipse cx="66.666" cy="66.633" rx="1.654" ry="1.672" transform="rotate(90 66.666 66.633)"/>
        <ellipse cx="66.666" cy="57.37" rx="1.654" ry="1.672" transform="rotate(90 66.666 57.37)"/>
        <ellipse cx="66.666" cy="48.107" rx="1.654" ry="1.672" transform="rotate(90 66.666 48.107)"/>
        <ellipse cx="66.666" cy="39.505" rx="1.654" ry="1.672" transform="rotate(90 66.666 39.505)"/>
        <ellipse cx="66.666" cy="29.58" rx="1.654" ry="1.672" transform="rotate(90 66.666 29.58)"/>
        <ellipse cx="66.666" cy="20.979" rx="1.654" ry="1.672" transform="rotate(90 66.666 20.979)"/>
        <ellipse cx="66.666" cy="11.716" rx="1.654" ry="1.672" transform="rotate(90 66.666 11.716)"/>
        <ellipse cx="66.666" cy="2.453" rx="1.654" ry="1.672" transform="rotate(90 66.666 2.453)"/>
        <ellipse cx="76.027" cy="130.151" rx="1.654" ry="1.672" transform="rotate(90 76.027 130.15)"/>
        <ellipse cx="76.027" cy="120.888" rx="1.654" ry="1.672" transform="rotate(90 76.027 120.888)"/>
        <ellipse cx="76.027" cy="111.625" rx="1.654" ry="1.672" transform="rotate(90 76.027 111.625)"/>
        <ellipse cx="76.027" cy="103.023" rx="1.654" ry="1.672" transform="rotate(90 76.027 103.023)"/>
        <ellipse cx="76.027" cy="93.098" rx="1.654" ry="1.672" transform="rotate(90 76.027 93.098)"/>
        <ellipse cx="76.027" cy="84.497" rx="1.654" ry="1.672" transform="rotate(90 76.027 84.497)"/>
        <ellipse cx="76.027" cy="75.234" rx="1.654" ry="1.672" transform="rotate(90 76.027 75.234)"/>
        <ellipse cx="76.027" cy="66.633" rx="1.654" ry="1.672" transform="rotate(90 76.027 66.633)"/>
        <ellipse cx="76.027" cy="57.37" rx="1.654" ry="1.672" transform="rotate(90 76.027 57.37)"/>
        <ellipse cx="76.027" cy="48.107" rx="1.654" ry="1.672" transform="rotate(90 76.027 48.107)"/>
        <ellipse cx="76.027" cy="39.505" rx="1.654" ry="1.672" transform="rotate(90 76.027 39.505)"/>
        <ellipse cx="76.027" cy="29.58" rx="1.654" ry="1.672" transform="rotate(90 76.027 29.58)"/>
        <ellipse cx="76.027" cy="20.979" rx="1.654" ry="1.672" transform="rotate(90 76.027 20.979)"/>
        <ellipse cx="76.027" cy="11.716" rx="1.654" ry="1.672" transform="rotate(90 76.027 11.716)"/>
        <ellipse cx="76.027" cy="2.453" rx="1.654" ry="1.672" transform="rotate(90 76.027 2.453)"/>
        <ellipse cx="85.388" cy="130.151" rx="1.654" ry="1.672" transform="rotate(90 85.388 130.15)"/>
        <ellipse cx="85.388" cy="120.888" rx="1.654" ry="1.672" transform="rotate(90 85.388 120.888)"/>
        <ellipse cx="85.388" cy="111.625" rx="1.654" ry="1.672" transform="rotate(90 85.388 111.625)"/>
        <ellipse cx="85.388" cy="103.023" rx="1.654" ry="1.672" transform="rotate(90 85.388 103.023)"/>
        <ellipse cx="85.388" cy="93.098" rx="1.654" ry="1.672" transform="rotate(90 85.388 93.098)"/>
        <ellipse cx="85.388" cy="84.497" rx="1.654" ry="1.672" transform="rotate(90 85.388 84.497)"/>
        <ellipse cx="85.388" cy="75.234" rx="1.654" ry="1.672" transform="rotate(90 85.388 75.234)"/>
        <ellipse cx="85.388" cy="66.633" rx="1.654" ry="1.672" transform="rotate(90 85.388 66.633)"/>
        <ellipse cx="85.388" cy="57.37" rx="1.654" ry="1.672" transform="rotate(90 85.388 57.37)"/>
        <ellipse cx="85.388" cy="48.107" rx="1.654" ry="1.672" transform="rotate(90 85.388 48.107)"/>
        <ellipse cx="85.388" cy="39.505" rx="1.654" ry="1.672" transform="rotate(90 85.388 39.505)"/>
        <ellipse cx="85.388" cy="29.58" rx="1.654" ry="1.672" transform="rotate(90 85.388 29.58)"/>
        <ellipse cx="85.388" cy="20.979" rx="1.654" ry="1.672" transform="rotate(90 85.388 20.979)"/>
        <ellipse cx="85.388" cy="11.716" rx="1.654" ry="1.672" transform="rotate(90 85.388 11.716)"/>
        <ellipse cx="85.388" cy="2.453" rx="1.654" ry="1.672" transform="rotate(90 85.388 2.453)"/>
        <ellipse cx="94.081" cy="130.151" rx="1.654" ry="1.672" transform="rotate(90 94.08 130.15)"/>
        <ellipse cx="94.081" cy="120.888" rx="1.654" ry="1.672" transform="rotate(90 94.08 120.888)"/>
        <ellipse cx="94.081" cy="111.625" rx="1.654" ry="1.672" transform="rotate(90 94.08 111.625)"/>
        <ellipse cx="94.081" cy="103.023" rx="1.654" ry="1.672" transform="rotate(90 94.08 103.023)"/>
        <ellipse cx="94.081" cy="93.098" rx="1.654" ry="1.672" transform="rotate(90 94.08 93.098)"/>
        <ellipse cx="94.081" cy="84.497" rx="1.654" ry="1.672" transform="rotate(90 94.08 84.497)"/>
        <ellipse cx="94.081" cy="75.234" rx="1.654" ry="1.672" transform="rotate(90 94.08 75.234)"/>
        <ellipse cx="94.081" cy="66.633" rx="1.654" ry="1.672" transform="rotate(90 94.08 66.633)"/>
        <ellipse cx="94.081" cy="57.37" rx="1.654" ry="1.672" transform="rotate(90 94.08 57.37)"/>
        <ellipse cx="94.081" cy="48.107" rx="1.654" ry="1.672" transform="rotate(90 94.08 48.107)"/>
        <ellipse cx="94.081" cy="39.505" rx="1.654" ry="1.672" transform="rotate(90 94.08 39.505)"/>
        <ellipse cx="94.081" cy="29.58" rx="1.654" ry="1.672" transform="rotate(90 94.08 29.58)"/>
        <ellipse cx="94.081" cy="20.979" rx="1.654" ry="1.672" transform="rotate(90 94.08 20.979)"/>
        <ellipse cx="94.081" cy="11.716" rx="1.654" ry="1.672" transform="rotate(90 94.08 11.716)"/>
        <ellipse cx="94.081" cy="2.453" rx="1.654" ry="1.672" transform="rotate(90 94.08 2.453)"/>
        <ellipse cx="104.111" cy="130.151" rx="1.654" ry="1.672" transform="rotate(90 104.11 130.15)"/>
        <ellipse cx="104.111" cy="120.888" rx="1.654" ry="1.672" transform="rotate(90 104.11 120.888)"/>
        <ellipse cx="104.111" cy="111.625" rx="1.654" ry="1.672" transform="rotate(90 104.11 111.625)"/>
        <ellipse cx="104.111" cy="103.023" rx="1.654" ry="1.672" transform="rotate(90 104.11 103.023)"/>
        <ellipse cx="104.111" cy="93.098" rx="1.654" ry="1.672" transform="rotate(90 104.11 93.098)"/>
        <ellipse cx="104.111" cy="84.497" rx="1.654" ry="1.672" transform="rotate(90 104.11 84.497)"/>
        <ellipse cx="104.111" cy="75.234" rx="1.654" ry="1.672" transform="rotate(90 104.11 75.234)"/>
        <ellipse cx="104.111" cy="66.633" rx="1.654" ry="1.672" transform="rotate(90 104.11 66.633)"/>
        <ellipse cx="104.111" cy="57.37" rx="1.654" ry="1.672" transform="rotate(90 104.11 57.37)"/>
        <ellipse cx="104.111" cy="48.107" rx="1.654" ry="1.672" transform="rotate(90 104.11 48.107)"/>
        <ellipse cx="104.111" cy="39.505" rx="1.654" ry="1.672" transform="rotate(90 104.11 39.505)"/>
        <ellipse cx="104.111" cy="29.58" rx="1.654" ry="1.672" transform="rotate(90 104.11 29.58)"/>
        <ellipse cx="104.111" cy="20.979" rx="1.654" ry="1.672" transform="rotate(90 104.11 20.979)"/>
        <ellipse cx="104.111" cy="11.716" rx="1.654" ry="1.672" transform="rotate(90 104.11 11.716)"/>
        <ellipse cx="104.111" cy="2.453" rx="1.654" ry="1.672" transform="rotate(90 104.11 2.453)"/>
        <ellipse cx="112.803" cy="130.151" rx="1.654" ry="1.672" transform="rotate(90 112.803 130.15)"/>
        <ellipse cx="112.803" cy="120.888" rx="1.654" ry="1.672" transform="rotate(90 112.803 120.888)"/>
        <ellipse cx="112.803" cy="111.625" rx="1.654" ry="1.672" transform="rotate(90 112.803 111.625)"/>
        <ellipse cx="112.803" cy="103.023" rx="1.654" ry="1.672" transform="rotate(90 112.803 103.023)"/>
        <ellipse cx="112.803" cy="93.098" rx="1.654" ry="1.672" transform="rotate(90 112.803 93.098)"/>
        <ellipse cx="112.803" cy="84.497" rx="1.654" ry="1.672" transform="rotate(90 112.803 84.497)"/>
        <ellipse cx="112.803" cy="75.234" rx="1.654" ry="1.672" transform="rotate(90 112.803 75.234)"/>
        <ellipse cx="112.803" cy="66.633" rx="1.654" ry="1.672" transform="rotate(90 112.803 66.633)"/>
        <ellipse cx="112.803" cy="57.37" rx="1.654" ry="1.672" transform="rotate(90 112.803 57.37)"/>
        <ellipse cx="112.803" cy="48.107" rx="1.654" ry="1.672" transform="rotate(90 112.803 48.107)"/>
        <ellipse cx="112.803" cy="39.505" rx="1.654" ry="1.672" transform="rotate(90 112.803 39.505)"/>
        <ellipse cx="112.803" cy="29.58" rx="1.654" ry="1.672" transform="rotate(90 112.803 29.58)"/>
        <ellipse cx="112.803" cy="20.979" rx="1.654" ry="1.672" transform="rotate(90 112.803 20.979)"/>
        <ellipse cx="112.803" cy="11.716" rx="1.654" ry="1.672" transform="rotate(90 112.803 11.716)"/>
        <ellipse cx="112.803" cy="2.453" rx="1.654" ry="1.672" transform="rotate(90 112.803 2.453)"/>
        <ellipse cx="122.165" cy="130.151" rx="1.654" ry="1.672" transform="rotate(90 122.165 130.15)"/>
        <ellipse cx="122.165" cy="120.888" rx="1.654" ry="1.672" transform="rotate(90 122.165 120.888)"/>
        <ellipse cx="122.165" cy="111.625" rx="1.654" ry="1.672" transform="rotate(90 122.165 111.625)"/>
        <ellipse cx="122.165" cy="103.023" rx="1.654" ry="1.672" transform="rotate(90 122.165 103.023)"/>
        <ellipse cx="122.165" cy="93.098" rx="1.654" ry="1.672" transform="rotate(90 122.165 93.098)"/>
        <ellipse cx="122.165" cy="84.497" rx="1.654" ry="1.672" transform="rotate(90 122.165 84.497)"/>
        <ellipse cx="122.165" cy="75.234" rx="1.654" ry="1.672" transform="rotate(90 122.165 75.234)"/>
        <ellipse cx="122.165" cy="66.633" rx="1.654" ry="1.672" transform="rotate(90 122.165 66.633)"/>
        <ellipse cx="122.165" cy="57.37" rx="1.654" ry="1.672" transform="rotate(90 122.165 57.37)"/>
        <ellipse cx="122.165" cy="48.107" rx="1.654" ry="1.672" transform="rotate(90 122.165 48.107)"/>
        <ellipse cx="122.165" cy="39.505" rx="1.654" ry="1.672" transform="rotate(90 122.165 39.505)"/>
        <ellipse cx="122.165" cy="29.58" rx="1.654" ry="1.672" transform="rotate(90 122.165 29.58)"/>
        <ellipse cx="122.165" cy="20.979" rx="1.654" ry="1.672" transform="rotate(90 122.165 20.979)"/>
        <ellipse cx="122.165" cy="11.716" rx="1.654" ry="1.672" transform="rotate(90 122.165 11.716)"/>
        <ellipse cx="122.165" cy="2.453" rx="1.654" ry="1.672" transform="rotate(90 122.165 2.453)"/>
        <ellipse cx="131.526" cy="130.151" rx="1.654" ry="1.672" transform="rotate(90 131.526 130.15)"/>
        <ellipse cx="131.526" cy="120.888" rx="1.654" ry="1.672" transform="rotate(90 131.526 120.888)"/>
        <ellipse cx="131.526" cy="111.625" rx="1.654" ry="1.672" transform="rotate(90 131.526 111.625)"/>
        <ellipse cx="131.526" cy="103.023" rx="1.654" ry="1.672" transform="rotate(90 131.526 103.023)"/>
        <ellipse cx="131.526" cy="93.098" rx="1.654" ry="1.672" transform="rotate(90 131.526 93.098)"/>
        <ellipse cx="131.526" cy="84.497" rx="1.654" ry="1.672" transform="rotate(90 131.526 84.497)"/>
        <ellipse cx="131.526" cy="75.234" rx="1.654" ry="1.672" transform="rotate(90 131.526 75.234)"/>
        <ellipse cx="131.526" cy="66.633" rx="1.654" ry="1.672" transform="rotate(90 131.526 66.633)"/>
        <ellipse cx="131.526" cy="57.37" rx="1.654" ry="1.672" transform="rotate(90 131.526 57.37)"/>
        <ellipse cx="131.526" cy="48.107" rx="1.654" ry="1.672" transform="rotate(90 131.526 48.107)"/>
        <ellipse cx="131.526" cy="39.505" rx="1.654" ry="1.672" transform="rotate(90 131.526 39.505)"/>
        <ellipse cx="131.526" cy="29.58" rx="1.654" ry="1.672" transform="rotate(90 131.526 29.58)"/>
        <ellipse cx="131.526" cy="20.979" rx="1.654" ry="1.672" transform="rotate(90 131.526 20.979)"/>
        <ellipse cx="131.526" cy="11.716" rx="1.654" ry="1.672" transform="rotate(90 131.526 11.716)"/>
        <ellipse cx="131.526" cy="2.453" rx="1.654" ry="1.672" transform="rotate(90 131.526 2.453)"/>
    </g>
</svg>
