<svg xmlns="http://www.w3.org/2000/svg" width="348" height="429" viewBox="0 0 348 429">
    <path fill="#FFD5BE" fill-rule="evenodd" d="M45.833 335.922c24.716 6.136 45.803 22.32 58.36 44.869 8.135 14.61 25.729 31.593 40.772 39.123 48.325 24.196 115.82-4.371 141.42-67.466 23.471-57.85-32.115-127.236 5.13-154.346 87.599-63.764 57.127-142.577 7.783-179.482-31.873-23.839-90.602-31.881-134.401 24.458-12.895 16.587-30.488 28.442-49.957 34.775-33.253 10.813-68.509 43.848-91.779 90.186-35.002 69.703-29.63 143.107 12 163.95a51.48 51.48 0 0 0 10.672 3.933"/>
</svg>
