<svg xmlns="http://www.w3.org/2000/svg" width="295" height="364" viewBox="0 0 295 364">
    <path fill="#EE4540" fill-rule="evenodd" d="M255.802 79.229c-20.948-5.208-38.824-18.928-49.472-38.04-6.9-12.384-21.815-26.781-34.566-33.168-40.962-20.52-98.152 3.666-119.826 57.123-19.87 49.014 27.26 107.83-4.295 130.79-74.215 54.004-48.365 120.799-6.536 152.088 27.019 20.211 76.792 27.046 113.892-20.68 10.922-14.052 25.827-24.092 42.324-29.451 28.177-9.152 58.044-37.134 77.749-76.392 29.64-59.054 25.063-121.258-10.224-138.933a43.663 43.663 0 0 0-9.046-3.337"/>
</svg>
