<svg xmlns="http://www.w3.org/2000/svg" width="1220" height="454" viewBox="0 0 1220 454">
    <defs>
        <linearGradient id="a" x1="-.008%" x2="100.007%" y1="49.992%" y2="49.992%">
            <stop offset="0%" stop-color="#E3E3E2"/>
            <stop offset="100%" stop-color="#C8C8C8"/>
        </linearGradient>
        <linearGradient id="b" x1="0%" x2="99.999%" y1="49.999%" y2="49.999%">
            <stop offset="0%" stop-color="#C8C8C8"/>
            <stop offset="100%" stop-color="#E3E3E2"/>
        </linearGradient>
        <linearGradient id="c" x1="0%" x2="99.993%" y1="50.003%" y2="50.003%">
            <stop offset="0%" stop-color="#E3E3E2"/>
            <stop offset="100%" stop-color="#C8C8C8"/>
        </linearGradient>
    </defs>
    <g fill="none" fill-rule="evenodd">
        <path stroke="#F4D2D2" stroke-linecap="round" stroke-linejoin="round" stroke-width=".97" d="M14.051 5.163v29.839c0 17.912 14.503 32.433 32.393 32.433h82.661c17.89 0 32.394 14.521 32.394 32.433v70.056c0 17.912 14.503 32.433 32.394 32.433h49.535c17.89 0 32.394 14.521 32.394 32.433v28.542c0 17.912 14.503 32.433 32.393 32.433h35.614c17.89 0 32.394 14.52 32.394 32.433v75.246c0 17.911 14.503 32.433 32.393 32.433h454.946c17.89 0 32.394-14.522 32.394-32.433v-44.11c0-17.912 14.503-32.433 32.394-32.433 17.89 0 32.393-14.521 32.393-32.433V84.623c0-17.912 14.503-32.433 32.394-32.433h220.673"/>
        <path fill="#F39F85" d="M423.531 322.186l5.078 14.816 12.502-8.38-7.571-17.53z"/>
        <path fill="#F6B58E" d="M418.856 324.436c-1.901.272-3.703.287-4.745-.306-6.809-7.027-4.241-29.544-4.241-29.544l8.092-5.174 12.256 5.037 3.073 14.27c.82 3.81-.389 7.805-3.26 10.763-3.174 2.576-7.039 4.363-11.175 4.954"/>
        <path fill="#EE4540" d="M572.029 272.831l9.233.856L600 281.522l-34.702-6.992z"/>
        <path fill="#FFB085" d="M600 281.523l-34.066-5.007-.636-1.986zM567.56 287.249l-1.93-4.947-.05-.063 34.336-.706z"/>
        <path fill="#EE4540" d="M599.779 281.49l-30.663 2.255-10.186-3.836 4.332-4.284z"/>
        <g fill="#EE4540">
            <path d="M491.162 352.556a25.016 25.016 0 0 0 3.048-1.697.49.49 0 0 1 .671.136.476.476 0 0 1-.138.663 26.092 26.092 0 0 1-4.355 2.287.484.484 0 0 1-.633-.257.476.476 0 0 1 .26-.626c.386-.159.768-.329 1.147-.506M548.86 277.36c1.525.035 3.117.118 4.867.255a.482.482 0 0 1 .445.514.484.484 0 0 1-.522.44 87.226 87.226 0 0 0-4.812-.252.48.48 0 0 1-.474-.49.482.482 0 0 1 .497-.468M540.86 278.553a.478.478 0 0 1-.235-.359.48.48 0 0 1 .428-.53 53.842 53.842 0 0 1 4.878-.31.48.48 0 1 1 .02.956 53.426 53.426 0 0 0-4.79.306.483.483 0 0 1-.301-.063M499.857 345.855a.481.481 0 0 1 .682-.061c.205.169.235.47.062.673a26.835 26.835 0 0 1-3.482 3.446.486.486 0 0 1-.682-.06.475.475 0 0 1 .062-.675 26.033 26.033 0 0 0 3.358-3.323M501.696 344.256a.475.475 0 0 1-.138-.664 24.632 24.632 0 0 0 2.236-4.139.485.485 0 0 1 .634-.257c.24.101.365.382.261.626a25.608 25.608 0 0 1-2.322 4.298.487.487 0 0 1-.67.136M505.072 337.39a.474.474 0 0 1-.327-.594c.426-1.435.753-2.942.996-4.61a.484.484 0 0 1 .958.135 33.047 33.047 0 0 1-1.025 4.744.486.486 0 0 1-.602.324M513.56 295.431c-.35.526-.687 1.06-1.01 1.6a36.393 36.393 0 0 0-1.366 2.501.489.489 0 0 1-.65.219l-.033-.019a.473.473 0 0 1-.186-.621 37.66 37.66 0 0 1 2.438-4.206c.146-.221.43-.307.671-.136a.474.474 0 0 1 .137.662M510.02 302.124a34.757 34.757 0 0 0-1.456 4.494.484.484 0 0 1-.941-.228 35.494 35.494 0 0 1 1.497-4.62.487.487 0 0 1 .63-.269.48.48 0 0 1 .27.623M518.383 289.567a39.088 39.088 0 0 0-3.152 3.557.489.489 0 0 1-.68.086.474.474 0 0 1-.087-.67 39.821 39.821 0 0 1 3.23-3.647.485.485 0 0 1 .684-.003.475.475 0 0 1 .005.677M526.696 283.23a.488.488 0 0 1-.66-.177.474.474 0 0 1 .18-.654 38.324 38.324 0 0 1 4.401-2.136c.25-.101.531.015.633.259a.476.476 0 0 1-.262.625 37.635 37.635 0 0 0-4.292 2.083M506.806 322.218a.478.478 0 0 1-.48-.484l.006-.606c.013-1.397.027-2.795.066-4.191a.482.482 0 0 1 .498-.466c.268.01.478.227.472.493-.04 1.39-.053 2.782-.067 4.173l-.006.606a.482.482 0 0 1-.489.475M520.474 287.621a.49.49 0 0 1-.684-.045.474.474 0 0 1 .047-.675 40.159 40.159 0 0 1 3.881-2.96.49.49 0 0 1 .673.128.475.475 0 0 1-.128.665 38.96 38.96 0 0 0-3.789 2.887M506.78 324.134c.27.007.48.224.473.49a77.66 77.66 0 0 1-.23 4.812.483.483 0 0 1-.73.374.475.475 0 0 1-.236-.452 79.04 79.04 0 0 0 .228-4.756.483.483 0 0 1 .495-.468M487.326 354.017a.485.485 0 0 1 .605.317.478.478 0 0 1-.322.599 39.34 39.34 0 0 1-4.769 1.115.484.484 0 0 1-.562-.388.48.48 0 0 1 .394-.555 39.045 39.045 0 0 0 4.654-1.088M507.597 308.848a.48.48 0 0 1 .402.548 48.805 48.805 0 0 0-.507 4.714.482.482 0 0 1-.73.382.476.476 0 0 1-.237-.442c.11-1.763.28-3.334.517-4.804a.484.484 0 0 1 .555-.398M536.471 278.423a41.62 41.62 0 0 1 1.673-.337.479.479 0 1 1 .173.943 35.316 35.316 0 0 0-4.637 1.142.482.482 0 0 1-.61-.308.477.477 0 0 1 .312-.604 35.752 35.752 0 0 1 3.09-.836"/>
        </g>
        <path fill="#36222C" d="M427.848 299.122c-1.02-2.311-3.629-3.481-6.01-2.661-1.738.6-3.834 1.22-5.897 1.573-4.913.84-11.341-.046-12.615-7.548-1.276-7.503 8.348-6.501 8.348-6.501s12.856-.357 21.102 3.888c3.943 2.032 6.012 11.382 4.577 15.938a23.366 23.366 0 0 1-3.813 7.28l-5.692-11.97z"/>
        <path fill="#F6B58E" d="M434.93 302.587c-1.26-.784-3.277-.248-4.508 1.193-1.228 1.441-1.205 3.245.055 4.028 1.26.784 3.278.249 4.508-1.194 1.23-1.44 1.206-3.245-.055-4.027"/>
        <path fill="#FF8A5C" d="M433.031 327.027c-38.603 14.612-22.41 105.026-22.41 105.026l69.982 1.564s8.899-112.624-47.572-106.59"/>
        <path fill="#FFA064" d="M468.795 366.174s-16.379 57.465-31.378 57.816c-15 .351-52.707-55.86-52.707-55.86l9.12-5.652 31.227 27.19c5.534-17.024 13.447-40.562 13.447-40.562l30.291 17.068z"/>
        <path fill="#FFEDE3" d="M523.062 428.416a3.982 3.982 0 0 1 4.197 3.222 3.992 3.992 0 0 1-3.15 4.68l-77.754 15.119c-33.025 6.422-67.084-3.89-91.057-27.567a12.397 12.397 0 0 1-3.027-12.782c2.184-6.47 9.181-9.937 15.629-7.746l58.305 19.816a155.515 155.515 0 0 0 61.423 7.857l35.434-2.6z"/>
        <g fill="url(#a)" transform="translate(423.6 322.13)">
            <path d="M1.722 5.283L.63 10.248l18.723-5.135L14.811.235z"/>
        </g>
        <g>
            <path fill="#CA3E47" d="M387.033 360.663L370.3 330.517l2.357-1.316 16.733 30.146z"/>
            <path fill="#F6B58E" d="M385.68 367.528l-4.954-4.04a24.267 24.267 0 0 1-5.846-15.898l.218-8.4c1.717.884 2.777 3.863 3.634 5.6l6.236 10.413 7.953 7.837-7.24 4.488z"/>
            <path fill="#F6B58E" d="M384.173 358.996c1.031-.905 5.595 4.117 5.858 2.05 0 0-1.113-8.784-3.013-11.037-1.902-2.25-2.932-7.877-2.932-7.877s-1.993-.007-1.884 3.152c.055 1.568 1.208 3.8 1.342 6.14.135 2.372-.74 4.855.63 7.572"/>
        </g>
        <g>
            <g transform="translate(10 107)">
                <path fill="#FFEDE3" d="M.492 153.06c1.918-3.206 4.717-5.248 7.77-5.668l191.115-26.349c3.3-.455 6.251 2.754 6.591 7.167.22 2.845-.708 5.63-2.436 7.315-11.704 11.413-25.748 17.741-40.23 18.127l-161.01 4.29c-1.24.032-2.267-1.286-2.292-2.946-.01-.702.164-1.388.492-1.937z"/>
                <ellipse cx="166.5" cy="202" fill="#F5F5F8" rx="64.5" ry="12"/>
                <path fill="#36222C" d="M138.098 196.222s4.27 3.89 14.01 6.327c2.144.537 4.457-.18 4.457 3.293h-11.82l-9.83-1.669v1.67h-5.308s-1.478-8.527 1.623-9.621h6.868z"/>
                <path fill="#F6B58E" d="M137.5 190.097l.598 6.125a6.098 6.098 0 0 1-6.504.214l-.365-.214-1.102-6.125h7.373z"/>
                <path fill="#36222C" d="M188.485 196.222s4.27 3.89 14.01 6.327c2.145.537 4.457-.18 4.457 3.293h-11.82l-9.83-1.669v1.67h-5.307s-1.48-8.527 1.622-9.621h6.868z"/>
                <path fill="#F6B58E" d="M185.963 190.097l2.521 6.125a6.096 6.096 0 0 1-6.503.214l-.365-.214-3.989-6.125h8.336z"/>
                <path fill="#F39F85" d="M32.477 29.957L29.12 40.938l-11.451-4.304 9.118-15.373z"/>
                <path fill="#F6B58E" d="M35.127 33.342c1.324.516 2.62.83 3.471.58 6.085-3.907 8.015-20.543 8.015-20.543l-4.962-5.09-9.676 1.557-4.61 9.75c-1.232 2.602-1.03 5.682.541 8.295 1.854 2.39 4.34 4.327 7.221 5.45"/>
                <path fill="#36222C" d="M30.817 15.985c1.122-1.49 2.52-5.434 4.1-4.44 1.15.725 5.317 2.688 6.744 3.29 3.398 1.434 10.018 2.657 12.197-2.525 1.089-2.592-.481-5.885-1.791-7.22-1.285-1.309-3.06-2.021-4.89-2.135-4.294-.269-10.473.53-12.286-.705C31.84.175 27.697.73 26.55 3.586c-1.222 3.05-1.56 8.271-1.29 11.793a17.309 17.309 0 0 0 1.526 5.882l4.03-5.276z"/>
                <path fill="#F6B58E" d="M27.212 14.906c1.04-.35 2.404.375 3.05 1.62.642 1.244.322 2.538-.717 2.889s-2.404-.374-3.048-1.62c-.644-1.245-.324-2.538.715-2.89"/>
                <path fill="#36222C" d="M66.126 99.561l53.355-.83c4.855-.076 8.982 3.534 9.562 8.364l9.22 84.687h-7.996s-19.039-40.54-15.934-61.674c3.106-21.134-74.138-17.694-74.138-17.694l25.931-12.853z"/>
                <path fill="#F3754B" d="M18.014 35.224c-32.021 32.768 8.983 89.722 8.983 89.722l39.129-25.384C51.314 73.44 50.405 71.82 29.653 36.702c-2.47-4.178-8.248-4.947-11.64-1.478"/>
                <path fill="#F6B58E" d="M91.453 81.091c0-.722-.472-1.359-1.16-1.568l-6.687-2.034a7.008 7.008 0 0 0-5.003.354l-6.069 2.831-.85.132v5.963c1.208-.61 1.914-.983 1.914-.983l3.826-1.918s9.565 6.39 11.903-.689c1.701 6.547 3.508 5.589 3.508 5.589l-1.382-7.677z"/>
                <path fill="#F4935D" d="M20.907 41.902c-17.479 0-16.294 39.046-14.458 57.7.554 5.626 5.705 9.663 11.275 8.762 25.685-4.15 57.061-22.298 57.061-22.298l-2.245-5.463-45.543 8.998s16.36-47.699-6.09-47.699"/>
                <path fill="#4E3440" d="M26.997 124.946s8.562 18.959 44.581 18.959c36.02 0 60.613-12.853 60.613-12.853s10.718 27.312 46.49 60.73h8.555l-36.18-75.195a18.441 18.441 0 0 0-17.538-10.257l-84.98 4.642-21.54 13.974z"/>
                <g fill="url(#b)" transform="translate(18 27.496)">
                    <path d="M.631 7.209l11.715 3.17.576-2.833L4.807.475z"/>
                </g>
                <g fill="#63C0C4">
                    <path d="M106.096 101.49H64.202v-2.892h40.087l21.744-44.838 2.595 1.264z"/>
                </g>
            </g>
            <g fill="#F4935D">
                <path d="M108.722 143.994c-.445 0-.886-.201-1.177-.584-.117-.153-3.028-3.851-8.092-3.851-5.113 0-8.063 3.812-8.091 3.851a1.475 1.475 0 0 1-2.07.283 1.481 1.481 0 0 1-.281-2.072c.155-.205 3.882-5.02 10.442-5.02 6.562 0 10.288 4.815 10.443 5.02a1.481 1.481 0 0 1-1.174 2.373"/>
                <path d="M112.772 140.298c-.641 0-1.273-.29-1.69-.84-.17-.22-4.353-5.534-11.628-5.534-7.348 0-11.586 5.478-11.628 5.535a2.117 2.117 0 0 1-2.971.406 2.128 2.128 0 0 1-.406-2.977c.223-.295 5.577-7.213 15.005-7.213 9.427 0 14.78 6.918 15.005 7.213a2.127 2.127 0 0 1-1.687 3.41"/>
                <path d="M116.317 135.59a2.68 2.68 0 0 1-2.141-1.064c-.213-.277-5.51-7.007-14.722-7.007-9.304 0-14.67 6.936-14.723 7.007a2.681 2.681 0 0 1-3.763.515 2.695 2.695 0 0 1-.513-3.77c.283-.373 7.062-9.132 18.999-9.132 11.937 0 18.716 8.76 18.999 9.133a2.695 2.695 0 0 1-.514 3.77 2.678 2.678 0 0 1-1.622.547M95.396 146.582a4.062 4.062 0 0 0 4.058 4.066 4.061 4.061 0 0 0 4.057-4.066 4.061 4.061 0 0 0-4.057-4.066 4.062 4.062 0 0 0-4.058 4.066"/>
            </g>
        </g>
        <g>
            <path fill="#F3A953" d="M1056.247 148.245l12.645-.068s-.964-3.849-.603-6.805c.137-1.117.814-2.105 1.767-2.702 12.392-7.755 9.355-16.613 9.355-16.613s-1.35-11.247-17.278-12.25c-16.982-1.07-15.885 14.028-15.885 14.028s-.729 8.407 8.11 14.065c1.266.81 2.069 2.176 2.258 3.666.48 3.743-.369 6.68-.369 6.68"/>
            <path fill="#CA3E47" d="M1068.891 148.146l.025 4.533c.01 1.699-1.092 3.095-2.447 3.102l-7.7.042c-1.354.008-2.47-1.376-2.48-3.075l-.024-4.534 12.626-.068z"/>
            <path fill="#4E3440" d="M1065.673 155.785l-.86 2.076-4.787.026-1.059-2.065z"/>
            <path fill="#FEDA70" d="M1067.761 124.886c-1.437-.718-2.593-.034-3.242.613a1.913 1.913 0 0 0-.556 1.369l.015 2.76c1.61.13 3.164-.285 4.136-1.738.66-.987.552-2.446-.353-3.004m-7.48 2.646c.01-.434-.634-3.89-2.763-1.96a.932.932 0 0 0-.31.801c.168 1.216 1.893 2.032 3.113 2.43a10.57 10.57 0 0 0-.04-1.271m4.216 2.663c-.161 0-.341-.01-.517-.017l.098 17.958-.863.004-.098-18.026a14.681 14.681 0 0 1-1.905-.332c-.01.339-.018.67-.013.98l.083 5.941.158 11.446-.864.005c-.085-6.208-.172-12.416-.258-18.623-1.094-.35-2.109-.837-2.8-1.49-2.948-2.793 2.077-5.856 3.415-1.935.301.882.318 1.945.296 2.972.566.163 1.314.337 1.985.449 0 0-.023-1.658-.009-2.722.009-.602.188-1.205.59-1.652 2.224-2.465 6.96-.713 5.058 2.88-.82 1.547-2.714 2.15-4.356 2.162"/>
            <path fill="#F6A506" d="M1045.943 106.808a.67.67 0 0 0-.006-.947l-6.418-6.355a.67.67 0 0 0-.94.952l6.418 6.355c.262.26.686.257.946-.005M1074.124 106.655a.67.67 0 0 1-.005-.947l6.349-6.425a.67.67 0 1 1 .951.942l-6.349 6.425a.668.668 0 0 1-.946.005M1062.041 104.375a.668.668 0 0 0 .665-.673l-.049-9.036a.67.67 0 1 0-1.338.007l.05 9.036a.67.67 0 0 0 .672.666"/>
        </g>
        <g fill="#EE4540" fill-rule="nonzero">
            <path d="M9.629 5.696C10.875 2.143 12.737 0 14.5 0c1.763 0 3.625 2.143 4.871 5.696H9.63zM9.787.788a14.532 14.532 0 0 0-6.796 4.908h4.454A16.707 16.707 0 0 1 9.787.788zM6.212 14.5c-.008-2.263.225-4.52.694-6.733H1.663a14.464 14.464 0 0 0 0 13.466h5.243a31.945 31.945 0 0 1-.694-6.733zm2.076 0a29.113 29.113 0 0 0 .747 6.733h10.93c.51-2.207.761-4.467.747-6.733a29.113 29.113 0 0 0-.747-6.733H9.035a29.113 29.113 0 0 0-.747 6.733zm17.721-8.804A14.532 14.532 0 0 0 19.213.788a16.707 16.707 0 0 1 2.342 4.908h4.454zm-6.796 22.516a14.532 14.532 0 0 0 6.796-4.908h-4.454a16.707 16.707 0 0 1-2.342 4.908zM2.99 23.304a14.532 14.532 0 0 0 6.796 4.908 16.707 16.707 0 0 1-2.342-4.908H2.99zM22.094 7.767c.47 2.213.702 4.47.694 6.733a31.945 31.945 0 0 1-.694 6.733h5.243a14.464 14.464 0 0 0 0-13.466h-5.243zM9.63 23.304C10.875 26.857 12.737 29 14.5 29c1.763 0 3.625-2.143 4.871-5.696H9.63z"/>
        </g>
        <g>
            <path fill="#FFF" d="M307.5 234.571c2.639 0 4.79 2.118 4.79 4.715v3h1.307V250h-12.194v-7.714h1.307v-3c0-2.597 2.151-4.715 4.79-4.715z"/>
            <path fill="#FF9776" fill-rule="nonzero" d="M307.5 226l-13.5 6.429v15.857c.058 6.188 7.732 10.538 13.5 13.714 5.768-3.176 13.442-7.526 13.5-13.714v-15.857L307.5 226zm0 8.571c2.639 0 4.79 2.118 4.79 4.715v3h1.307V250h-12.194v-7.714h1.307v-3c0-2.597 2.151-4.715 4.79-4.715zm0 1.715c-1.704 0-3.048 1.323-3.048 3v3h6.096v-3c0-1.677-1.344-3-3.048-3z"/>
        </g>
        <g transform="translate(582 432)">
            <ellipse cx="4" cy="4.008" fill="#FFB085" rx="4" ry="4.008"/>
            <path fill="#EE4540" d="M18 0l6 4.008-6 4.008z"/>
            <path fill="#F3A953" d="M34 0l6 4.008-6 4.008z"/>
            <path fill="#4E3440" d="M50 0l6 4.008-6 4.008z"/>
        </g>
        <g transform="translate(1052 48.097)">
            <ellipse cx="4" cy="4.008" fill="#FFB085" rx="4" ry="4.008"/>
            <path fill="#EE4540" d="M18 0l6 4.008-6 4.008z"/>
            <path fill="#F3A953" d="M34 0l6 4.008-6 4.008z"/>
            <path fill="#4E3440" d="M50 0l6 4.008-6 4.008z"/>
        </g>
        <g transform="translate(53 63)">
            <ellipse cx="4" cy="4.008" fill="#FFB085" rx="4" ry="4.008"/>
            <path fill="#EE4540" d="M18 0l6 4.008-6 4.008z"/>
            <path fill="#F3A953" d="M34 0l6 4.008-6 4.008z"/>
            <path fill="#4E3440" d="M50 0l6 4.008-6 4.008z"/>
        </g>
        <path fill="#FFEDE3" d="M1214.848 62.063h-65.695a5.16 5.16 0 0 1-5.153-5.166v-8.731a5.16 5.16 0 0 1 5.153-5.166h65.695a5.16 5.16 0 0 1 5.152 5.166v8.73a5.16 5.16 0 0 1-5.152 5.167"/>
        <g fill-rule="nonzero">
            <path fill="#EE4540" d="M975.22 203.643c-3.64.84-8.39 1.28-13.378 1.28-5.027 0-9.738-.44-13.38-1.28l-1.068 8.32a2.063 2.063 0 0 0 1.741 2.32c2.217.28 5.463.52 8.313.64.712.04 1.385-.24 1.9-.76l.91-.92a2.505 2.505 0 0 1 1.782-.76c.672 0 1.306.28 1.78.76l.872.92c.514.52 1.187.8 1.9.76 2.691-.12 5.858-.32 7.995-.6 1.109-.16 1.9-1.16 1.742-2.28l-1.108-8.4zm-16.743 6.4c-.712.52-1.9 1.2-3.246 1.2s-2.533-.68-3.246-1.2a.715.715 0 0 1 0-1.16c.713-.52 1.9-1.2 3.246-1.2s2.534.68 3.246 1.2c.356.28.356.88 0 1.16zm13.181 0c-.712.52-1.9 1.2-3.246 1.2-1.345 0-2.533-.68-3.245-1.2a.715.715 0 0 1 0-1.16c.712-.52 1.9-1.2 3.246-1.2 1.345 0 2.533.68 3.245 1.2.396.28.396.88 0 1.16z"/>
            <path fill="#4E3440" d="M975.023 195.443l.594 2.52-1.742.4-2.058-8.88c-.396-1.72-2.098-2.8-3.8-2.4l-3.365.8c-1.86.44-3.8.44-5.66 0l-3.365-.8c-1.702-.4-3.404.68-3.8 2.4l-2.058 8.88-1.742-.4.594-2.52c-3.483.8-5.621 1.92-5.621 3.2 0 2.48 8.431 4.48 18.802 4.48 10.37 0 18.802-2 18.802-4.48.04-1.24-2.098-2.36-5.581-3.2z"/>
        </g>
        <g transform="translate(998 120)">
            <ellipse cx="94" cy="265.23" fill="#F5F5F8" rx="75" ry="12.5"/>
            <path fill="#EE4540" d="M6.238 49.39l-3.42 3.567 3.65 21.007 3.467 1.996z"/>
            <path fill="#F39F85" d="M153.016 76.087s-16.023 31.906-25.799 33.728c-9.776 1.824-54.264-14.305-54.264-14.305v-6.36l44.488 1.066 10.554-21.877 25.021 7.748z"/>
            <path fill="#FFD5BE" d="M135.675 37.23c52.702 2.674 46.726 92.465 46.726 92.465H125.9s-9.852-32.818 9.776-92.466"/>
            <path fill="#36222C" d="M134.13 248.974s-.03 7.113-14.29 11.383c-2.927.875-1.976 1.743-2.524 2.976h16.41l6.425-7.239 2 1.72 4.631-4.56s-2.163-6.6-5.69-6.658l-6.963 2.378"/>
            <path fill="#F6B58E" d="M130.359 240.262l3.77 8.711a6.42 6.42 0 0 0 6.668-2.03l.295-.346-2.155-6.335h-8.578z"/>
            <path fill="#F39F85" d="M145.435 22.825l1.79 16.627s-2.358 4.436-7.426 4.984c-5.067.548-5.461-3.113-5.461-3.113l-1.167-10.832 7.289-2.767 4.975-4.899z"/>
            <path fill="#F6B58E" d="M132.871 33.772c-1.565.122-3.038.021-3.867-.574-5.273-6.698-2.232-26.619-2.232-26.619l16.644 1.17 1.917 12.92a10.975 10.975 0 0 1-3.115 9.394c-2.703 2.097-5.938 3.445-9.346 3.71"/>
            <path fill="#36222C" d="M135.77 8.918s-5.311 1.601-11.121 1.203c-5.811-.4-2.841-7.09-2.841-7.09s4.428 1.474 11.808-.447c4.98-1.297 6.235-2.428 9.666-1.045 4.662 1.88 4.457 9.98 4.457 9.98l-.614 17.157-.931 1.193s-1.285-11.117-1.653-14.536c-1.121-1.454-2.155-1.343-2.91-.867-.815.515-1.205 1.506-1.101 2.468l1.887 17.539s-10.628 6.02-13.56 5.454c-2.932-.566-2.435-13.768-2.435-13.768s3.12-1.775 5.958.794c2.815 2.546 5.547-.714 5.547-.714l-2.156-17.32z"/>
            <path fill="#F6B58E" d="M143 13.872c-1.264.03-2.337 1.361-2.397 2.973-.062 1.612.914 2.892 2.177 2.861 1.264-.031 2.338-1.363 2.4-2.974.06-1.61-.915-2.891-2.18-2.86"/>
            <path fill="#36222C" d="M125.899 129.695S99.623 144.47 86.432 162.33c-3.344 4.527-3.47 10.672-.265 15.3 19.038 27.496 44.207 63.886 44.207 63.886h9.872s-13.04-47.402-28.811-75.357c-1.516-10.331 14.464-36.464 14.464-36.464"/>
            <path fill="#F39F85" d="M72.953 89.149l-7.957 1.276-7.467 8.104s3.638 1.767 9.098-3.894c10.776-.763 7.85-2.704 7.85-2.704l-1.525-2.782z"/>
            <path fill="#F6B58E" d="M161.475 85.483s-16.023 31.906-25.8 33.73c-9.776 1.822-52.518-19.115-52.518-19.115l-1.746-6.866 44.488 6.381 10.555-21.878 25.021 7.748z"/>
            <path fill="#36222C" d="M64.319 252.822s-4.574 4.25-15.003 6.912c-2.296.586-4.771-.196-4.771 3.598H57.2l10.526-1.824v1.824h5.685s1.583-9.315-1.738-10.51h-7.355z"/>
            <path fill="#F6B58E" d="M65.438 246.13l-1.12 6.691a6.42 6.42 0 0 0 6.966.235l.39-.235 1.65-6.69h-7.886zM64.58 96.71a1.674 1.674 0 0 1 1.06-1.69l6.662-2.599a7.17 7.17 0 0 1 5.13-.03l6.584 1.295.703 1.184.466 6.081a126.931 126.931 0 0 1-2.029-.853l-4.224-.539s-9.084 6.151-12.022-.885c-1.224 6.81-3.14 5.974-3.14 5.974l.81-7.937z"/>
            <path fill="#4E3440" d="M182.4 129.695s8.222 34.655-67.596 46.569c-5.272.828-9.486 4.759-10.797 9.943-6.503 25.735-30.44 62.602-30.44 62.602H63.77l15.893-70.312a25.475 25.475 0 0 1 7.569-13.106l38.667-35.696H182.4z"/>
            <path fill="#FFEDE3" d="M60.5 192.374a17.967 17.967 0 0 1 10.126-8.1L195.88 144.81c5.2-1.639 10.742 1.257 12.377 6.467A9.906 9.906 0 0 1 207 159.81a61.843 61.843 0 0 1-44.253 26.715L63.903 197.61a3.492 3.492 0 0 1-3.857-3.086 3.503 3.503 0 0 1 .454-2.151z"/>
            <path fill="#F4935D" d="M31.993 106.796h45.41v-2.115h-45.41z"/>
            <path fill="#EE4540" d="M24.723 106.34h18.021v-2.735H24.723c-4.867 0-9.038-3.644-9.701-8.476L2.695 19.011 0 19.451l12.323 76.084c.842 6.146 6.176 10.805 12.4 10.805"/>
            <path fill="#36222C" d="M2.695 19.012l1.837 1.423 11.6 69.673-1.627 1.823z"/>
        </g>
        <g>
            <path fill="#FEFEFE" d="M819.91 320.203l14.567-.024 6.037 109.678H814.41z"/>
            <path fill="#FFD5BE" d="M830.04 320.367l4.723 113.136 15.655-6.636s-7.053-21.239-6.384-50.743c-2.394-21.338 9.829-10.097-5.145-51.178-5.576-4.6-8.85-4.579-8.85-4.579"/>
            <path fill="#F39F85" d="M832.083 308.681l-1.835 9.54c-.805 4.196-5.62 6.277-9.276 4.008l-6.424-3.988 11.47-25.681 6.065 16.121z"/>
            <path fill="#FFD5BE" d="M817.072 310.78s-14.708 8.185-19.278 15.495c-4.355 6.965-5.864 22.82-6.282 36.933-.577 19.381-10.024 70.296-10.024 70.296h39.422l.984-110.839-4.822-11.886z"/>
            <path fill="#36222C" d="M846.096 280.069c-8.918-2.239-17.494 6.815-17.494 6.815l-6.709 35.78-10.316-15.747s-.588-21.395 9.383-35.564c7.141-8.58 20.847-6.117 27.777 2.228 3.37 4.058 4.074 9.662 3.748 14.818-.438 6.923-2.42 46.656-2.42 46.656l-20.427-14.985s.49-4.042 2.445-11.39c3.364-12.643 20-27.109 14.013-28.611"/>
            <path fill="#FFEDE3" d="M870.769 434.08c-30.867 16.713-67.178 20.58-100.927 10.749l-45.524-13.26a1.817 1.817 0 0 1-1.284-2.09 1.835 1.835 0 0 1 2.15-1.44l13.282 2.538a133.742 133.742 0 0 0 48.992.226l78.767-14.302c3.865-.701 7.748 1.131 9.633 4.546 2.412 4.37.79 9.85-3.623 12.24l-1.466.794z"/>
            <path fill="#F6B58E" d="M825.931 286.335c1.317-.529 3.021.352 3.807 1.967.784 1.615.352 3.356-.966 3.885-1.318.53-3.022-.35-3.806-1.967-.785-1.615-.353-3.355.965-3.885"/>
            <path fill="#F6B58E" d="M835.5 310.359c1.657.605 3.283.945 4.361.56 7.755-5.566 10.557-27.801 10.557-27.801l-6.143-6.462-12.229 2.66-6.028 13.245a12.086 12.086 0 0 0 .501 10.994c2.284 3.063 5.372 5.488 8.981 6.804"/>
            <path fill="#36222C" d="M848.138 279.607c-.635 6.725-19.536 7.277-19.536 7.277l-.984-9.106 11.018-6.007 8.722 5.197s.878 1.516.78 2.639"/>
            <path fill="#36222C" d="M847.727 280.912c-.628 2.502 1.932 6.865 1.932 6.865l1.503-2.69-.04-2.33-1.487-1.818s-1.28-2.53-1.908-.027"/>
            <path fill="#F6B58E" d="M801.815 326.274c-19.076 2.206-10.066 50.945-5.968 70.956 1.01 4.924 6.095 7.93 10.933 6.419 16.597-5.184 40.847-26.714 40.847-26.714l-3.843-4.794-32.213 7.45s12.359-55.873-9.756-53.317"/>
            <path fill="#4E3440" d="M839.979 360.697l-6.23 38.187c-.18 1.104.683 2.108 1.814 2.108h24.661a1.83 1.83 0 0 0 1.814-1.534l6.12-38.186c.175-1.103-.686-2.103-1.814-2.103H841.79c-.9 0-1.669.648-1.812 1.528"/>
            <path fill="#FFB085" d="M893.402 284.983l3.645 7.17-7.655-1.748-26.184-8.25z"/>
            <path fill="#EF9462" d="M897.047 292.151l-13.003-.808 3.187-1.62z"/>
            <path fill="#EE4540" d="M893.402 284.983l-30.194-2.829L895.677 278z"/>
            <path fill="#EE4540" d="M889.393 290.405l-3.903 10.066-22.282-18.317zM878.667 315.53a.61.61 0 0 0-.021-1.1c-1.99-.918-4.339-1.139-6.445-.607a.61.61 0 1 0 .3 1.186c1.812-.458 3.918-.259 5.633.531a.607.607 0 0 0 .533-.01zm-10.629 6.947a.611.611 0 0 0 .316-.693c-.366-1.463-.232-2.813.397-4.01.223-.423.504-.812.84-1.155a.613.613 0 0 0-.879-.853 6.245 6.245 0 0 0-1.044 1.437c-.762 1.453-.936 3.14-.5 4.878a.612.612 0 0 0 .87.396zm31.53-14.958a.61.61 0 0 0 .301-.743 20.727 20.727 0 0 0-1.13-2.67 19.76 19.76 0 0 0-1.833-2.942.607.607 0 0 0-.855-.12.61.61 0 0 0-.12.856 18.748 18.748 0 0 1 1.718 2.76c.41.806.767 1.651 1.063 2.513a.612.612 0 0 0 .856.346zm-13.96 14.866a.613.613 0 0 0 .238-.877c-1.375-2.132-2.642-3.692-3.988-4.907a.612.612 0 0 0-.819.908c1.263 1.141 2.464 2.622 3.778 4.662a.612.612 0 0 0 .791.214zm-11.3 7.363a.61.61 0 0 0 .001-1.089 15.092 15.092 0 0 1-1.328-.768 11.87 11.87 0 0 1-3.13-2.99.612.612 0 1 0-.993.712 13.068 13.068 0 0 0 3.457 3.303c.457.298.941.578 1.437.832a.61.61 0 0 0 .556 0zm26.08-12.479a.61.61 0 0 0 .325-.44c.361-2.062.382-4.198.06-6.348a.611.611 0 1 0-1.21.18c.302 2.02.284 4.024-.055 5.957a.612.612 0 0 0 .88.651zm-16.487 14.258a.611.611 0 0 0-.329-1.155c-2.039.175-4.034.02-5.929-.46a.611.611 0 1 0-.3 1.185 19.13 19.13 0 0 0 6.334.495.605.605 0 0 0 .224-.065zm12.092-5.572a.591.591 0 0 0 .161-.118 16.8 16.8 0 0 0 2.407-3.13 16.76 16.76 0 0 0 1.093-2.196.611.611 0 0 0-1.131-.464c-.289.704-.63 1.39-1.014 2.036a15.614 15.614 0 0 1-2.232 2.901.611.611 0 0 0 .716.971zm-5.528 5.036a.61.61 0 0 0 .271-.815c-.066-.134-.13-.268-.199-.4.93-.433 1.828-.934 2.67-1.496a.612.612 0 1 0-.68-1.017c-.8.535-1.658 1.013-2.547 1.421a96.304 96.304 0 0 0-2.199-3.98.611.611 0 1 0-1.057.614c.79 1.36 1.49 2.625 2.126 3.841-.572.22-1.155.413-1.745.576a.611.611 0 1 0 .327 1.179 20.45 20.45 0 0 0 1.977-.659l.23.461a.611.611 0 0 0 .818.28l.008-.005zm3.552 9.211a.61.61 0 0 0 .313-.702 45.63 45.63 0 0 0-2.039-5.918.611.611 0 1 0-1.128.473 44.391 44.391 0 0 1 1.985 5.76.612.612 0 0 0 .87.387zm1.048 9.785a.61.61 0 0 0 .333-.502l.02-.296a29.499 29.499 0 0 0-.314-5.999.611.611 0 1 0-1.209.183c.298 1.955.4 3.89.3 5.75l-.017.275a.612.612 0 0 0 .887.59zm-2.855 9.38a.597.597 0 0 0 .253-.244 23.038 23.038 0 0 0 2.344-5.878.613.613 0 0 0-1.188-.294 21.854 21.854 0 0 1-2.219 5.568.611.611 0 0 0 .81.847zm-6.747 7.08a.372.372 0 0 0 .034-.02c1.771-1.045 3.388-2.446 4.808-4.163a.612.612 0 0 0-.944-.779c-1.329 1.607-2.838 2.916-4.485 3.888a.613.613 0 0 0-.217.838c.165.28.52.38.804.235zm-3.45 1.494a.613.613 0 0 0-.446-1.134 13.16 13.16 0 0 1-2.875.486.61.61 0 1 0 .067 1.22 14.375 14.375 0 0 0 3.144-.528.664.664 0 0 0 .11-.044z"/>
            <path fill="#F6B58E" d="M867.35 377.604c.153-1.342.024-2.183-.429-4.96-.59-3.613-.433-9.27-4.158-6.45-3.52 4.374-3.928 9.024-3.928 9.024-.717 2.564.87 6.13 2.35 8.064l2.56 5.526s4.42-5.095 3.605-11.204"/>
            <path fill="url(#c)" d="M128.216 108.006c0 1.028.843 1.863 1.881 1.863 1.04 0 1.883-.835 1.883-1.863 0-1.03-.843-1.865-1.883-1.865a1.873 1.873 0 0 0-1.88 1.865" transform="translate(723 266)"/>
        </g>
    </g>
</svg>
