<svg xmlns="http://www.w3.org/2000/svg" width="23" height="24" viewBox="0 0 23 24">
    <path fill="#EE4540" fill-rule="nonzero" d="M6.429 18.366l7.928-7.917a.67.67 0 0 1 .929 0c.25.25.25.677 0 .927l-7.929 7.917a.592.592 0 0 1-.464.178c-.179 0-.322-.071-.464-.178-.25-.25-.25-.642 0-.927zm9.035-2.497a2.35 2.35 0 0 1 .679 1.64 2.35 2.35 0 0 1-.679 1.641 2.27 2.27 0 0 1-1.643.678 2.27 2.27 0 0 1-1.642-.678 2.35 2.35 0 0 1-.679-1.64c0-.607.25-1.213.679-1.64a2.357 2.357 0 0 1 1.642-.678c.608 0 1.215.25 1.643.677zm-.607 1.64a.995.995 0 0 0-.286-.713 1.063 1.063 0 0 0-.714-.285.998.998 0 0 0-.714.285 1.06 1.06 0 0 0-.286.714c0 .25.107.535.286.713a1.014 1.014 0 0 0 1.428 0 1.06 1.06 0 0 0 .286-.713zM6.25 13.909a2.35 2.35 0 0 1-.679-1.64c0-.607.25-1.213.679-1.641.893-.891 2.357-.891 3.286 0a2.35 2.35 0 0 1 .678 1.64 2.35 2.35 0 0 1-.678 1.64 2.357 2.357 0 0 1-1.643.678c-.607 0-1.214-.25-1.643-.677zm.607-1.64c0 .285.107.534.286.713.178.178.464.285.714.285.25 0 .536-.107.714-.285a1.06 1.06 0 0 0 .286-.714.995.995 0 0 0-.286-.713.968.968 0 0 0-.714-.285c-.25 0-.536.107-.714.285-.179.214-.286.464-.286.713zm16-6.027c.072.107.143.25.143.392v16.725a.64.64 0 0 1-.643.642H.643A.64.64 0 0 1 0 23.358V6.633c0-.143.036-.285.143-.392L4.857.25a.682.682 0 0 1 .5-.25h12.286c.214 0 .393.107.5.25l4.714 5.99zm-10.714-.25h8.893L17.357 1.32H12.18v4.672h-.036zm-10.179 0h8.893V1.32H5.68L1.964 5.991zm19.75 1.32H1.286v15.405h20.428V7.311z"/>
</svg>
