<svg xmlns="http://www.w3.org/2000/svg" width="47" height="54" viewBox="0 0 47 54">
    <g fill="none" fill-rule="evenodd" transform="translate(-17 -15)">
        <circle cx="40" cy="40" r="40"/>
        <path fill="#FFEDE3" d="M52.93 61.005c-9.618 9.09-25.445 8.56-30.849 4.043-5.404-4.515-8.206-16.82.722-23.416C31.73 35.034 53.47 27.589 60.07 35.24c6.6 7.651 2.478 16.674-7.14 25.764z"/>
        <g fill-rule="nonzero">
            <path fill="#EE4540" d="M59.607 48.116c-.967-2.32-2.793-3.486-4.834-4.778a71.41 71.41 0 0 1-6.363-4.558c-4.176-3.344-8.123-7.038-11.54-11.175-1.449-1.754-3.958.774-2.492 2.512.162.191.33.378.494.568-.39 9.02.461 18.08 1.788 26.995.205 1.385 2.414 1.62 2.993.396a94.39 94.39 0 0 1 2.667-5.225c.447-.811.908-1.616 1.383-2.411.196-.327.337-.611.474-.845a100.62 100.62 0 0 0 4.228 7.848 122.07 122.07 0 0 0 2.582 4.11c.741 1.131 1.464 2.537 2.635 3.254.242.149.642-.039.608-.352-.144-1.306-.93-2.412-1.536-3.555a124.854 124.854 0 0 1-2.196-4.339 163.489 163.489 0 0 1-3.402-7.556c3.654.325 7.303.798 10.948 1.182.965.102 1.952-1.14 1.563-2.07zm-12.673-2.414c-1.066-.114-2.285-.44-3.338-.097-1.654.537-2.583 2.843-3.38 4.213a74.591 74.591 0 0 0-1.137 2.041c-.875-6.276-1.504-12.577-2.135-18.883 2.558 2.69 5.33 5.175 8.217 7.493 1.889 1.518 3.824 2.976 5.831 4.327.777.524 1.856 1.05 2.866 1.663-1.11-.12-2.22-.243-3.33-.364-1.198-.13-2.395-.26-3.594-.393z"/>
            <path fill="#4E3440" d="M40.021 22.37c-.173-1.346-.537-2.655-.85-3.974-.26-1.097-.391-2.42-1.232-3.22l-.006.01c-.264-.256-.736-.274-.956.113-.576 1.019-.328 2.299-.262 3.431.081 1.35.1 2.714.321 4.048.28 1.683 3.206 1.31 2.985-.407zM25.72 20.133c1.508 1.503 2.701 3.336 4.222 4.834 1.435 1.413 3.427-1.135 1.684-2.202-1.738-1.064-3.64-1.977-5.107-3.44-.52-.516-1.32.29-.8.808zM49.227 20.091c-1.038-.095-2.124.796-3.01 1.275-1.102.6-2.305 1.123-3.337 1.826-1.675 1.138-.052 3.909 1.582 2.73 1.062-.766 2.008-1.73 2.989-2.6.797-.706 2.037-1.434 2.322-2.508.101-.385-.184-.689-.546-.723zM47.182 30.185c-2.02-.625-2.664 2.794-.4 2.978 2.008.164 5.082.611 6.883-.517.36-.225.418-.83 0-1.041-.936-.473-2.02-.455-3.043-.62a25.348 25.348 0 0 1-3.44-.8zM27.496 39.79c-.735.78-1.703 1.646-2.008 2.707-.102.356.26.782.637.641.984-.37 1.734-1.253 2.525-1.928a40.995 40.995 0 0 1 2.933-2.267c1.333-.941-.14-2.894-1.371-1.79-.94.842-1.85 1.716-2.716 2.637zM21.155 32.264c1.205.384 2.526.298 3.78.381 1.422.092 2.842.3 4.263.335 1.628.037 1.616-2.47 0-2.543-1.515-.07-3.058.116-4.566.262-1.23.12-2.456.165-3.594.67-.406.182-.244.778.117.895z"/>
        </g>
    </g>
</svg>
