<svg xmlns="http://www.w3.org/2000/svg" xmlns:xlink="http://www.w3.org/1999/xlink" width="334" height="283" viewBox="0 0 334 283">
    <defs>
        <circle id="b" cx="28.5" cy="28.5" r="28.5"/>
        <filter id="a" width="164.9%" height="164.9%" x="-32.5%" y="-25.4%" filterUnits="objectBoundingBox">
            <feOffset dy="4" in="SourceAlpha" result="shadowOffsetOuter1"/>
            <feGaussianBlur in="shadowOffsetOuter1" result="shadowBlurOuter1" stdDeviation="5.5"/>
            <feColorMatrix in="shadowBlurOuter1" values="0 0 0 0 0.485883894 0 0 0 0 0.521743464 0 0 0 0 0.556862745 0 0 0 0.2 0"/>
        </filter>
        <circle id="d" cx="24" cy="24" r="24"/>
        <filter id="c" width="160.4%" height="160.4%" x="-30.2%" y="-26%" filterUnits="objectBoundingBox">
            <feOffset dy="2" in="SourceAlpha" result="shadowOffsetOuter1"/>
            <feGaussianBlur in="shadowOffsetOuter1" result="shadowBlurOuter1" stdDeviation="4.5"/>
            <feColorMatrix in="shadowBlurOuter1" values="0 0 0 0 0.485883894 0 0 0 0 0.521743464 0 0 0 0 0.556862745 0 0 0 0.2 0"/>
        </filter>
        <circle id="f" cx="18.5" cy="18.5" r="18.5"/>
        <filter id="e" width="164.9%" height="164.9%" x="-32.4%" y="-24.3%" filterUnits="objectBoundingBox">
            <feOffset dy="3" in="SourceAlpha" result="shadowOffsetOuter1"/>
            <feGaussianBlur in="shadowOffsetOuter1" result="shadowBlurOuter1" stdDeviation="3.5"/>
            <feColorMatrix in="shadowBlurOuter1" values="0 0 0 0 0.485883894 0 0 0 0 0.521743464 0 0 0 0 0.556862745 0 0 0 0.2 0"/>
        </filter>
        <linearGradient id="g" x1="50%" x2="50%" y1="0%" y2="100%">
            <stop offset="0%" stop-color="#A3CC39"/>
            <stop offset="69.8%" stop-color="#85BD40"/>
            <stop offset="100%" stop-color="#65AD45"/>
        </linearGradient>
        <circle id="i" cx="25" cy="25" r="25"/>
        <filter id="h" width="152%" height="152%" x="-26%" y="-22%" filterUnits="objectBoundingBox">
            <feOffset dy="2" in="SourceAlpha" result="shadowOffsetOuter1"/>
            <feGaussianBlur in="shadowOffsetOuter1" result="shadowBlurOuter1" stdDeviation="4"/>
            <feColorMatrix in="shadowBlurOuter1" values="0 0 0 0 0.485883894 0 0 0 0 0.521743464 0 0 0 0 0.556862745 0 0 0 0.2 0"/>
        </filter>
        <circle id="k" cx="31" cy="31" r="31"/>
        <filter id="j" width="166.1%" height="166.1%" x="-33.1%" y="-25%" filterUnits="objectBoundingBox">
            <feOffset dy="5" in="SourceAlpha" result="shadowOffsetOuter1"/>
            <feGaussianBlur in="shadowOffsetOuter1" result="shadowBlurOuter1" stdDeviation="6"/>
            <feColorMatrix in="shadowBlurOuter1" values="0 0 0 0 0.485883894 0 0 0 0 0.521743464 0 0 0 0 0.556862745 0 0 0 0.2 0"/>
        </filter>
        <circle id="m" cx="20" cy="20" r="20"/>
        <filter id="l" width="170%" height="170%" x="-35%" y="-25%" filterUnits="objectBoundingBox">
            <feOffset dy="4" in="SourceAlpha" result="shadowOffsetOuter1"/>
            <feGaussianBlur in="shadowOffsetOuter1" result="shadowBlurOuter1" stdDeviation="4"/>
            <feColorMatrix in="shadowBlurOuter1" values="0 0 0 0 0.485883894 0 0 0 0 0.521743464 0 0 0 0 0.556862745 0 0 0 0.2 0"/>
        </filter>
        <circle id="o" cx="16.5" cy="16.5" r="16.5"/>
        <filter id="n" width="172.7%" height="172.7%" x="-36.4%" y="-27.3%" filterUnits="objectBoundingBox">
            <feOffset dy="3" in="SourceAlpha" result="shadowOffsetOuter1"/>
            <feGaussianBlur in="shadowOffsetOuter1" result="shadowBlurOuter1" stdDeviation="3.5"/>
            <feColorMatrix in="shadowBlurOuter1" values="0 0 0 0 0.485883894 0 0 0 0 0.521743464 0 0 0 0 0.556862745 0 0 0 0.2 0"/>
        </filter>
        <circle id="q" cx="23" cy="23" r="23"/>
        <filter id="p" width="165.2%" height="165.2%" x="-32.6%" y="-26.1%" filterUnits="objectBoundingBox">
            <feOffset dy="3" in="SourceAlpha" result="shadowOffsetOuter1"/>
            <feGaussianBlur in="shadowOffsetOuter1" result="shadowBlurOuter1" stdDeviation="4.5"/>
            <feColorMatrix in="shadowBlurOuter1" values="0 0 0 0 0.485883894 0 0 0 0 0.521743464 0 0 0 0 0.556862745 0 0 0 0.2 0"/>
        </filter>
        <circle id="s" cx="18.5" cy="18.5" r="18.5"/>
        <filter id="r" width="164.9%" height="164.9%" x="-32.4%" y="-24.3%" filterUnits="objectBoundingBox">
            <feOffset dy="3" in="SourceAlpha" result="shadowOffsetOuter1"/>
            <feGaussianBlur in="shadowOffsetOuter1" result="shadowBlurOuter1" stdDeviation="3.5"/>
            <feColorMatrix in="shadowBlurOuter1" values="0 0 0 0 0.485883894 0 0 0 0 0.521743464 0 0 0 0 0.556862745 0 0 0 0.2 0"/>
        </filter>
    </defs>
    <g fill="none" fill-rule="evenodd">
        <path stroke="#F4D2D2" stroke-width=".5" d="M1 30.575a9.22 9.22 0 0 0 9.208 9.22l134.034.175C156.815 39.987 167 50.185 167 62.758v5.46c0 12.555 10.154 22.744 22.71 22.788l62.134.216h.162l30.457-.111c16.804-.061 30.476 13.512 30.537 30.316V134.5c0 24.024-19.476 43.5-43.5 43.5h-29c-15.188 0-27.5-12.312-27.5-27.5S200.688 123 185.5 123h-91C71.58 123 53 141.58 53 164.5S71.58 206 94.5 206H137c20.987 0 38 17.013 38 38s17.013 38 38 38h17c11.826 0 21.412-9.587 21.412-21.412 0-5.998-2.515-11.72-6.934-15.776"/>
        <g transform="translate(25 7)">
            <use fill="#000" filter="url(#a)" xlink:href="#b"/>
            <use fill="#FFF" xlink:href="#b"/>
        </g>
        <path fill="#E50914" d="M59.466 30.81h-1.473v8.21c1.34.045 2.673.112 4 .2v-1.446c-.84-.056-1.682-.103-2.527-.142V30.81zm11.711.001H69.56l-1.067 2.463-.96-2.463H65.94l1.713 4.402-1.87 4.318c.517.05 1.033.104 1.548.16l1.088-2.51 1.077 2.768c.562.072 1.121.147 1.68.226l.002-.001-1.92-4.931 1.92-4.432zm-18.242 8.136h1.473v-3.34h1.998v-1.445h-1.998V32.27h2.64v-1.459h-4.113v8.136zm-5.503-6.677h1.542v6.763c.49-.018.982-.033 1.474-.046V32.27h1.542v-1.459h-4.558v1.46zm-5.038 7.184c1.358-.123 2.723-.225 4.093-.303v-1.447c-.876.05-1.749.11-2.62.179v-2.19c.572-.006 1.324-.023 1.99-.015v-1.446c-.532-.001-1.388.007-1.99.015V32.27h2.62v-1.459h-4.093v8.643zm-2.89-3.344l-1.92-5.299h-1.4v9.364c.49-.07.981-.136 1.473-.2v-5.092l1.707 4.883c.536-.062 1.074-.12 1.613-.176v-8.779h-1.474v5.3zm23.705 3.198c.492.037.983.077 1.473.12v-8.617H63.21v8.497z"/>
        <g transform="translate(239 68)">
            <use fill="#000" filter="url(#c)" xlink:href="#d"/>
            <use fill="#FFF" xlink:href="#d"/>
        </g>
        <g fill-rule="nonzero" stroke-width="1.114">
            <path fill="#5DA8DC" stroke="#5DA8DC" d="M266.167 84.408v-.003h.883l.323.064c.215.042.41.096.586.164.175.067.345.146.51.235.163.09.312.182.446.275.132.092.251.19.356.293.105.105.267.132.488.081.22-.05.458-.12.713-.21.255-.09.507-.191.756-.304.249-.112.4-.183.455-.214l.085-.05.003-.005.017-.009.017-.008.017-.009.017-.008.004-.005.005-.003.005-.004.003-.005.017-.005.017-.003-.003.025-.005.025-.009.026-.008.025-.009.017-.008.017-.009.025a.582.582 0 0 0-.017.067c-.005.028-.06.14-.161.337a4.21 4.21 0 0 1-.382.599 2.95 2.95 0 0 1-.411.458 3.898 3.898 0 0 0-.243.219.728.728 0 0 1-.144.118l-.085.056-.017.008-.017.008-.004.005-.005.004-.005.003-.003.005-.017.009-.017.008-.004.005-.005.004-.005.003-.003.005-.004.005-.005.003-.005.004-.003.005h.085l.475-.101c.317-.068.62-.15.909-.245l.458-.151.051-.017.026-.009.017-.008.017-.008.017-.009.017-.008.034-.005.034-.004v.034l-.009.003-.008.005-.004.005-.005.004-.005.003-.003.005-.004.005-.005.004-.005.003-.003.005-.004.005-.005.004-.008.016-.009.017-.005.004-.215.286c-.142.189-.218.284-.23.287-.011.003-.027.02-.047.05-.02.032-.14.157-.36.376-.221.219-.437.414-.65.585a.796.796 0 0 0-.322.633c-.003.25-.016.532-.039.846-.022.315-.065.655-.127 1.02s-.159.778-.289 1.239a11.203 11.203 0 0 1-1.061 2.527c-.204.349-.391.644-.56.885-.17.242-.343.47-.519.683-.175.213-.397.453-.666.72l-.441.439c-.026.025-.137.117-.333.276-.195.161-.404.322-.628.482-.223.16-.428.293-.615.4-.187.107-.412.228-.676.365a8.072 8.072 0 0 1-.853.385c-.305.118-.628.227-.968.328a8.9 8.9 0 0 1-.985.236c-.317.056-.676.104-1.078.143l-.603.06v.008h-1.104v-.009l-.144-.008a7.801 7.801 0 0 1-.238-.017 28.563 28.563 0 0 1-.705-.092 10.244 10.244 0 0 1-.96-.169 12.805 12.805 0 0 1-1.035-.32c-.459-.157-.851-.316-1.177-.477-.325-.16-.53-.26-.612-.303a4.35 4.35 0 0 1-.275-.155l-.153-.093-.003-.005-.005-.004-.005-.003-.004-.005-.017-.008-.017-.009-.003-.005-.005-.003-.005-.004-.004-.005-.003-.005-.005-.003h-.009v-.034l.017.003.017.006.077.008c.05.006.19.014.416.025a7.722 7.722 0 0 0 2.445-.278c.363-.095.696-.209.999-.34.302-.133.517-.232.645-.297.127-.064.32-.183.581-.357l.39-.261.004-.005.005-.004.005-.003.004-.005.003-.005.005-.004.005-.003.004-.005.017-.005.017-.003.003-.017.005-.017.005-.003.004-.006-.136-.008-.263-.017a2.57 2.57 0 0 1-.4-.076 3.85 3.85 0 0 1-.585-.202 4.53 4.53 0 0 1-.612-.32 3.008 3.008 0 0 1-.43-.308c-.087-.081-.2-.196-.34-.344a3.413 3.413 0 0 1-.36-.46 4.123 4.123 0 0 1-.291-.545l-.141-.306-.009-.026-.008-.025-.005-.017-.004-.017.026.004.025.005.187.025c.125.017.32.023.586.017.266-.006.45-.017.552-.034l.187-.033.034-.009.042-.008.043-.009.003-.005.005-.003.005-.004.004-.005-.034-.008-.034-.008-.034-.009-.034-.008-.034-.009a3.14 3.14 0 0 1-.12-.033 6.543 6.543 0 0 1-.458-.186 3.516 3.516 0 0 1-.594-.312 4.1 4.1 0 0 1-.421-.332 4.784 4.784 0 0 1-.437-.468 3.368 3.368 0 0 1-.424-.666 4.03 4.03 0 0 1-.28-.724 3.885 3.885 0 0 1-.123-.7l-.03-.354.017.004.017.005.017.008.016.009.017.008.017.008.264.118c.175.08.393.147.654.203.26.056.416.087.467.092l.076.009h.153l-.004-.005-.005-.004-.005-.003-.003-.005-.003-.005-.006-.003-.005-.004-.003-.005-.017-.008-.017-.009-.003-.005-.006-.003-.005-.004-.003-.005-.017-.008-.017-.008-.003-.006a2.22 2.22 0 0 1-.438-.383 9.936 9.936 0 0 1-.306-.353 2.732 2.732 0 0 1-.272-.396c-.08-.14-.163-.32-.251-.536a3.782 3.782 0 0 1-.275-1.3c-.006-.214 0-.397.016-.549.017-.151.051-.323.102-.514.051-.19.125-.393.221-.606l.145-.32.008-.026.009-.025.005-.003.003-.005.003-.005.006-.004.005.004.003.005.003.005.005.003.006.003.003.005.003.005.005.004.009.017.008.017.006.003.003.005.23.253c.152.168.333.356.543.564.21.208.325.316.348.324.022.009.05.035.085.077.034.042.147.141.34.299.192.157.444.34.755.547.312.208.657.413 1.036.615.38.203.787.385 1.223.548.436.163.742.27.917.32.176.05.476.116.9.194.425.079.745.13.96.152.215.022.362.035.441.039l.12.003-.004-.025-.005-.026-.034-.21a3.93 3.93 0 0 1-.034-.59c0-.253.02-.486.06-.7.039-.213.098-.43.178-.648.079-.22.156-.395.232-.528.077-.131.178-.281.302-.45.125-.168.286-.342.485-.522.198-.18.424-.34.679-.48.255-.14.49-.248.705-.32.215-.074.396-.121.543-.144.147-.022.22-.035.22-.039z"/>
            <path fill="#FFF" stroke="#FFF" d="M253.582 91.13v-6.725h12.585v.003c0 .004-.074.017-.22.04-.148.022-.33.07-.544.142-.215.073-.45.18-.705.32-.255.141-.481.301-.68.48-.198.18-.359.355-.484.523a5.186 5.186 0 0 0-.302.45 3.452 3.452 0 0 0-.232.528c-.08.219-.14.435-.179.649-.04.213-.06.446-.06.699 0 .253.012.45.035.59l.034.21.005.026.003.025-.119-.003a8.663 8.663 0 0 1-.441-.04 13.424 13.424 0 0 1-.96-.15 10.858 10.858 0 0 1-.9-.195c-.175-.05-.481-.157-.917-.32a10.147 10.147 0 0 1-1.223-.548c-.38-.202-.724-.407-1.036-.615a9.98 9.98 0 0 1-.756-.547 3.458 3.458 0 0 1-.34-.299.248.248 0 0 0-.084-.077c-.023-.008-.139-.116-.348-.324-.21-.208-.39-.396-.544-.564l-.23-.253-.002-.005-.006-.003-.008-.017-.009-.017-.005-.004-.003-.005-.003-.005-.006-.003-.005-.003-.003-.005-.003-.005-.005-.004-.006.004-.003.005-.003.005-.005.003-.009.025-.008.026-.145.32c-.096.213-.17.415-.22.606-.052.191-.086.363-.103.514-.016.152-.022.335-.016.548a3.685 3.685 0 0 0 .275 1.301c.088.217.172.396.251.536.08.14.17.272.272.396.102.124.204.242.305.354a2.22 2.22 0 0 0 .439.382l.003.006.017.008.017.008.003.005.005.004.006.003.003.005.017.009.017.008.003.005.005.004.006.003.003.005.003.005.005.003.005.004.004.005h-.153l-.076-.009a7.59 7.59 0 0 1-.467-.092 3.34 3.34 0 0 1-.654-.203l-.264-.118-.017-.008-.017-.008-.016-.009-.017-.008-.017-.005-.017-.004.03.354c.02.236.06.47.122.7.063.23.156.471.28.724.125.253.267.475.425.666.159.19.304.347.437.468.133.12.273.231.42.332.148.102.346.205.595.312.25.107.402.169.459.186.056.016.096.028.119.033l.034.009.034.008.034.009.034.008.034.008-.004.005-.005.004-.005.003-.003.005-.043.009-.042.008-.034.009a3.592 3.592 0 0 1-.187.033 4.571 4.571 0 0 1-.552.034c-.266.006-.461 0-.586-.017l-.187-.025-.025-.005-.026-.004.004.017.005.017.008.025.009.026.14.306c.093.206.19.387.293.545.102.157.222.31.36.46.14.148.252.263.34.344.088.082.231.184.43.308.197.123.401.23.61.32.21.09.405.157.586.202a2.57 2.57 0 0 0 .663.093l.136.008-.004.006-.005.003-.005.017-.003.017-.017.003-.017.005-.004.005-.005.003-.005.004-.003.005-.004.005-.005.003-.005.004-.003.005-.39.26c-.261.175-.455.294-.582.358-.128.065-.343.164-.645.297a7.001 7.001 0 0 1-.999.34 8.86 8.86 0 0 1-.942.202 7.652 7.652 0 0 1-1.503.076c-.227-.011-.365-.02-.416-.025l-.077-.008-.017-.006-.017-.003V91.13zm18.814-4.875l.004-.005.008-.005.009-.003v13.347H260.07v-.009l.603-.059c.402-.039.761-.087 1.078-.143a8.9 8.9 0 0 0 .985-.236c.34-.1.663-.21.968-.328.306-.118.59-.246.853-.385.264-.137.489-.258.676-.365.187-.107.392-.24.615-.4.224-.16.433-.32.628-.482.196-.16.307-.251.333-.276l.441-.438c.269-.268.49-.508.666-.721A11.387 11.387 0 0 0 269.581 93c.186-.438.345-.888.475-1.348.13-.461.227-.874.289-1.24.062-.364.105-.704.127-1.019.023-.314.036-.596.04-.846a.796.796 0 0 1 .322-.633c.212-.171.428-.366.649-.585.22-.22.34-.344.36-.376.02-.03.036-.047.047-.05.012-.003.088-.098.23-.287l.215-.286.005-.004.009-.017.008-.016.005-.004.004-.005.003-.005.005-.003.005-.004.004-.005.003-.005.005-.003.005-.004zm-5.023-1.786l-.323-.064h5.367v1.803l-.034.004-.034.005-.017.008-.017.009-.017.008-.017.008-.026.009-.05.017-.46.151a8.562 8.562 0 0 1-.908.245l-.475.1h-.085l.003-.004.005-.004.005-.003.004-.005.003-.005.005-.003.005-.004.004-.005.017-.008.017-.009.003-.005.005-.003.005-.004.004-.005.017-.008.017-.008.085-.056a.728.728 0 0 0 .144-.118c.04-.042.12-.115.243-.22a2.95 2.95 0 0 0 .41-.457 4.21 4.21 0 0 0 .383-.599c.102-.196.156-.309.161-.337a.582.582 0 0 1 .017-.067l.009-.025.008-.017.009-.017.008-.025.009-.026.005-.025.003-.025-.017.003-.017.005-.003.005-.005.004-.005.003-.004.005-.017.008-.017.009-.017.008-.017.009-.003.005-.085.05c-.054.03-.206.102-.455.214-.25.113-.501.214-.756.304s-.492.16-.713.21c-.22.05-.383.024-.488-.08a2.742 2.742 0 0 0-.356-.294 4.855 4.855 0 0 0-.447-.275 4.183 4.183 0 0 0-.51-.235 3.472 3.472 0 0 0-.585-.164zm-13.79 14.269v-.851h.008l.005.003.003.005.004.005.005.004.005.003.003.005.017.009.017.008.004.005.005.003.005.004.003.005.153.093c.102.061.194.113.275.155l.612.303c.326.16.718.32 1.177.477.458.157.803.264 1.035.32.233.056.552.112.96.169.408.056.643.087.705.092.062.006.141.011.238.017l.144.008v.009h-5.384v-.851z"/>
        </g>
        <g transform="translate(290 124)">
            <use fill="#000" filter="url(#e)" xlink:href="#f"/>
            <use fill="#FFF" xlink:href="#f"/>
        </g>
        <path fill="url(#g)" fill-rule="nonzero" d="M17.09 1.752h-1.361v2.263c0 .102-.04.189-.103.26a.387.387 0 0 1-.253.102h-.791a.394.394 0 0 1-.261-.102.383.383 0 0 1-.103-.26V1.752h-1.36v2.381c.007.315.063.591.197.812.135.22.309.386.538.497.238.11.506.173.815.173h1.321V5.6c.285 0 .53-.064.736-.182.197-.126.356-.3.459-.52.11-.221.166-.482.166-.765V1.752zm-13.615.142a1.826 1.826 0 0 0-.784-.142h-.878l-.34.04c-.079.023-.119.039-.119.039V0H.002v5.614h1.352v-2.27a.372.372 0 0 1 .111-.253.371.371 0 0 1 .261-.102h.791c.095 0 .182.04.254.102a.372.372 0 0 1 .11.253v2.27h1.353V3.171c0-.339-.071-.615-.206-.828a1.232 1.232 0 0 0-.553-.45zm4.604 2.12a.427.427 0 0 1-.103.261.426.426 0 0 1-.261.102h-.791a.39.39 0 0 1-.253-.102.39.39 0 0 1-.111-.26V1.752H5.207v2.381c0 .315.063.591.19.812.127.22.308.386.538.497.237.11.498.173.815.173h1.329V5.6c.285 0 .53-.064.728-.182.197-.126.356-.3.466-.52.103-.221.159-.482.166-.765V1.752H8.08v2.263zm2.389 1.601h1.353V.001h-1.353v5.614z" transform="translate(300.07 139.69)"/>
        <g transform="translate(37 159)">
            <use fill="#000" filter="url(#h)" xlink:href="#i"/>
            <use fill="#FFF" xlink:href="#i"/>
        </g>
        <g fill-rule="nonzero">
            <path fill="#FFF" d="M49.376 171.376H75.12v25.743H49.376z"/>
            <path fill="#000" d="M74.74 187.961v-7.427h-7.744v7.427h7.744zm-1.765-5.294c-.596-.343-1.193-.52-1.752-.52-.596 0-1.091.19-1.472.57-.394.369-.597.826-.597 1.397 0 .546.203 1.016.584 1.397.406.355.889.533 1.473.533.622 0 1.231-.19 1.828-.571v.8a3.835 3.835 0 0 1-1.866.457c-.584 0-1.067-.115-1.473-.343a2.85 2.85 0 0 1-.952-.952c-.229-.432-.356-.864-.356-1.32 0-.763.267-1.385.813-1.892.533-.508 1.193-.775 1.968-.775.558 0 1.155.14 1.802.432v.787zm-6.842-2.133h-7.745v7.427h7.745v-7.427zm-5.37 1.104h1.345c.432 0 .762.051 1.003.166.241.127.419.279.533.47.127.203.19.431.19.698 0 .507-.253.863-.787 1.079.381.063.686.216.902.47.216.228.317.52.33.85a1.445 1.445 0 0 1-.203.698c-.14.204-.33.369-.597.508-.267.127-.584.19-.978.19h-1.739v-5.129z"/>
            <path fill="#000" d="M61.981 183.835c.393 0 .673-.076.838-.216a.805.805 0 0 0 .254-.597c0-.482-.318-.736-.94-.736H61.5v1.549h.482zm.203.66H61.5v1.612h.736c.343 0 .622-.025.8-.076a.957.957 0 0 0 .355-.304.811.811 0 0 0 .127-.42.825.825 0 0 0-.14-.418.666.666 0 0 0-.38-.305c-.165-.063-.445-.102-.813-.089zm-4.685-3.961h-7.744v7.427h7.744v-7.427zm-5.383 6.234v-5.13h1.346c.432 0 .75.051.99.166.242.114.432.279.546.482.127.19.19.419.203.685-.012.508-.266.864-.8 1.092.394.064.686.216.902.457.216.229.33.52.33.85 0 .267-.063.509-.203.7-.14.215-.33.38-.584.507-.267.127-.597.19-.99.19h-1.74z"/>
            <path fill="#000" d="M53.536 182.286h-.683v1.549h.533c.41 0 .71-.076.888-.216a.754.754 0 0 0 .273-.584c0-.495-.342-.749-1.011-.749zm.054 2.21h-.737v1.611h.778c.41 0 .71-.025.889-.076a.868.868 0 0 0 .368-.28c.082-.139.123-.279.137-.443a.745.745 0 0 0-.15-.42.726.726 0 0 0-.41-.292c-.191-.075-.492-.1-.875-.1z"/>
        </g>
        <g transform="translate(129 21)">
            <use fill="#000" filter="url(#j)" xlink:href="#k"/>
            <use fill="#FFF" xlink:href="#k"/>
        </g>
        <g fill-rule="nonzero">
            <path fill="#010101" d="M147.532 56.868c-.305-.104-.513-.244-.767-.517-.534-.573-.564-.744-.564-3.289 0-2.452.038-2.683.536-3.259.697-.807 2.31-.783 3 .044.457.55.494.795.494 3.253 0 1.945-.017 2.27-.137 2.61-.184.52-.725 1.025-1.274 1.186-.518.153-.773.147-1.288-.028zm.947-1.18c.31-.118.345-.377.345-2.581 0-1.407-.028-2.17-.086-2.295-.192-.419-.852-.419-1.044 0-.058.124-.086.888-.086 2.295 0 2.46.032 2.602.583 2.622.09.003.22-.015.288-.04zm3.378 1.139c-.11-.06-.264-.236-.342-.393-.133-.264-.145-.535-.166-3.73l-.023-3.445h1.452v3.154c0 2.699.016 3.166.113 3.246.169.138.442.037.752-.278l.276-.282v-5.84h1.444v7.606h-1.444v-.766l-.362.317c-.198.175-.47.364-.605.42-.314.133-.84.128-1.095-.01zm-8.812-2.052l-.001-2.09-.94-2.974-.94-2.974.764-.022c.447-.012.783.01.81.053.025.041.268.906.538 1.923.271 1.016.51 1.848.53 1.848.022 0 .221-.686.444-1.524.222-.839.456-1.703.518-1.92l.113-.396h.802c.652 0 .793.02.76.105-.022.057-.454 1.411-.958 3.009l-.918 2.904v4.147h-1.521l-.001-2.09z"/>
            <path fill="#D02726" d="M162.824 59.798c-3.714-.123-4.72-.385-5.404-1.408-.276-.413-.586-1.337-.685-2.042-.347-2.475-.262-7.636.155-9.414.378-1.61 1.265-2.4 2.884-2.564 1.59-.162 5.737-.25 9.77-.208 4.353.046 6.403.138 7.145.322 1.45.36 2.154 1.418 2.4 3.608.046.414.103 1.86.126 3.213.094 5.462-.32 7.2-1.902 7.967-.597.29-.988.356-2.675.456-1.833.108-9.313.152-11.814.07zm1.828-2.977c.128-.066.383-.257.566-.424l.334-.305v.773h1.444v-7.53h-1.444v5.742l-.332.33c-.357.352-.5.396-.69.21-.104-.104-.119-.5-.119-3.2v-3.082h-1.444v3.261c0 3.599.03 3.883.438 4.186.259.19.91.211 1.247.039zm6.953-.025c.133-.08.317-.303.418-.508.179-.358.182-.408.207-2.848.028-2.676-.016-3.159-.333-3.701-.177-.301-.597-.555-.92-.555-.312 0-.759.208-1.099.51l-.372.332v-3.251h-1.369v10.09h1.369v-.696l.312.28c.171.153.42.325.551.382.353.152.955.135 1.236-.035zm-1.814-1.228l-.285-.164v-4.618l.337-.177c.274-.144.378-.163.551-.103.375.13.415.418.39 2.77l-.024 2.096-.213.181c-.261.223-.39.225-.756.015zm6.405 1.215c.735-.33 1.066-.888 1.124-1.894l.038-.66h-1.466v.447c0 .547-.085.787-.34.952-.289.187-.647.068-.819-.271-.104-.205-.133-.455-.133-1.147v-.885h2.737V52.22c0-1.392-.11-1.835-.584-2.357-.418-.461-.867-.645-1.545-.632-.562.01-.938.149-1.332.492-.645.56-.743 1.06-.704 3.603.025 1.651.052 2.054.16 2.338.186.485.52.854.978 1.08.517.256 1.365.273 1.886.039zm-1.596-5.154c0-.937.242-1.256.853-1.124.306.067.44.407.44 1.124v.567H174.6v-.567zm-13.078.906v-4.33h1.673v-1.43h-4.79v1.43H160v8.66h1.521v-4.33z"/>
        </g>
        <g>
            <g transform="translate(142 198)">
                <use fill="#000" filter="url(#l)" xlink:href="#m"/>
                <use fill="#FFF" xlink:href="#m"/>
            </g>
            <g fill-rule="nonzero">
                <path fill="#D1EFFA" d="M161.991 222.38v-.048c.014-.059.038-.095.058-.083a1.19 1.19 0 0 1 .29 0c.02 0 .045.024.058.083v.048h-.406z"/>
                <path fill="#00A8E1" d="M162.397 222.267a8.116 8.116 0 0 0-.406 0c-.186-.01-.372-.017-.558-.03a9.688 9.688 0 0 1-1.464-.224c-1.66-.386-3.118-1.16-4.39-2.287-.118-.104-.23-.213-.345-.32a.25.25 0 0 1-.064-.092.125.125 0 0 1 .024-.136.12.12 0 0 1 .135-.03c.03.014.06.027.088.044 1.214.75 2.54 1.299 3.93 1.624a12.976 12.976 0 0 0 3.46.345 13.287 13.287 0 0 0 3.608-.663c.43-.142.849-.305 1.258-.494a.282.282 0 0 1 .203-.027.21.21 0 0 1 .135.297.37.37 0 0 1-.112.129 7.528 7.528 0 0 1-1.25.795 9.91 9.91 0 0 1-2.649.896c-.53.095-1.065.152-1.603.173zM157.389 215.41c.084-.05.172-.104.263-.152.237-.121.5-.182.768-.169.193.01.369.064.504.207.128.131.176.294.19.47.003.037.003.074.003.115v1.752c0 .152-.02.172-.173.172h-.412c-.027 0-.054 0-.081-.003a.093.093 0 0 1-.082-.078c-.006-.037-.006-.074-.006-.112v-1.566a.572.572 0 0 0-.02-.186.253.253 0 0 0-.23-.186c-.2-.013-.4.027-.582.112a.056.056 0 0 0-.04.06v1.78c0 .034 0 .064-.008.098 0 .047-.037.081-.084.081-.051.004-.102.004-.156.004h-.358c-.125 0-.152-.03-.152-.156v-1.6a.775.775 0 0 0-.017-.176.255.255 0 0 0-.237-.203 1.19 1.19 0 0 0-.592.115c-.027.007-.044.038-.037.065v1.802c0 .126-.027.153-.152.153h-.453c-.119 0-.15-.034-.15-.15v-2.347c0-.027.004-.054.01-.08a.099.099 0 0 1 .096-.065h.422c.061 0 .098.037.119.095.017.047.027.091.044.142.033 0 .054-.024.077-.037.186-.115.383-.214.602-.254a1.28 1.28 0 0 1 .508 0 .634.634 0 0 1 .392.264c.007.01.013.017.02.023-.003.004 0 .004.004.01z"/>
                <path fill="#232F3E" d="M164.4 217.095l.06-.2.467-1.569.02-.06a.138.138 0 0 1 .135-.099h.514c.129 0 .156.037.112.159l-.203.538-.68 1.769c-.006.02-.017.04-.023.06a.165.165 0 0 1-.17.112 9.82 9.82 0 0 0-.446 0c-.105.004-.166-.044-.203-.138-.084-.224-.172-.45-.257-.674-.203-.53-.409-1.062-.612-1.596a.605.605 0 0 1-.044-.132c-.01-.068.014-.101.081-.101.193-.004.386 0 .575 0 .081 0 .119.054.139.125.037.128.074.26.115.389.138.47.274.943.412 1.414-.003.003 0 .003.007.003z"/>
                <path fill="#00A8E1" d="M152.39 215.54a.1.1 0 0 0 .058-.042c.06-.06.125-.118.192-.172a.9.9 0 0 1 .616-.186c.088.003.118.03.125.115.007.115.004.233.004.348a.636.636 0 0 1-.007.139c-.014.06-.037.085-.098.091-.048.004-.092 0-.139-.003a1.62 1.62 0 0 0-.66.095c-.047.017-.047.05-.047.088v1.623c0 .03 0 .058-.003.088a.082.082 0 0 1-.081.078c-.024.003-.051.003-.075.003h-.44c-.023 0-.05 0-.074-.003a.09.09 0 0 1-.08-.085c-.004-.027-.004-.054-.004-.08v-2.3c0-.156.017-.173.172-.173h.325c.088 0 .128.03.152.115.024.084.044.169.064.26zM168.21 218.969c.224.007.444.02.66.078.06.016.118.037.176.064.078.03.128.105.138.186.014.095.017.193.01.29a3.73 3.73 0 0 1-.52 1.634c-.108.18-.24.342-.392.484a.279.279 0 0 1-.109.068c-.064.017-.105-.017-.108-.081a.368.368 0 0 1 .024-.102c.118-.318.233-.632.324-.96.055-.18.092-.362.115-.548.007-.068.01-.136.004-.203a.264.264 0 0 0-.19-.247 1.311 1.311 0 0 0-.324-.061c-.311-.014-.622 0-.93.04l-.41.051c-.043.004-.084 0-.108-.04-.023-.041-.013-.082.01-.122a.34.34 0 0 1 .102-.095c.25-.18.53-.287.828-.358.23-.048.464-.071.7-.078z"/>
                <path fill="#232F3E" d="M166.794 216.486v1.218c-.007.067-.038.098-.105.101a14.61 14.61 0 0 1-.545 0c-.067 0-.098-.034-.105-.098-.003-.02-.003-.044-.003-.064v-2.34c.003-.106.03-.136.135-.136h.487c.105 0 .136.03.136.135v1.184z"/>
                <path fill="#00A8E1" d="M153.71 216.48v-1.201c.003-.082.033-.112.114-.115.176-.004.352-.004.528 0 .077 0 .101.023.108.101.003.03.003.058.003.088v2.253c0 .037-.003.074-.006.111-.004.044-.038.075-.082.078-.02.003-.037.003-.057.003h-.47c-.017 0-.03 0-.048-.003a.098.098 0 0 1-.09-.088c-.004-.027-.004-.054-.004-.081.003-.375.003-.761.003-1.147zM154.101 213.953a.422.422 0 0 1 .16.023c.182.061.277.22.26.427a.378.378 0 0 1-.321.345.638.638 0 0 1-.227 0c-.193-.038-.335-.18-.321-.423.02-.24.179-.372.45-.372z"/>
                <path fill="#232F3E" d="M166.418 213.953a.409.409 0 0 1 .2.034c.132.05.223.172.23.314.027.308-.18.464-.454.457-.037 0-.074-.007-.111-.014-.21-.05-.318-.213-.298-.446.017-.186.163-.325.362-.342.024-.003.047-.007.071-.003z"/>
                <path fill="#00A8E1" d="M151.176 216.202a1.54 1.54 0 0 0-.132-.507c-.138-.291-.351-.504-.676-.579-.372-.08-.707 0-1.011.227a.27.27 0 0 1-.071.05c-.007-.003-.014-.006-.014-.01-.01-.033-.017-.067-.027-.101-.027-.085-.06-.115-.152-.115-.102 0-.206.003-.308 0-.078-.003-.149.007-.203.068 0 1.183 0 2.37.004 3.551.044.071.111.085.189.081.122-.003.244 0 .365 0 .213 0 .213 0 .213-.21v-.963c0-.024-.01-.051.014-.071.169.132.375.213.588.233a.992.992 0 0 0 .795-.247c.166-.152.288-.348.352-.565.091-.277.098-.558.074-.842zm-.808.7a.521.521 0 0 1-.156.27.481.481 0 0 1-.31.12.928.928 0 0 1-.495-.11.096.096 0 0 1-.057-.094v-.612c0-.203.003-.406 0-.609a.103.103 0 0 1 .068-.105.914.914 0 0 1 .581-.088c.142.02.264.112.322.244.05.108.08.227.087.345.02.216.02.433-.04.64z"/>
                <path fill="#232F3E" d="M175.693 216.787s0-.014 0 0c0-.014 0-.014 0 0zM175.644 216.276v.014c-.014-.014-.02-.034-.014-.05v-.028s0-.003.004-.003h-.004v-.034h.007c0-.003-.003-.003-.003-.007a1.173 1.173 0 0 0-.038-.19c-.125-.446-.405-.74-.862-.855a1.661 1.661 0 0 0-.646-.024c-.456.068-.784.312-.943.744a1.81 1.81 0 0 0 .003 1.279c.135.375.406.612.795.71.206.051.422.065.636.034.71-.084 1.004-.622 1.051-1.089h-.003v-.047c-.003-.02-.007-.038.013-.051v.007c0-.004.004-.01.007-.014v-.389c0-.003-.003-.003-.003-.007zm-.812.643a.62.62 0 0 1-.095.196.438.438 0 0 1-.32.183.615.615 0 0 1-.194-.007.435.435 0 0 1-.317-.254.968.968 0 0 1-.092-.334c-.017-.2-.02-.4.027-.596a.758.758 0 0 1 .092-.223.44.44 0 0 1 .345-.21.615.615 0 0 1 .192.007.436.436 0 0 1 .308.24c.058.119.091.25.098.382.004.061.007.122.004.183.01.149-.007.294-.048.433zM169.715 213.976h-.47c-.128 0-.152.024-.152.153v1.096c0 .023.01.047-.007.07-.03-.003-.047-.023-.07-.037-.352-.206-.72-.243-1.093-.07-.26.121-.423.34-.527.601-.102.25-.126.514-.119.782 0 .25.058.497.17.72.128.247.314.436.584.518.369.115.714.057 1.028-.176.024-.014.038-.037.068-.044.017.037.03.078.037.118a.12.12 0 0 0 .119.091h.08c.122 0 .24.004.36 0 .094 0 .121-.03.124-.128v-3.565c-.003-.105-.03-.129-.132-.129zm-.618 2.49v.615a.089.089 0 0 1-.055.095.834.834 0 0 1-.53.102.463.463 0 0 1-.362-.25.938.938 0 0 1-.095-.342c-.027-.213-.01-.43.04-.636a.776.776 0 0 1 .068-.166.436.436 0 0 1 .355-.227c.18-.016.359.017.521.092.04.013.064.054.061.098-.007.21-.003.413-.003.619z"/>
                <path fill="#00A8E1" d="M160.351 216.7c.254.047.514.05.768.01.149-.02.29-.065.423-.136a.63.63 0 0 0 .31-.379c.119-.426-.064-.855-.507-1.014a1.513 1.513 0 0 0-.673-.065c-.534.061-.882.355-1.041.866-.112.349-.098.704-.007 1.055.118.45.416.718.866.812.257.058.517.048.774.007.135-.024.27-.058.4-.108.077-.03.118-.078.114-.166-.003-.081 0-.166 0-.25 0-.102-.04-.132-.138-.109a8.955 8.955 0 0 1-.291.065c-.21.044-.426.044-.636.007a.566.566 0 0 1-.457-.61c.03.004.065.007.095.014zm-.084-.518a.918.918 0 0 1 .064-.234c.101-.247.314-.331.53-.318.062.004.123.017.18.041a.258.258 0 0 1 .156.213.388.388 0 0 1-.01.176c-.041.122-.14.172-.258.196-.07.017-.145.024-.22.017-.131 0-.267-.01-.398-.03-.051-.007-.051-.007-.044-.061z"/>
                <path fill="#232F3E" d="M171.758 216.733c.196-.013.392-.05.568-.145a.629.629 0 0 0 .342-.45.92.92 0 0 0-.004-.372c-.07-.305-.263-.494-.554-.592a1.497 1.497 0 0 0-.504-.064c-.568.013-1.001.3-1.177.869-.118.375-.101.757.014 1.133.118.385.388.619.774.724.166.04.338.057.507.05a2.15 2.15 0 0 0 .727-.138c.098-.037.122-.071.122-.176v-.244c-.003-.098-.044-.132-.142-.108-.074.02-.145.037-.22.054a1.71 1.71 0 0 1-.693.024.53.53 0 0 1-.446-.406 1.386 1.386 0 0 1-.038-.206c.017 0 .034 0 .048.006.223.041.45.058.676.041zm-.707-.541a.84.84 0 0 1 .136-.369c.125-.166.297-.213.493-.193.017 0 .03.007.048.007.236.037.294.227.25.41-.034.135-.146.185-.27.21a.864.864 0 0 1-.21.016 3.283 3.283 0 0 1-.41-.034c-.03-.003-.043-.017-.037-.047z"/>
            </g>
        </g>
        <g>
            <g transform="translate(236 234)">
                <use fill="#000" filter="url(#n)" xlink:href="#o"/>
                <use fill="#FFF" xlink:href="#o"/>
            </g>
            <g fill="#65459B">
                <path d="M254.78 254.539h-2.053l-1.367 1.391h-1.366v-1.391h-2.507v-7.407l.682-1.854h9.344v6.484l-2.734 2.777zm1.824-3.239v-5.095h-7.523v6.714h2.052v1.389l1.367-1.389h2.506l1.598-1.619z"/>
                <path fill-rule="nonzero" d="M254.094 248.059v2.78h.912v-2.78h-.912zm-2.506 2.776h.912v-2.776h-.912v2.776z"/>
            </g>
        </g>
        <g>
            <g transform="translate(96 100)">
                <use fill="#000" filter="url(#p)" xlink:href="#q"/>
                <use fill="#FFF" xlink:href="#q"/>
            </g>
            <path fill="#3B5998" fill-rule="nonzero" d="M119.46 122.949c-.222 0-.382.073-.545.147v1.682c.156.015.245.015.393.015.534 0 .607-.244.607-.586v-.803c0-.253-.083-.455-.454-.455zm-3.546-.092c-.37 0-.455.203-.455.455v.142h.91v-.142c0-.252-.085-.455-.455-.455zm-6.87 1.751c0 .2.094.303.302.303.222 0 .354-.073.517-.147v-.4h-.487c-.23 0-.332.044-.332.244zm13.867-1.66c-.371 0-.5.203-.5.456v.92c0 .253.129.456.5.456.37 0 .5-.203.5-.456v-.92c0-.253-.13-.455-.5-.455zm-15.685 2.692h-1.091V123h-.545v-.91h.545v-.547c0-.743.307-1.184 1.182-1.184h.728v.91h-.455c-.34 0-.363.127-.363.365l-.001.455h.824l-.096.91h-.728v2.642zm3.728.007h-.91l-.039-.23c-.415.23-.785.267-1.03.267-.666 0-1.021-.445-1.021-1.061 0-.728.414-.987 1.155-.987h.754v-.157c0-.371-.043-.48-.613-.48h-.933l.091-.91h1.02c1.252 0 1.526.395 1.526 1.397v2.161zm3.092-2.582c-.566-.097-.728-.118-1-.118-.49 0-.637.108-.637.523v.786c0 .416.147.524.636.524.273 0 .435-.022 1-.119v.888a4.82 4.82 0 0 1-1.09.14c-1.172 0-1.637-.616-1.637-1.506v-.638c0-.89.465-1.508 1.637-1.508a4.8 4.8 0 0 1 1.09.141v.887zm3.414 1.118h-2v.073c0 .416.147.524.636.524.44 0 .708-.022 1.273-.119v.888c-.545.111-.829.14-1.363.14-1.172 0-1.638-.616-1.638-1.506v-.73c0-.778.346-1.416 1.546-1.416 1.2 0 1.546.63 1.546 1.417v.729zm3.546.017c0 .86-.246 1.488-1.735 1.488-.537 0-.853-.048-1.446-.139v-4.918l1.09-.182v1.72c.236-.087.541-.132.819-.132 1.09 0 1.272.49 1.272 1.276v.887zm3.496.018c0 .743-.306 1.462-1.588 1.462s-1.594-.72-1.594-1.462v-.716c0-.743.312-1.463 1.594-1.463s1.588.72 1.588 1.463v.716zm3.494 0c0 .743-.307 1.462-1.588 1.462-1.282 0-1.594-.72-1.594-1.462v-.716c0-.743.312-1.463 1.594-1.463 1.281 0 1.588.72 1.588 1.463v.716zm3.585 1.422h-1.182l-1-1.67v1.67h-1.09v-5.009l1.09-.182v3.225l1-1.585h1.182l-1.092 1.73 1.092 1.821zm-5.177-2.691c-.37 0-.5.202-.5.455v.92c0 .253.13.456.5.456s.501-.203.501-.456v-.92c0-.253-.131-.455-.501-.455zm5.8 2.068c.183 0 .33.15.33.337a.332.332 0 1 1-.665 0c0-.187.15-.337.333-.337h.002zm-.002.053a.278.278 0 0 0-.269.284c0 .16.121.286.27.286.15.002.27-.126.27-.284 0-.159-.12-.286-.27-.286zm-.063.48h-.06v-.376c.032-.004.062-.008.107-.008a.2.2 0 0 1 .117.028c.022.017.034.042.034.078 0 .05-.033.08-.073.091v.003c.032.006.055.036.062.091.01.059.018.081.024.093h-.063a.283.283 0 0 1-.025-.096c-.009-.048-.033-.066-.08-.066h-.042v.162zm0-.208h.044c.049 0 .09-.018.09-.064 0-.033-.023-.066-.09-.066a.31.31 0 0 0-.044.003v.127z"/>
        </g>
        <g>
            <g transform="translate(196 132)">
                <use fill="#000" filter="url(#r)" xlink:href="#s"/>
                <use fill="#FFF" xlink:href="#s"/>
            </g>
            <path fill="#2EBD59" fill-rule="nonzero" d="M214.5 144.646a5.854 5.854 0 1 0 0 11.708 5.854 5.854 0 0 0 0-11.708zm2.685 8.443a.365.365 0 0 1-.502.121c-1.374-.84-3.105-1.03-5.143-.564a.365.365 0 1 1-.162-.711c2.23-.51 4.143-.29 5.686.652.172.106.226.33.12.502zm.716-1.593a.457.457 0 0 1-.628.15c-1.573-.967-3.972-1.247-5.833-.683a.457.457 0 0 1-.266-.873c2.126-.645 4.77-.333 6.577.778a.456.456 0 0 1 .15.628zm.062-1.66c-1.887-1.121-5-1.224-6.802-.678a.547.547 0 1 1-.317-1.048c2.068-.627 5.505-.506 7.678.783a.548.548 0 0 1-.56.942z"/>
        </g>
    </g>
</svg>
