<svg xmlns="http://www.w3.org/2000/svg" xmlns:xlink="http://www.w3.org/1999/xlink" width="1494" height="620" viewBox="0 0 1494 620">
    <defs>
        <circle id="b" cx="79" cy="79" r="79"/>
        <filter id="a" width="163.3%" height="163.3%" x="-31.6%" y="-25.3%" filterUnits="objectBoundingBox">
            <feOffset dy="10" in="SourceAlpha" result="shadowOffsetOuter1"/>
            <feGaussianBlur in="shadowOffsetOuter1" result="shadowBlurOuter1" stdDeviation="15"/>
            <feColorMatrix in="shadowBlurOuter1" values="0 0 0 0 0.485883894 0 0 0 0 0.521743464 0 0 0 0 0.556862745 0 0 0 0.2 0"/>
        </filter>
        <circle id="d" cx="47.5" cy="47.5" r="47.5"/>
        <filter id="c" width="163.2%" height="163.2%" x="-31.6%" y="-25.3%" filterUnits="objectBoundingBox">
            <feOffset dy="6" in="SourceAlpha" result="shadowOffsetOuter1"/>
            <feGaussianBlur in="shadowOffsetOuter1" result="shadowBlurOuter1" stdDeviation="9"/>
            <feColorMatrix in="shadowBlurOuter1" values="0 0 0 0 0.485883894 0 0 0 0 0.521743464 0 0 0 0 0.556862745 0 0 0 0.2 0"/>
        </filter>
        <circle id="f" cx="63" cy="63" r="63"/>
        <filter id="e" width="163.5%" height="163.5%" x="-31.7%" y="-25.4%" filterUnits="objectBoundingBox">
            <feOffset dy="8" in="SourceAlpha" result="shadowOffsetOuter1"/>
            <feGaussianBlur in="shadowOffsetOuter1" result="shadowBlurOuter1" stdDeviation="12"/>
            <feColorMatrix in="shadowBlurOuter1" values="0 0 0 0 0.485883894 0 0 0 0 0.521743464 0 0 0 0 0.556862745 0 0 0 0.2 0"/>
        </filter>
        <linearGradient id="g" x1="50%" x2="50%" y1="0%" y2="100%">
            <stop offset="0%" stop-color="#A3CC39"/>
            <stop offset="69.8%" stop-color="#85BD40"/>
            <stop offset="100%" stop-color="#65AD45"/>
        </linearGradient>
        <circle id="i" cx="50.5" cy="50.5" r="50.5"/>
        <filter id="h" width="162.4%" height="162.4%" x="-31.2%" y="-25.2%" filterUnits="objectBoundingBox">
            <feOffset dy="6" in="SourceAlpha" result="shadowOffsetOuter1"/>
            <feGaussianBlur in="shadowOffsetOuter1" result="shadowBlurOuter1" stdDeviation="9.5"/>
            <feColorMatrix in="shadowBlurOuter1" values="0 0 0 0 0.485883894 0 0 0 0 0.521743464 0 0 0 0 0.556862745 0 0 0 0.2 0"/>
        </filter>
        <circle id="k" cx="80" cy="80" r="80"/>
        <filter id="j" width="165%" height="165%" x="-32.5%" y="-25.6%" filterUnits="objectBoundingBox">
            <feOffset dy="11" in="SourceAlpha" result="shadowOffsetOuter1"/>
            <feGaussianBlur in="shadowOffsetOuter1" result="shadowBlurOuter1" stdDeviation="15.5"/>
            <feColorMatrix in="shadowBlurOuter1" values="0 0 0 0 0.485883894 0 0 0 0 0.521743464 0 0 0 0 0.556862745 0 0 0 0.2 0"/>
        </filter>
        <circle id="m" cx="63" cy="63" r="63"/>
        <filter id="l" width="163.5%" height="163.5%" x="-31.7%" y="-25.4%" filterUnits="objectBoundingBox">
            <feOffset dy="8" in="SourceAlpha" result="shadowOffsetOuter1"/>
            <feGaussianBlur in="shadowOffsetOuter1" result="shadowBlurOuter1" stdDeviation="12"/>
            <feColorMatrix in="shadowBlurOuter1" values="0 0 0 0 0.485883894 0 0 0 0 0.521743464 0 0 0 0 0.556862745 0 0 0 0.2 0"/>
        </filter>
        <circle id="o" cx="55.5" cy="55.5" r="55.5"/>
        <filter id="n" width="163.1%" height="163.1%" x="-31.5%" y="-25.2%" filterUnits="objectBoundingBox">
            <feOffset dy="7" in="SourceAlpha" result="shadowOffsetOuter1"/>
            <feGaussianBlur in="shadowOffsetOuter1" result="shadowBlurOuter1" stdDeviation="10.5"/>
            <feColorMatrix in="shadowBlurOuter1" values="0 0 0 0 0.485883894 0 0 0 0 0.521743464 0 0 0 0 0.556862745 0 0 0 0.2 0"/>
        </filter>
        <circle id="q" cx="77.5" cy="77.5" r="77.5"/>
        <filter id="p" width="162.6%" height="162.6%" x="-31.3%" y="-24.8%" filterUnits="objectBoundingBox">
            <feOffset dy="10" in="SourceAlpha" result="shadowOffsetOuter1"/>
            <feGaussianBlur in="shadowOffsetOuter1" result="shadowBlurOuter1" stdDeviation="14.5"/>
            <feColorMatrix in="shadowBlurOuter1" values="0 0 0 0 0.485883894 0 0 0 0 0.521743464 0 0 0 0 0.556862745 0 0 0 0.2 0"/>
        </filter>
        <circle id="s" cx="63" cy="63" r="63"/>
        <filter id="r" width="163.5%" height="163.5%" x="-31.7%" y="-25.4%" filterUnits="objectBoundingBox">
            <feOffset dy="8" in="SourceAlpha" result="shadowOffsetOuter1"/>
            <feGaussianBlur in="shadowOffsetOuter1" result="shadowBlurOuter1" stdDeviation="12"/>
            <feColorMatrix in="shadowBlurOuter1" values="0 0 0 0 0.485883894 0 0 0 0 0.521743464 0 0 0 0 0.556862745 0 0 0 0.2 0"/>
        </filter>
    </defs>
    <g fill="none" fill-rule="evenodd">
        <path stroke="#F4D2D2" d="M1 109.5C1 131.868 19.132 150 41.5 150h84.418c55.229 0 100 44.772 100 100v24c0 55.228 44.772 100 100 100h217.49c17.95 0 32.5 14.55 32.5 32.5s14.55 32.5 32.5 32.5h113.674c17.949 0 32.5 14.55 32.5 32.5s14.55 32.5 32.5 32.5h181.265c32.86 0 59.5-26.64 59.5-59.5s26.639-59.5 59.5-59.5H1442.5c27.89 0 50.5-22.61 50.5-50.5s-22.61-50.5-50.5-50.5h-43.653c-34.242 0-62-27.758-62-62 0-34.242-27.758-62-62-62h-188.388c-25.405 0-46 20.595-46 46s-20.595 46-46 46H892.333c-49.96 0-90.461-40.5-90.461-90.461 0-.346.002-.693.006-1.039.573-49.957-39.46-90.92-89.416-91.494a90.46 90.46 0 0 0-1.04-.006h-139.31c-24.024 0-43.5 19.476-43.5 43.5s-19.475 43.5-43.5 43.5H253"/>
        <g transform="translate(117 91)">
            <use fill="#000" filter="url(#a)" xlink:href="#b"/>
            <use fill="#FFF" xlink:href="#b"/>
        </g>
        <path fill="#E50914" d="M212.539 157h-4.085v22.755c3.712.127 7.409.314 11.09.558v-4.009a350.446 350.446 0 0 0-7.005-.394V157zm32.461.002h-4.487l-2.957 6.829-2.658-6.829h-4.419l4.749 12.202-5.185 11.97c1.435.14 2.865.288 4.294.445l3.015-6.96 2.986 7.672c1.556.2 3.107.407 4.656.628l.006-.003-5.321-13.67L245 157.002zm-50.567 22.554l4.085-.001v-9.256h5.537v-4.009h-5.537v-5.243h7.318v-4.044h-11.403v22.553zm-15.254-18.509h4.276v18.747c1.359-.05 2.72-.093 4.084-.129v-18.618h4.275v-4.045H179.18v4.045zm-13.964 19.912c3.765-.34 7.547-.621 11.346-.84v-4.009c-2.428.14-4.848.306-7.262.495v-6.07c1.584-.016 3.67-.064 5.517-.04v-4.01c-1.476-.004-3.848.02-5.517.042v-5.48h7.262v-4.044h-11.346v23.956zm-8.013-9.268l-5.32-14.689H148v25.957c1.359-.193 2.72-.377 4.085-.554V168.29l4.73 13.535c1.488-.171 2.978-.334 4.472-.487v-24.336h-4.085v14.69zm65.71 8.863c1.364.104 2.725.216 4.085.336v-23.888h-4.085v23.552z"/>
        <g transform="translate(421 99)">
            <use fill="#000" filter="url(#c)" xlink:href="#d"/>
            <use fill="#FFF" xlink:href="#d"/>
        </g>
        <g fill-rule="nonzero" stroke-width=".5">
            <path fill="#5DA8DC" stroke="#5DA8DC" d="M474.768 131.475v-.007h1.748l.638.127c.426.082.813.19 1.16.324.347.133.683.289 1.008.467.325.177.62.359.884.543.263.183.498.376.706.58.206.207.528.26.965.16.437-.1.907-.238 1.412-.416a19.05 19.05 0 0 0 1.495-.6c.493-.223.794-.364.901-.424l.168-.1.007-.01.034-.017.033-.017.034-.016.034-.017.006-.01.01-.007.01-.006.007-.01.034-.01.033-.007-.006.05-.01.05-.017.05-.017.05-.017.033-.017.034-.016.05a1.153 1.153 0 0 0-.034.133c-.011.056-.118.278-.32.667-.201.39-.453.784-.756 1.184-.302.4-.573.703-.813.908a7.714 7.714 0 0 0-.48.433 1.44 1.44 0 0 1-.287.234l-.168.11-.033.016-.034.017-.006.01-.01.007-.01.006-.007.01-.034.017-.034.017-.006.01-.01.006-.01.007-.007.01-.007.01-.01.007-.01.006-.007.01h.168l.941-.2a16.946 16.946 0 0 0 1.799-.483l.907-.3.101-.034.05-.016.034-.017.034-.017.033-.016.034-.017.067-.01.067-.007v.067l-.016.007-.017.01-.007.01-.01.006-.01.007-.007.01-.007.01-.01.007-.01.006-.006.01-.007.01-.01.007-.017.033-.017.034-.01.006c-.004.007-.147.196-.427.567-.28.374-.431.563-.454.567-.022.007-.053.04-.094.1-.038.063-.275.31-.712.744-.437.434-.865.82-1.284 1.158-.422.34-.635.758-.639 1.254a29.056 29.056 0 0 1-.077 1.674 21.042 21.042 0 0 1-.252 2.018 23.9 23.9 0 0 1-.572 2.451 22.173 22.173 0 0 1-.941 2.669c-.37.867-.756 1.645-1.16 2.334-.403.69-.773 1.273-1.109 1.751-.336.478-.678.929-1.025 1.351-.347.423-.787.898-1.318 1.428-.533.527-.824.816-.874.867-.051.049-.27.231-.658.547-.386.318-.8.636-1.244.954-.442.316-.847.579-1.217.79-.37.211-.816.453-1.338.724-.52.273-1.082.527-1.687.76-.605.234-1.244.45-1.916.65-.672.201-1.322.357-1.95.468-.627.111-1.338.205-2.134.283l-1.193.117v.017h-2.185v-.017l-.286-.017a15.44 15.44 0 0 1-.47-.033 56.53 56.53 0 0 1-1.395-.183 20.274 20.274 0 0 1-1.9-.334c-.459-.111-1.142-.322-2.05-.634a20.038 20.038 0 0 1-2.33-.944 93.359 93.359 0 0 1-1.21-.6 8.608 8.608 0 0 1-.544-.307l-.302-.183-.007-.01-.01-.007-.01-.007-.007-.01-.033-.016-.034-.017-.007-.01-.01-.007-.01-.006-.007-.01-.006-.01-.01-.007h-.017v-.067l.033.007.034.01.151.017c.101.01.376.027.824.05a15.284 15.284 0 0 0 2.974-.15 17.537 17.537 0 0 0 1.866-.4 13.857 13.857 0 0 0 1.976-.674 27.646 27.646 0 0 0 1.278-.587c.25-.127.634-.363 1.15-.707l.772-.517.007-.01.01-.007.01-.007.007-.01.007-.01.01-.006.01-.007.007-.01.033-.01.034-.007.007-.033.01-.034.01-.006.006-.01-.268-.017-.521-.033a5.088 5.088 0 0 1-.79-.15 7.621 7.621 0 0 1-1.16-.4 8.964 8.964 0 0 1-1.21-.634c-.392-.245-.676-.448-.85-.61-.173-.16-.397-.388-.673-.681-.273-.296-.51-.6-.712-.91a8.16 8.16 0 0 1-.578-1.078l-.28-.607-.016-.05-.017-.05-.01-.033-.007-.034.05.007.051.01.37.05c.246.033.633.044 1.16.033.526-.01.89-.033 1.092-.066.201-.034.325-.056.37-.067l.067-.017.084-.016.084-.017.007-.01.01-.007.01-.006.006-.01-.067-.017-.067-.017-.067-.016-.067-.017-.068-.017a6.214 6.214 0 0 1-.235-.067 12.95 12.95 0 0 1-.908-.366c-.493-.212-.885-.417-1.176-.617-.292-.201-.57-.42-.834-.658-.262-.24-.55-.549-.863-.927a6.665 6.665 0 0 1-.84-1.317 7.974 7.974 0 0 1-.555-1.434 7.688 7.688 0 0 1-.242-1.385l-.06-.7.033.007.033.01.034.016.034.017.033.017.034.016.52.234c.348.156.78.289 1.295.4.515.111.823.172.924.184l.151.016h.303l-.007-.01-.01-.006-.01-.007-.007-.01-.006-.01-.01-.007-.01-.006-.007-.01-.034-.017-.033-.017-.007-.01-.01-.007-.01-.006-.007-.01-.034-.017-.033-.017-.007-.01a41.885 41.885 0 0 1-.29-.213 4.394 4.394 0 0 1-.577-.544 19.664 19.664 0 0 1-.605-.7 5.407 5.407 0 0 1-.538-.784 9.468 9.468 0 0 1-.498-1.06 7.486 7.486 0 0 1-.544-2.575c-.011-.423 0-.784.034-1.084.033-.3.1-.64.201-1.018s.247-.778.437-1.2l.286-.634.017-.05.017-.05.01-.007.006-.01.007-.01.01-.007.01.007.007.01.007.01.01.007.01.007.007.01.006.01.01.006.017.034.017.033.01.007.007.01.454.5c.302.333.66.706 1.075 1.117.415.412.644.625.69.64.044.018.1.07.167.154.068.082.292.28.673.59.38.312.88.673 1.495 1.084.617.412 1.3.818 2.05 1.218.751.4 1.558.761 2.42 1.084.864.322 1.469.533 1.816.633.347.1.941.228 1.781.384s1.474.256 1.9.3c.425.045.717.07.873.077l.236.007-.007-.05-.01-.05-.067-.417a7.778 7.778 0 0 1-.068-1.168c0-.5.04-.961.118-1.384a8.15 8.15 0 0 1 .353-1.284c.157-.434.31-.782.46-1.044.153-.26.352-.557.599-.89.246-.334.566-.679.958-1.034.392-.356.84-.673 1.344-.951.505-.278.97-.49 1.395-.634a6.54 6.54 0 0 1 1.076-.283c.291-.045.437-.07.437-.077z"/>
            <path fill="#FFF" stroke="#FFF" d="M449.86 144.776v-13.308h24.908v.007c0 .007-.146.032-.437.077a6.54 6.54 0 0 0-1.076.283c-.425.145-.89.356-1.395.634a7.068 7.068 0 0 0-1.344.95c-.392.356-.712.7-.958 1.034-.247.334-.446.63-.598.891-.15.262-.304.61-.46 1.044a8.15 8.15 0 0 0-.354 1.284 7.597 7.597 0 0 0-.118 1.384c0 .5.023.89.068 1.168l.067.417.01.05.007.05-.236-.007a17.145 17.145 0 0 1-.873-.077 26.568 26.568 0 0 1-1.9-.3c-.84-.156-1.434-.283-1.781-.384-.347-.1-.952-.31-1.815-.633a20.083 20.083 0 0 1-2.42-1.084c-.751-.4-1.434-.806-2.05-1.218a19.752 19.752 0 0 1-1.496-1.084c-.381-.31-.605-.508-.673-.59a.492.492 0 0 0-.168-.153c-.045-.016-.274-.23-.689-.64a29.858 29.858 0 0 1-1.075-1.118l-.454-.5-.007-.01-.01-.007-.017-.033-.017-.034-.01-.006-.006-.01-.007-.01-.01-.007-.01-.007-.007-.01-.007-.01-.01-.007-.01.007-.007.01-.006.01-.01.007-.017.05-.017.05-.286.634c-.19.422-.336.822-.437 1.2-.1.378-.168.717-.201 1.018-.034.3-.045.661-.034 1.084.011.422.062.85.151 1.284.09.433.22.864.393 1.29.175.43.341.783.498 1.061.157.278.336.54.538.784.201.244.403.478.605.7.201.223.394.404.578.544l.289.213.007.01.033.017.034.017.007.01.01.006.01.007.007.01.033.017.034.017.006.01.01.006.01.007.007.01.007.01.01.007.01.006.007.01h-.303l-.15-.016c-.102-.012-.41-.073-.925-.184a6.61 6.61 0 0 1-1.294-.4l-.521-.234-.034-.016-.033-.017-.034-.017-.034-.016-.033-.01-.034-.007.06.7c.039.467.12.929.243 1.385.123.455.308.933.554 1.434.247.5.527.94.84 1.317.314.378.602.687.864.927.263.237.542.457.834.658.291.2.683.405 1.176.617.493.21.796.333.908.366.112.034.19.056.235.067l.068.017.067.017.067.016.067.017.067.017-.006.01-.01.006-.01.007-.007.01-.084.017-.084.016-.067.017a7.109 7.109 0 0 1-.37.067c-.202.033-.566.055-1.093.066-.526.011-.913 0-1.16-.033l-.369-.05-.05-.01-.05-.007.006.034.01.033.017.05.017.05.279.607c.183.407.376.766.578 1.077.201.312.439.615.712.91.276.294.5.521.673.681.174.163.458.366.85.61.392.245.795.457 1.21.634.415.178.801.312 1.16.4.358.09.621.14.79.15.168.012.341.023.52.034l.27.017-.007.01-.01.006-.01.034-.007.033-.034.007-.033.01-.007.01-.01.007-.01.006-.007.01-.007.01-.01.007-.01.007-.007.01-.773.517c-.515.344-.898.58-1.15.707a27.72 27.72 0 0 1-1.277.587c-.6.26-1.259.484-1.976.673-.717.19-1.339.323-1.866.4a15.144 15.144 0 0 1-2.974.15 20.548 20.548 0 0 1-.824-.05l-.151-.016-.034-.01-.033-.007v-13.308zm37.237-9.645l.007-.01.017-.01.016-.007v26.416h-24.436v-.017l1.193-.117a27.919 27.919 0 0 0 2.135-.283 17.614 17.614 0 0 0 1.95-.467c.671-.2 1.31-.417 1.915-.65a15.976 15.976 0 0 0 1.687-.761c.522-.271.968-.513 1.338-.724.37-.211.775-.474 1.217-.79.444-.318.858-.636 1.244-.954.387-.316.607-.498.658-.547.05-.051.341-.34.874-.867.531-.53.97-1.005 1.318-1.428.347-.422.689-.873 1.025-1.35.336-.479.706-1.062 1.11-1.752.403-.689.79-1.467 1.159-2.334.37-.868.683-1.757.941-2.669a23.9 23.9 0 0 0 .572-2.451c.123-.723.207-1.395.252-2.018.045-.623.07-1.18.077-1.674.004-.496.217-.914.639-1.254.419-.338.847-.724 1.284-1.158.437-.433.674-.681.712-.744.04-.06.072-.093.094-.1.023-.004.174-.193.454-.567.28-.371.423-.56.427-.567l.01-.006.017-.034.017-.033.01-.007.007-.01.006-.01.01-.006.01-.007.007-.01.007-.01.01-.007.01-.006zm-9.943-3.536l-.638-.127h10.621v3.57l-.067.006-.067.01-.034.017-.033.016-.034.017-.034.017-.05.016-.1.034-.908.3c-.572.189-1.171.35-1.799.483l-.94.2h-.169l.007-.01.01-.006.01-.007.007-.01.006-.01.01-.007.01-.006.007-.01.034-.017.034-.017.006-.01.01-.006.01-.007.007-.01.034-.017.033-.016.168-.11a1.44 1.44 0 0 0 .286-.234c.079-.082.239-.227.48-.433.24-.205.512-.507.814-.908.303-.4.555-.795.757-1.184.201-.389.308-.611.319-.667.011-.055.022-.1.034-.133l.016-.05.017-.034.017-.033.017-.05.017-.05.01-.05.006-.05-.033.007-.034.01-.007.01-.01.006-.01.007-.006.01-.034.017-.034.016-.033.017-.034.017-.007.01-.168.1c-.107.06-.408.201-.9.423a19.05 19.05 0 0 1-1.496.6c-.505.179-.975.318-1.412.418-.437.1-.759.046-.965-.16a5.426 5.426 0 0 0-.706-.58 9.609 9.609 0 0 0-.884-.544 8.278 8.278 0 0 0-1.008-.467 6.873 6.873 0 0 0-1.16-.324zm-27.293 28.24v-1.684h.017l.01.007.006.01.007.01.01.006.01.007.007.01.034.017.033.016.007.01.01.007.01.007.007.01.302.183c.202.123.384.225.545.307.163.085.567.285 1.21.6.645.318 1.422.633 2.33.944.907.312 1.59.523 2.05.634.46.111 1.092.222 1.899.334a56.53 56.53 0 0 0 1.395.183c.123.011.28.022.47.033l.286.017v.017h-10.655v-1.685z"/>
        </g>
        <g transform="translate(961 164)">
            <use fill="#000" filter="url(#e)" xlink:href="#f"/>
            <use fill="#FFF" xlink:href="#f"/>
        </g>
        <path fill="url(#g)" fill-rule="nonzero" d="M58.197 5.966h-4.634v7.706c0 .348-.135.643-.35.886-.216.215-.512.322-.861.348h-2.694c-.378-.027-.674-.134-.89-.348a1.303 1.303 0 0 1-.35-.886V5.966h-4.633v8.108c.027 1.075.216 2.014.674 2.765.457.752 1.05 1.316 1.831 1.692.808.375 1.724.591 2.775.591h4.499v-.053c.97 0 1.805-.215 2.505-.618a4.172 4.172 0 0 0 1.563-1.773c.377-.751.565-1.638.565-2.605V5.966zm-46.365.483c-.808-.349-1.697-.51-2.667-.483h-2.99L5.016 6.1c-.269.08-.404.134-.404.134V.004H.006v19.119h4.606v-7.734c.027-.322.135-.644.377-.859.243-.215.512-.349.89-.349h2.694c.323 0 .62.136.862.35.242.214.35.536.377.858v7.734h4.606v-8.324c0-1.155-.242-2.094-.7-2.82a4.195 4.195 0 0 0-1.886-1.53zm15.68 7.223c-.028.348-.135.644-.35.886-.243.215-.54.322-.89.348h-2.694c-.35-.027-.646-.134-.862-.348-.242-.242-.35-.537-.377-.886V5.966h-4.607v8.108c0 1.075.216 2.014.647 2.765a4.126 4.126 0 0 0 1.832 1.692c.808.375 1.697.591 2.774.591h4.526v-.053c.97 0 1.805-.215 2.479-.618a4.418 4.418 0 0 0 1.59-1.773c.35-.751.538-1.638.565-2.605V5.966h-4.634v7.706zm8.136 5.45h4.607V.006h-4.607v19.118z" transform="translate(995.291 217.43)"/>
        <g transform="translate(602 383)">
            <use fill="#000" filter="url(#h)" xlink:href="#i"/>
            <use fill="#FFF" xlink:href="#i"/>
        </g>
        <g fill-rule="nonzero">
            <path fill="#FFF" d="M627 408h52v52h-52z"/>
            <path fill="#000" d="M678.235 441.501V426.5h-15.644V441.5h15.644zm-3.565-10.694c-1.205-.692-2.41-1.051-3.539-1.051-1.205 0-2.205.384-2.974 1.154-.795.744-1.206 1.667-1.206 2.82 0 1.103.41 2.052 1.18 2.822.82.718 1.795 1.077 2.975 1.077 1.257 0 2.488-.385 3.693-1.154v1.616c-1.129.615-2.385.923-3.77.923-1.18 0-2.155-.231-2.976-.693a5.757 5.757 0 0 1-1.923-1.923c-.461-.872-.718-1.744-.718-2.667 0-1.539.539-2.796 1.641-3.822 1.078-1.025 2.412-1.564 3.976-1.564 1.128 0 2.333.282 3.641.872v1.59zm-13.822-4.308h-15.644V441.5h15.644V426.5zM650 428.729h2.718c.872 0 1.54.103 2.026.334.487.257.846.564 1.077.95.256.41.385.871.385 1.41 0 1.025-.513 1.743-1.59 2.18.769.128 1.384.436 1.82.948.436.462.642 1.052.667 1.719-.025.513-.154 1-.41 1.41-.282.41-.667.744-1.205 1.026-.539.257-1.18.385-1.975.385H650V428.73z"/>
            <path fill="#000" d="M652.462 433.167c.794 0 1.359-.154 1.692-.436.334-.334.513-.718.513-1.206 0-.974-.641-1.487-1.898-1.487h-1.282v3.129h.975zm.41 1.333h-1.385v3.257h1.488c.692 0 1.256-.051 1.615-.154.333-.18.564-.385.718-.615a1.64 1.64 0 0 0 .257-.847c-.026-.307-.103-.59-.283-.846-.154-.282-.41-.487-.77-.616-.332-.128-.896-.204-1.64-.179zm-9.463-8.001h-15.644V441.5h15.644V426.5zm-10.874 12.592V428.73h2.718c.872 0 1.514.102 2 .333.488.23.873.564 1.104.975.256.384.384.846.41 1.384-.026 1.026-.539 1.744-1.616 2.206.795.128 1.385.436 1.821.923.436.461.667 1.051.667 1.718 0 .539-.128 1.026-.41 1.41-.282.436-.667.77-1.18 1.027-.538.256-1.205.384-2 .384h-3.514z"/>
            <path fill="#000" d="M635.305 430.038h-1.283v3.129h1c.77 0 1.334-.154 1.668-.436.333-.308.512-.718.512-1.18 0-1-.64-1.513-1.897-1.513zm.102 4.462h-1.385v3.257h1.462c.77 0 1.334-.051 1.667-.154.282-.128.513-.308.692-.564.154-.282.231-.565.257-.898-.026-.359-.129-.64-.282-.846a1.37 1.37 0 0 0-.77-.59c-.359-.154-.923-.205-1.64-.205z"/>
        </g>
        <g transform="translate(667 19)">
            <use fill="#000" filter="url(#j)" xlink:href="#k"/>
            <use fill="#FFF" xlink:href="#k"/>
        </g>
        <g fill-rule="nonzero">
            <path fill="#010101" d="M714.824 111.562c-.786-.267-1.324-.63-1.98-1.333-1.378-1.48-1.454-1.92-1.454-8.488 0-6.329.098-6.925 1.382-8.41 1.8-2.083 5.963-2.022 7.741.114 1.18 1.418 1.277 2.05 1.277 8.393 0 5.02-.044 5.856-.353 6.735-.475 1.345-1.871 2.646-3.289 3.063-1.336.393-1.995.379-3.324-.074zm2.444-3.044c.802-.305.892-.973.892-6.661 0-3.63-.074-5.602-.222-5.924-.496-1.079-2.2-1.079-2.696 0-.148.322-.222 2.293-.222 5.924 0 6.347.082 6.715 1.505 6.767.234.008.568-.04.743-.106zm8.717 2.938c-.282-.152-.68-.608-.883-1.013-.342-.682-.373-1.38-.427-9.625l-.059-8.89h3.747v8.137c0 6.965.042 8.172.292 8.377.435.358 1.14.096 1.94-.718l.711-.725V91.928h3.728v19.626h-3.728v-1.976l-.932.819c-.512.45-1.216.939-1.563 1.085-.81.34-2.167.328-2.826-.026zm-22.74-5.295l-.003-5.392-2.425-7.676-2.424-7.675 1.97-.056c1.153-.033 2.02.024 2.09.137.066.106.691 2.338 1.39 4.961.698 2.623 1.313 4.77 1.368 4.77.055 0 .57-1.77 1.144-3.934a445.535 445.535 0 0 1 1.336-4.955l.293-1.02h2.068c1.684 0 2.048.05 1.962.27-.057.148-1.17 3.642-2.473 7.764l-2.37 7.494v10.704h-3.923l-.003-5.392z"/>
            <path fill="#D02726" d="M754.289 119.123c-9.586-.317-12.182-.993-13.947-3.632-.713-1.066-1.513-3.452-1.768-5.271-.895-6.387-.675-19.704.4-24.294.974-4.157 3.265-6.193 7.443-6.617 4.105-.417 14.804-.644 25.211-.535 11.236.117 16.526.355 18.44.83 3.744.927 5.56 3.658 6.193 9.311.12 1.07.267 4.8.327 8.292.242 14.095-.829 18.579-4.91 20.559-1.54.747-2.548.919-6.903 1.176-4.73.28-24.033.394-30.486.18zm4.716-7.683c.33-.17.988-.661 1.462-1.094l.86-.785v1.993h3.728V92.122h-3.728v14.82l-.857.848c-.92.911-1.292 1.025-1.778.544-.27-.268-.308-1.288-.308-8.259v-7.953h-3.728v8.417c0 9.286.077 10.02 1.132 10.8.667.494 2.347.546 3.217.101zm17.944-.063c.342-.206.817-.783 1.079-1.31.46-.926.47-1.054.534-7.351.07-6.905-.042-8.151-.86-9.55-.456-.778-1.54-1.433-2.376-1.433-.804 0-1.956.536-2.834 1.318l-.961.855v-8.391h-3.532v26.038h3.532v-1.794l.805.721c.443.396 1.083.84 1.423.987.91.392 2.463.349 3.19-.09zm-4.683-3.17l-.736-.422V95.868l.871-.458c.707-.37.975-.42 1.423-.265.967.336 1.071 1.079 1.004 7.147l-.06 5.41-.55.468c-.675.574-1.006.58-1.952.038zm16.531 3.136c1.897-.851 2.75-2.291 2.9-4.889l.098-1.702h-3.783v1.154c0 1.413-.22 2.03-.88 2.458-.743.482-1.667.175-2.111-.7-.269-.53-.344-1.174-.344-2.96v-2.284h7.063v-2.853c0-3.59-.283-4.735-1.506-6.082-1.08-1.19-2.238-1.663-3.988-1.631-1.45.026-2.42.384-3.438 1.27-1.664 1.446-1.916 2.736-1.817 9.297.065 4.263.136 5.301.416 6.035.477 1.251 1.339 2.204 2.523 2.789 1.334.658 3.522.702 4.867.098zm-4.12-13.301c0-2.417.626-3.242 2.202-2.899.79.172 1.134 1.049 1.134 2.9v1.463h-3.336v-1.464zm-33.75 2.338V89.207h4.317v-3.692h-12.361v3.692h4.12v22.347h3.925V100.38z"/>
        </g>
        <g>
            <g transform="translate(312 304)">
                <use fill="#000" filter="url(#l)" xlink:href="#m"/>
                <use fill="#FFF" xlink:href="#m"/>
            </g>
            <g fill-rule="nonzero">
                <path fill="#D1EFFA" d="M374.973 380.482v-.042a.203.203 0 0 1 .18-.075c.31-.01.608-.01.917 0 .064 0 .138.021.181.075v.042h-1.278z"/>
                <path fill="#00A8E1" d="M376.251 380.44c-.426-.01-.852-.01-1.278 0-.586-.032-1.172-.054-1.758-.096a30.518 30.518 0 0 1-4.613-.703c-5.23-1.215-9.822-3.655-13.827-7.203-.373-.33-.725-.67-1.087-1.012a.785.785 0 0 1-.202-.288.392.392 0 0 1 .074-.426.377.377 0 0 1 .427-.096c.095.043.191.086.277.139 3.824 2.365 8 4.091 12.378 5.114 1.47.341 2.95.607 4.442.8 2.142.265 4.304.361 6.456.287a34.21 34.21 0 0 0 3.462-.288 41.853 41.853 0 0 0 7.905-1.8 37.276 37.276 0 0 0 3.962-1.556.89.89 0 0 1 .64-.085.662.662 0 0 1 .426.937c-.086.16-.203.299-.352.405a23.715 23.715 0 0 1-3.941 2.504 31.217 31.217 0 0 1-8.342 2.823c-1.672.299-3.355.48-5.049.544zM360.474 358.843c.266-.16.543-.33.831-.48a4.76 4.76 0 0 1 2.418-.532c.607.032 1.161.202 1.588.65.404.415.553.927.596 1.48.01.118.01.235.01.363v5.52c0 .479-.063.543-.543.543h-1.3c-.084 0-.17 0-.255-.011a.294.294 0 0 1-.256-.245c-.02-.117-.02-.235-.02-.352v-4.933c.01-.202-.012-.394-.065-.586a.797.797 0 0 0-.724-.586 3.76 3.76 0 0 0-1.832.352.175.175 0 0 0-.128.192v5.604c0 .106 0 .202-.022.309 0 .149-.117.256-.266.256-.16.01-.32.01-.49.01h-1.13c-.393 0-.479-.096-.479-.49v-5.04c0-.18-.01-.372-.053-.553a.805.805 0 0 0-.745-.64 3.75 3.75 0 0 0-1.865.363c-.085.02-.138.117-.117.202v5.679c0 .394-.085.48-.48.48h-1.427c-.373 0-.468-.107-.468-.47v-7.394c0-.085.01-.17.031-.255a.31.31 0 0 1 .299-.203h1.331c.192 0 .31.117.373.298.053.15.085.288.139.448.106 0 .17-.075.245-.117.586-.363 1.203-.672 1.896-.8a4.034 4.034 0 0 1 1.598 0c.5.107.948.406 1.236.832.02.032.042.053.063.074-.01.01 0 .01.011.032z"/>
                <path fill="#232F3E" d="M382.557 364.15c.064-.214.128-.416.192-.63l1.47-4.943.064-.192a.435.435 0 0 1 .426-.309h1.62c.404 0 .49.117.351.5l-.64 1.695-2.14 5.572c-.022.064-.054.128-.075.192a.519.519 0 0 1-.533.352c-.468-.011-.937-.011-1.406 0-.33.01-.522-.139-.639-.437-.266-.703-.543-1.417-.81-2.12-.639-1.673-1.288-3.346-1.928-5.03a1.905 1.905 0 0 1-.138-.415c-.032-.213.042-.32.256-.32.607-.01 1.214 0 1.81 0 .256 0 .373.17.437.395.117.405.235.82.362 1.225.437 1.48.863 2.973 1.3 4.453-.01.011 0 .011.021.011z"/>
                <path fill="#00A8E1" d="M344.73 359.248a.318.318 0 0 0 .18-.128c.192-.192.395-.373.608-.543a2.834 2.834 0 0 1 1.938-.586c.277.01.373.096.395.362.02.362.01.735.01 1.098.01.149 0 .287-.021.436-.043.192-.117.267-.31.288-.148.01-.287 0-.436-.01-.714-.065-1.406.074-2.077.298-.15.053-.15.16-.15.277v5.114c0 .096 0 .181-.01.277a.257.257 0 0 1-.256.245c-.074.01-.16.01-.234.01h-1.385c-.074 0-.16 0-.234-.01a.285.285 0 0 1-.256-.266c-.01-.086-.01-.17-.01-.256v-7.245c0-.49.053-.544.543-.544h1.022c.277 0 .405.096.48.363.074.266.138.532.202.82zM394.563 370.052c.703.021 1.396.064 2.077.245.192.053.373.117.554.202.245.096.405.33.437.586.043.298.053.607.032.916a11.75 11.75 0 0 1-1.64 5.147 7.106 7.106 0 0 1-1.236 1.523.879.879 0 0 1-.341.213c-.202.053-.33-.053-.34-.255a1.16 1.16 0 0 1 .074-.32c.373-1.002.735-1.993 1.022-3.026.17-.565.288-1.14.363-1.726.02-.213.031-.426.01-.64a.832.832 0 0 0-.596-.777 4.131 4.131 0 0 0-1.023-.192c-.98-.042-1.96 0-2.93.128l-1.289.16c-.138.01-.266 0-.34-.128-.075-.128-.043-.256.032-.384a1.07 1.07 0 0 1 .32-.298c.787-.565 1.672-.906 2.609-1.13.724-.148 1.46-.223 2.205-.244z"/>
                <path fill="#232F3E" d="M390.1 362.231v3.836c-.022.213-.118.309-.33.32-.576.01-1.14.01-1.716 0-.213 0-.309-.107-.33-.31-.01-.063-.01-.138-.01-.202v-7.373c.01-.33.095-.426.426-.426h1.534c.33 0 .426.096.426.426v3.73z"/>
                <path fill="#00A8E1" d="M348.884 362.21v-3.782c.01-.256.106-.352.362-.363.554-.01 1.108-.01 1.662 0 .245 0 .32.075.34.32.011.096.011.181.011.277v7.096c0 .117-.01.234-.02.352-.012.138-.118.234-.257.245-.063.01-.117.01-.18.01h-1.481c-.054 0-.096 0-.15-.01a.308.308 0 0 1-.287-.277c-.01-.086-.01-.17-.01-.256.01-1.183.01-2.397.01-3.612zM350.12 354.251c.17-.01.34.021.5.075.576.192.874.692.82 1.342a1.19 1.19 0 0 1-1.011 1.087c-.235.043-.48.043-.714 0-.607-.117-1.055-.565-1.012-1.332.064-.756.564-1.172 1.417-1.172z"/>
                <path fill="#232F3E" d="M388.917 354.251c.213-.021.426.021.629.107.415.16.703.543.724.99.085.97-.565 1.46-1.427 1.439a1.98 1.98 0 0 1-.352-.043c-.66-.16-1.001-.67-.937-1.406.053-.586.51-1.023 1.14-1.076.074-.01.149-.021.223-.01z"/>
                <path fill="#00A8E1" d="M340.905 361.336a4.853 4.853 0 0 0-.416-1.598c-.436-.916-1.107-1.587-2.13-1.822-1.172-.255-2.227 0-3.185.714a.853.853 0 0 1-.224.16c-.021-.01-.043-.021-.043-.032-.032-.107-.053-.213-.085-.32-.085-.266-.192-.362-.48-.362-.319 0-.65.01-.969 0-.245-.01-.468.021-.639.213 0 3.73 0 7.469.01 11.187.14.224.352.267.597.256.384-.01.767 0 1.15 0 .672 0 .672 0 .672-.66v-3.037c0-.075-.032-.16.043-.224a3.578 3.578 0 0 0 1.853.735c.938.096 1.79-.138 2.504-.777a3.942 3.942 0 0 0 1.108-1.78c.287-.873.308-1.758.234-2.653zm-2.546 2.206c-.075.33-.245.628-.49.852a1.516 1.516 0 0 1-.98.373 2.923 2.923 0 0 1-1.556-.34.302.302 0 0 1-.18-.3V362.2c0-.639.01-1.278 0-1.917a.324.324 0 0 1 .212-.33c.586-.278 1.194-.406 1.833-.278.447.064.83.352 1.012.767.16.341.255.714.277 1.087.064.682.064 1.364-.128 2.014z"/>
                <path fill="#232F3E" d="M417.967 362.998s0-.01 0 0c0-.01 0-.01 0 0zM417.978 361.57v.043c-.043-.042-.064-.106-.043-.16v-.085s0-.01.011-.01h-.01v-.107h.02c0-.01-.01-.01-.01-.021a3.695 3.695 0 0 0-.117-.597c-.394-1.406-1.278-2.333-2.717-2.695a5.234 5.234 0 0 0-2.034-.075c-1.438.213-2.472.98-2.972 2.344a5.7 5.7 0 0 0 .01 4.027c.426 1.183 1.279 1.929 2.504 2.238.65.16 1.331.202 2.002.106 2.238-.266 3.164-1.96 3.313-3.43h-.01v-.15c-.01-.063-.022-.117.042-.16v.022c0-.01.011-.032.022-.043v-1.225c0-.01-.01-.01-.01-.021zm-2.557 2.025c-.064.224-.16.426-.298.618a1.38 1.38 0 0 1-1.012.575 1.938 1.938 0 0 1-.607-.02 1.369 1.369 0 0 1-1.001-.8 3.05 3.05 0 0 1-.288-1.055c-.053-.628-.064-1.257.085-1.875.053-.245.16-.49.288-.703.234-.384.639-.629 1.086-.66.203-.022.405-.022.608.02.426.086.777.363.969.757.181.373.288.788.309 1.204.01.192.021.384.01.575.032.47-.02.927-.149 1.364zM399.304 354.326h-1.481c-.405 0-.48.074-.48.48v3.451c0 .075.033.15-.02.224-.097-.01-.15-.075-.224-.117-1.108-.65-2.27-.767-3.441-.224-.82.384-1.332 1.076-1.662 1.897-.32.788-.394 1.619-.373 2.46 0 .79.181 1.567.533 2.27.404.778.99 1.375 1.843 1.63 1.16.362 2.247.181 3.238-.554.075-.042.117-.117.213-.138.053.117.096.245.117.373.043.17.192.287.373.287h.256c.383 0 .756.01 1.129 0 .298 0 .383-.096.394-.405v-11.23c-.01-.33-.096-.404-.415-.404zm-1.95 7.841v1.94a.28.28 0 0 1-.17.298 2.626 2.626 0 0 1-1.673.32 1.459 1.459 0 0 1-1.14-.789 2.954 2.954 0 0 1-.298-1.076 5.508 5.508 0 0 1 .128-2.003c.053-.181.117-.352.213-.522.224-.416.65-.682 1.119-.714a3.216 3.216 0 0 1 1.64.288c.128.042.203.17.192.309-.021.66-.01 1.3-.01 1.95z"/>
                <path fill="#00A8E1" d="M369.806 362.903c.799.149 1.62.16 2.418.032a3.9 3.9 0 0 0 1.332-.427c.48-.277.83-.66.98-1.193.373-1.342-.203-2.696-1.598-3.196a4.766 4.766 0 0 0-2.12-.203c-1.683.192-2.78 1.119-3.281 2.728-.352 1.097-.309 2.216-.021 3.324.372 1.417 1.31 2.259 2.727 2.557.81.181 1.63.15 2.44.021a6.454 6.454 0 0 0 1.256-.34c.245-.096.373-.246.362-.523-.01-.255 0-.522 0-.788 0-.32-.127-.416-.436-.341-.31.075-.607.139-.916.202a5.277 5.277 0 0 1-2.003.022c-.906-.181-1.492-.96-1.438-1.918.096.01.202.021.298.043zm-.266-1.63c.032-.256.106-.501.202-.736.32-.777.99-1.044 1.673-1.001.191.01.383.053.564.128a.813.813 0 0 1 .49.67c.032.182.022.374-.032.555-.128.383-.437.543-.81.618-.223.053-.457.074-.692.053-.415 0-.841-.032-1.257-.096-.16-.021-.16-.021-.138-.192z"/>
                <path fill="#232F3E" d="M405.738 363.01c.618-.044 1.236-.16 1.79-.459.564-.277.958-.8 1.076-1.417a2.896 2.896 0 0 0-.011-1.172c-.224-.959-.831-1.556-1.747-1.865a4.714 4.714 0 0 0-1.587-.202c-1.79.043-3.154.948-3.708 2.738-.372 1.183-.32 2.387.043 3.57.373 1.214 1.225 1.95 2.44 2.28a5.779 5.779 0 0 0 1.597.16 6.772 6.772 0 0 0 2.29-.438c.31-.117.384-.223.384-.554v-.767c-.01-.309-.138-.415-.447-.34-.234.063-.458.117-.693.17-.713.17-1.459.202-2.183.074-.725-.138-1.215-.554-1.407-1.278a4.366 4.366 0 0 1-.117-.65c.054 0 .107 0 .15.021.702.128 1.416.181 2.13.128zm-2.226-1.706c.074-.415.17-.82.426-1.16.394-.523.937-.672 1.555-.608.053 0 .096.021.15.021.745.117.926.714.787 1.29-.106.425-.458.585-.852.66a2.722 2.722 0 0 1-.66.053c-.437-.01-.863-.043-1.29-.106-.095-.011-.138-.054-.116-.15z"/>
            </g>
        </g>
        <g>
            <g transform="translate(1266 109)">
                <use fill="#000" filter="url(#n)" xlink:href="#o"/>
                <use fill="#FFF" xlink:href="#o"/>
            </g>
            <g fill="#65459B">
                <path d="M1329.166 178.084h-6.902l-4.597 4.682h-4.597v-4.682h-8.43v-24.913l2.292-6.234h31.429v21.808l-9.195 9.34zm6.138-10.892v-17.138H1310v22.584h6.902v4.67l4.597-4.67h8.43l5.374-5.446z"/>
                <path fill-rule="nonzero" d="M1326.862 156.288v9.352h3.068v-9.352h-3.068zm-8.43 9.34h3.068v-9.34h-3.069v9.34z"/>
            </g>
        </g>
        <g>
            <g transform="translate(798 427)">
                <use fill="#000" filter="url(#p)" xlink:href="#q"/>
                <use fill="#FFF" xlink:href="#q"/>
            </g>
            <path fill="#3B5998" fill-rule="nonzero" d="M877.053 504.327c-.75 0-1.29.246-1.838.497v5.669c.525.05.826.05 1.324.05 1.8 0 2.046-.825 2.046-1.976v-2.707c0-.85-.282-1.533-1.532-1.533zm-11.95-.31c-1.248 0-1.533.686-1.533 1.536v.477h3.065v-.477c0-.85-.285-1.535-1.532-1.535zm-23.15 5.902c0 .671.318 1.02 1.017 1.02.75 0 1.194-.244 1.742-.496v-1.345h-1.64c-.777 0-1.118.145-1.118.82zm46.724-5.592c-1.25 0-1.683.683-1.683 1.533v3.102c0 .852.433 1.537 1.683 1.537 1.248 0 1.684-.685 1.684-1.537v-3.102c0-.85-.437-1.533-1.684-1.533zm-52.852 9.07h-3.676v-8.901h-1.836v-3.067h1.837v-1.842c0-2.503 1.036-3.99 3.983-3.99h2.453v3.067h-1.533c-1.147 0-1.223.43-1.223 1.23l-.005 1.534h2.778l-.325 3.067h-2.453v8.902zm12.563.023h-3.063l-.133-.775a7.02 7.02 0 0 1-3.47.9c-2.247 0-3.443-1.501-3.443-3.578 0-2.45 1.395-3.324 3.892-3.324h2.54v-.53c0-1.25-.143-1.617-2.065-1.617h-3.143l.307-3.067h3.435c4.219 0 5.143 1.333 5.143 4.71v7.28zm10.419-8.7c-1.907-.326-2.454-.398-3.372-.398-1.647 0-2.145.363-2.145 1.763v2.648c0 1.4.498 1.765 2.145 1.765.918 0 1.465-.073 3.372-.401v2.992c-1.67.374-2.758.472-3.678.472-3.946 0-5.515-2.076-5.515-5.075v-2.149c0-3.001 1.569-5.081 5.515-5.081.92 0 2.008.098 3.678.475v2.99zm11.503 3.766h-6.74v.247c0 1.4.498 1.765 2.145 1.765 1.48 0 2.385-.073 4.288-.401v2.992c-1.836.374-2.792.472-4.593.472-3.947 0-5.516-2.076-5.516-5.075v-2.457c0-2.624 1.164-4.773 5.209-4.773 4.044 0 5.207 2.124 5.207 4.773v2.457zm11.95.057c0 2.899-.828 5.013-5.846 5.013-1.812 0-2.874-.16-4.874-.467v-16.57l3.675-.614v5.796c.794-.295 1.822-.445 2.757-.445 3.675 0 4.288 1.648 4.288 4.297v2.99zm11.78.063c0 2.5-1.032 4.926-5.35 4.926-4.32 0-5.372-2.426-5.372-4.926v-2.415c0-2.502 1.051-4.928 5.372-4.928 4.318 0 5.35 2.426 5.35 4.928v2.415zm11.771 0c0 2.5-1.033 4.926-5.35 4.926-4.32 0-5.372-2.426-5.372-4.926v-2.415c0-2.502 1.052-4.928 5.372-4.928 4.317 0 5.35 2.426 5.35 4.928v2.415zm12.081 4.79h-3.983l-3.369-5.625v5.626h-3.676v-16.88l3.676-.613v10.866l3.369-5.341h3.983l-3.678 5.829 3.678 6.139zm-17.444-9.069c-1.248 0-1.681.683-1.681 1.533v3.102c0 .852.433 1.537 1.681 1.537 1.247 0 1.688-.685 1.688-1.537v-3.102c0-.85-.44-1.533-1.688-1.533zm19.542 6.97c.62 0 1.112.505 1.112 1.136 0 .64-.493 1.14-1.116 1.14-.62 0-1.124-.5-1.124-1.14 0-.63.503-1.136 1.124-1.136h.004zm-.004.177c-.5 0-.907.43-.907.959 0 .54.408.963.911.963.504.005.906-.424.906-.958 0-.535-.402-.964-.906-.964h-.004zm-.212 1.62h-.201v-1.267c.105-.015.206-.03.358-.03.191 0 .316.04.393.096.075.055.115.14.115.261 0 .168-.11.268-.246.309v.01c.11.02.185.12.211.307.03.197.06.272.08.313h-.211c-.03-.041-.06-.157-.086-.324-.03-.16-.111-.221-.272-.221h-.14v.546zm0-.702h.146c.166 0 .307-.06.307-.217 0-.111-.08-.222-.307-.222-.066 0-.111.005-.146.01v.43z"/>
        </g>
        <g>
            <g transform="translate(1157 320)">
                <use fill="#000" filter="url(#r)" xlink:href="#s"/>
                <use fill="#FFF" xlink:href="#s"/>
            </g>
            <path fill="#2EBD59" fill-rule="nonzero" d="M1220 363.063c-11.011 0-19.937 8.926-19.937 19.937 0 11.011 8.926 19.937 19.937 19.937 11.011 0 19.937-8.926 19.937-19.937 0-11.01-8.926-19.935-19.937-19.937zm9.143 28.754a1.242 1.242 0 0 1-1.708.413c-4.682-2.86-10.575-3.507-17.514-1.922a1.241 1.241 0 0 1-1.489-.935 1.24 1.24 0 0 1 .935-1.488c7.594-1.734 14.109-.987 19.364 2.223.585.36.771 1.124.412 1.709zm2.44-5.427c-.45.732-1.409.96-2.14.512-5.356-3.294-13.527-4.248-19.865-2.324a1.557 1.557 0 0 1-1.94-1.035 1.557 1.557 0 0 1 1.037-1.939c7.24-2.197 16.241-1.133 22.395 2.649.731.45.963 1.407.512 2.137zm.209-5.654c-6.427-3.816-17.027-4.167-23.162-2.306a1.863 1.863 0 1 1-1.082-3.568c7.043-2.137 18.75-1.725 26.147 2.666a1.865 1.865 0 0 1-1.903 3.208z"/>
        </g>
    </g>
</svg>
