<svg xmlns="http://www.w3.org/2000/svg" width="14" height="14" viewBox="0 0 14 14">
    <path fill="#1D262C" fill-rule="nonzero" d="M7 0a7 7 0 1 0 0 14A7 7 0 0 0 7 0zm-.725 12.957a5.955 5.955 0 0 1-3.518-1.714A5.96 5.96 0 0 1 1 7c0-1.443.506-2.808 1.434-3.892.024.286.083.594.067.813-.055.801-.134 1.302.335 1.978.183.263.227.64.316.945.087.298.435.454.674.638.483.37.946.8 1.458 1.127.338.215.55.322.45.735-.08.332-.102.536-.273.832-.053.09.198.67.28.753.253.253.504.484.779.711.426.353-.042.81-.245 1.317zm4.968-1.714a5.957 5.957 0 0 1-3.115 1.651c.166-.41.462-.776.737-.988.238-.184.538-.539.662-.82.125-.28.29-.523.457-.78.238-.367-.586-.92-.853-1.037-.6-.26-1.053-.612-1.587-.988-.38-.268-1.153.14-1.582-.048-.589-.257-1.073-.703-1.585-1.088-.528-.398-.502-.86-.502-1.447.413.015 1.001-.115 1.276.218.086.105.384.573.583.407.163-.136-.12-.682-.175-.81-.168-.394.384-.548.666-.815.37-.349 1.16-.896 1.098-1.146-.063-.25-.792-.958-1.22-.848-.064.017-.63.61-.738.702l.008-.58c.002-.122-.227-.247-.217-.326.027-.2.581-.56.719-.719-.097-.06-.426-.343-.526-.302-.241.101-.514.17-.755.27 0-.083-.01-.161-.023-.24.487-.214 1-.363 1.525-.442l.474.19.335.398.334.344.292.094.464-.437-.12-.312v-.28a5.935 5.935 0 0 1 2.542 1.002c-.136.012-.285.032-.453.054-.07-.042-.16-.06-.235-.089.22.473.45.939.682 1.405.249.498.8 1.033.898 1.558.114.62.035 1.183.097 1.912.06.702.792 1.5.792 1.5s.338.115.619.075a5.963 5.963 0 0 1-1.574 2.762z"/>
</svg>
