<?xml version="1.0" encoding="UTF-8"?>
<svg xmlns="http://www.w3.org/2000/svg" xmlns:xlink="http://www.w3.org/1999/xlink" width="122px" height="20px" viewBox="0 0 264 41.652138" version="1.1">
<defs>
<clipPath id="clip1">
  <path d="M 0 0 L 36 0 L 36 41.652344 L 0 41.652344 Z M 0 0 "/>
</clipPath>
<clipPath id="clip2">
  <path d="M 83 0 L 107 0 L 107 41.652344 L 83 41.652344 Z M 83 0 "/>
</clipPath>
<clipPath id="clip3">
  <path d="M 139 0 L 179 0 L 179 41.652344 L 139 41.652344 Z M 139 0 "/>
</clipPath>
<clipPath id="clip4">
  <path d="M 190 0 L 218 0 L 218 41.652344 L 190 41.652344 Z M 190 0 "/>
</clipPath>
<clipPath id="clip5">
  <path d="M 230 0 L 264 0 L 264 41.652344 L 230 41.652344 Z M 230 0 "/>
</clipPath>
<clipPath id="clip6">
  <path d="M 40 35 L 74 35 L 74 41.652344 L 40 41.652344 Z M 40 35 "/>
</clipPath>
</defs>
<g id="surface1">
<g clip-path="url(#clip1)" clip-rule="nonzero">
<path style=" stroke:none;fill-rule:nonzero;fill:#fff;" d="M 35.113281 0 L 26.773438 0 L 17.585938 19.164063 L 8.339844 0 L 0 0 L 13.695313 26.265625 L 13.695313 41.652344 L 21.417969 41.652344 L 21.417969 26.265625 Z M 35.113281 0 "/>
</g>
<path style=" stroke:none;fill-rule:nonzero;fill:rgb(100%,100%,100%);fill-opacity:1;" d="M 73.507813 16.796875 C 73.507813 7.101563 66.6875 0 57.386719 0 C 48.199219 0 40.929688 7.269531 40.929688 16.457031 C 40.929688 25.589844 48.3125 32.691406 57.835938 32.691406 C 64.148438 32.691406 70.632813 29.140625 72.71875 22.714844 L 64.542969 22.714844 C 62.628906 24.96875 60.769531 25.8125 57.667969 25.8125 C 53.214844 25.8125 49.945313 23.445313 49.042969 19.671875 L 73.222656 19.671875 C 73.449219 18.601563 73.507813 17.921875 73.507813 16.796875 Z M 66.121094 13.078125 L 48.820313 13.078125 C 50.003906 9.074219 53.046875 6.875 57.5 6.875 C 62.121094 6.875 65.164063 9.074219 66.121094 13.078125 Z M 66.121094 13.078125 "/>
<g clip-path="url(#clip2)" clip-rule="nonzero">
<path style=" stroke:none;fill-rule:nonzero;fill:rgb(100%,100%,100%);fill-opacity:1;" d="M 106.996094 7.382813 L 106.996094 0 L 83.828125 0 L 83.828125 7.382813 L 91.550781 7.382813 L 91.550781 41.652344 L 99.273438 41.652344 L 99.273438 7.382813 Z M 106.996094 7.382813 "/>
</g>
<g clip-path="url(#clip3)" clip-rule="nonzero">
<path style=" stroke:none;fill-rule:nonzero;fill:rgb(100%,100%,100%);fill-opacity:1;" d="M 178.253906 0 L 170.136719 0 L 158.921875 31.675781 L 147.707031 0 L 139.589844 0 L 155.820313 41.652344 L 162.132813 41.652344 Z M 178.253906 0 "/>
</g>
<g clip-path="url(#clip4)" clip-rule="nonzero">
<path style=" stroke:none;fill-rule:nonzero;fill:rgb(100%,100%,100%);fill-opacity:1;" d="M 217.152344 12.851563 C 217.152344 8.058594 215.125 4.113281 211.515625 1.917969 C 209.148438 0.507813 206.386719 0 200.863281 0 L 190.550781 0 L 190.550781 41.652344 L 198.273438 41.652344 L 198.273438 25.8125 L 200.753906 25.8125 C 206.671875 25.8125 209.375 25.363281 211.6875 23.953125 C 215.066406 21.867188 217.152344 17.640625 217.152344 12.851563 Z M 209.375 12.964844 C 209.375 16.570313 207.460938 18.429688 200.527344 18.429688 L 198.273438 18.429688 L 198.273438 7.382813 L 200.863281 7.382813 C 206.78125 7.382813 209.375 8.566406 209.375 12.964844 Z M 209.375 12.964844 "/>
</g>
<g clip-path="url(#clip5)" clip-rule="nonzero">
<path style=" stroke:none;fill-rule:nonzero;fill:rgb(100%,100%,100%);fill-opacity:1;" d="M 264 41.652344 L 264 0 L 256.277344 0 L 256.277344 30.324219 L 239.03125 0 L 230.238281 0 L 230.238281 41.652344 L 237.960938 41.652344 L 237.960938 11.386719 L 255.375 41.652344 Z M 264 41.652344 "/>
</g>
<g clip-path="url(#clip6)" clip-rule="nonzero">
<path style=" stroke:none;fill-rule:nonzero;fill:rgb(100%,100%,100%);fill-opacity:1;" d="M 40.929688 35.59375 L 73.507813 35.59375 L 73.507813 41.652344 L 40.929688 41.652344 Z M 40.929688 35.59375 "/>
</g>
</g>
</svg>
