<?xml version="1.0" encoding="UTF-8" standalone="no"?>
<svg
   xmlns:dc="http://purl.org/dc/elements/1.1/"
   xmlns:cc="http://creativecommons.org/ns#"
   xmlns:rdf="http://www.w3.org/1999/02/22-rdf-syntax-ns#"
   xmlns:svg="http://www.w3.org/2000/svg"
   xmlns="http://www.w3.org/2000/svg"
   viewBox="0 0 352 57.333332"
   height="20"
   width="122"
   xml:space="preserve"
   id="svg2"
   version="1.1"><metadata
     id="metadata8"><rdf:RDF><cc:Work
         rdf:about=""><dc:format>image/svg+xml</dc:format><dc:type
           rdf:resource="http://purl.org/dc/dcmitype/StillImage" /></cc:Work></rdf:RDF></metadata><defs
     id="defs6" /><g
     transform="matrix(1.3333333,0,0,-1.3333333,0,57.333333)"
     id="g10"><g
       transform="scale(0.1)"
       id="g12"><path
         id="path14"
         style="fill:#000000;fill-opacity:1;fill-rule:nonzero;stroke:none"
         d="M 351.129,426.52 H 267.73 L 175.859,234.879 83.3984,426.52 H 0 L 136.949,163.871 V 10 h 77.231 v 153.871 z" /><path
         id="path16"
         style="fill:#d22630;fill-opacity:1;fill-rule:nonzero;stroke:none"
         d="m 735.078,258.551 c 0,96.961 -68.199,167.969 -161.207,167.969 -91.883,0 -164.57,-72.692 -164.57,-164.571 0,-91.328 73.82,-162.3396 169.058,-162.3396 63.121,0 127.969,35.5116 148.832,99.7616 H 645.43 c -19.141,-22.543 -37.731,-30.973 -68.75,-30.973 -44.532,0 -77.231,23.672 -86.25,61.403 h 241.8 c 2.258,10.711 2.848,17.5 2.848,28.75 z m -73.867,37.187 H 488.199 c 11.84,40.043 42.27,62.032 86.801,62.032 46.211,0 76.641,-21.989 86.211,-62.032 z" /><path
         id="path18"
         style="fill:#000000;fill-opacity:1;fill-rule:nonzero;stroke:none"
         d="M 1069.96,352.691 V 426.52 H 838.281 v -73.829 h 77.231 V 10 h 77.218 v 342.691 z" /><path
         id="path20"
         style="fill:#000000;fill-opacity:1;fill-rule:nonzero;stroke:none"
         d="m 1782.54,426.52 h -81.17 L 1589.22,109.762 1477.07,426.52 H 1395.9 L 1558.2,10 h 63.13 z" /><path
         id="path22"
         style="fill:#000000;fill-opacity:1;fill-rule:nonzero;stroke:none"
         d="m 2171.52,298.012 c 0,47.929 -20.27,87.379 -56.36,109.328 -23.68,14.101 -51.29,19.18 -106.53,19.18 H 1905.51 V 10 h 77.22 v 158.398 h 24.81 c 59.18,0 86.21,4.493 109.34,18.59 33.78,20.864 54.64,63.133 54.64,111.024 z m -77.77,-1.141 c 0,-36.051 -19.14,-54.652 -88.48,-54.652 h -22.54 v 110.472 h 25.9 c 59.18,0 85.12,-11.832 85.12,-55.82 z" /><path
         id="path24"
         style="fill:#000000;fill-opacity:1;fill-rule:nonzero;stroke:none"
         d="m 2640,10 v 416.52 h -77.23 V 123.281 L 2390.31,426.52 h -87.93 V 10 h 77.23 V 312.648 L 2553.75,10 Z" /><path
         id="path26"
         style="fill:#d22630;fill-opacity:1;fill-rule:nonzero;stroke:none"
         d="m 409.301,9.98828 h 325.777 v 60.5898 H 409.301 Z" /></g></g></svg>