<svg xmlns="http://www.w3.org/2000/svg" width="342" height="157" viewBox="0 0 342 157">
    <defs>
        <linearGradient id="a" x1="0%" x2="99.999%" y1="49.999%" y2="49.999%">
            <stop offset="0%" stop-color="#C8C8C8"/>
            <stop offset="100%" stop-color="#E3E3E2"/>
        </linearGradient>
    </defs>
    <g fill="none" fill-rule="evenodd">
        <g transform="translate(174 2.63)">
            <ellipse cx="47.063" cy="132.337" fill="#F5F5F8" rx="37.55" ry="6.237"/>
            <path fill="#EE4540" d="M3.123 24.644l-1.712 1.779 1.827 10.481 1.736.997z"/>
            <path fill="#F39F85" d="M76.611 37.964s-8.022 15.92-12.917 16.829c-4.894.91-27.168-7.138-27.168-7.138v-3.174l22.274.533 5.284-10.916 12.527 3.866z"/>
            <path fill="#FFD5BE" d="M67.929 18.576c26.386 1.334 23.394 46.136 23.394 46.136H63.034s-4.932-16.375 4.895-46.136"/>
            <path fill="#36222C" d="M67.155 124.226s-.015 3.55-7.155 5.68c-1.465.436-.989.87-1.263 1.484h8.216l3.217-3.611 1 .858 2.32-2.275s-1.083-3.293-2.849-3.322l-3.486 1.186"/>
            <path fill="#F6B58E" d="M65.267 119.88l1.888 4.346a3.221 3.221 0 0 0 3.338-1.013l.148-.173-1.08-3.16h-4.294z"/>
            <path fill="#F39F85" d="M72.815 11.389l.897 8.296s-1.181 2.213-3.718 2.486c-2.537.274-2.735-1.553-2.735-1.553l-.584-5.404 3.65-1.381 2.49-2.444z"/>
            <path fill="#F6B58E" d="M66.525 16.85c-.783.062-1.52.011-1.936-.286-2.64-3.342-1.118-13.281-1.118-13.281l8.333.583.96 6.447A5.464 5.464 0 0 1 71.204 15c-1.353 1.046-2.973 1.719-4.679 1.85"/>
            <path fill="#36222C" d="M67.977 4.45s-2.66.799-5.569.6c-2.91-.2-1.422-3.538-1.422-3.538s2.217.736 5.912-.223C69.39.642 70.02.078 71.738.768c2.334.938 2.23 4.98 2.23 4.98l-.307 8.56-.466.595s-.643-5.547-.827-7.253c-.562-.725-1.08-.67-1.457-.432-.408.257-.604.751-.551 1.231l.944 8.751s-5.32 3.004-6.789 2.722c-1.468-.283-1.219-6.87-1.219-6.87s1.562-.885 2.983.396c1.41 1.27 2.777-.356 2.777-.356l-1.08-8.642z"/>
            <path fill="#F6B58E" d="M71.596 6.921c-.632.016-1.17.68-1.2 1.484-.03.804.458 1.443 1.09 1.427.633-.015 1.17-.68 1.201-1.483.03-.804-.457-1.443-1.09-1.428"/>
            <path fill="#36222C" d="M63.034 64.712s-13.156 7.371-19.76 16.283a6.541 6.541 0 0 0-.133 7.634 90256.141 90256.141 0 0 1 22.134 31.876h4.942s-6.528-23.651-14.425-37.6c-.759-5.154 7.242-18.193 7.242-18.193"/>
            <path fill="#F39F85" d="M36.525 44.48l-3.984.638-3.738 4.043s1.822.882 4.556-1.943c5.394-.38 3.93-1.349 3.93-1.349l-.764-1.388z"/>
            <path fill="#F6B58E" d="M80.846 42.652s-8.022 15.92-12.917 16.83c-4.895.909-26.295-9.538-26.295-9.538l-.874-3.426 22.274 3.184 5.285-10.916 12.527 3.866z"/>
            <path fill="#36222C" d="M32.203 126.146s-2.29 2.12-7.512 3.449c-1.15.292-2.389-.098-2.389 1.795h6.337l5.27-.91v.91h2.846s.793-4.648-.87-5.244h-3.682z"/>
            <path fill="#F6B58E" d="M32.763 122.807l-.56 3.339a3.224 3.224 0 0 0 3.487.117l.195-.117.827-3.339h-3.949zM32.333 48.254a.835.835 0 0 1 .531-.843l3.335-1.297a3.601 3.601 0 0 1 2.569-.016l3.296.647.353.59.233 3.035c-.64-.263-1.016-.426-1.016-.426l-2.115-.269s-4.548 3.07-6.019-.442c-.613 3.398-1.572 2.981-1.572 2.981l.405-3.96z"/>
            <path fill="#4E3440" d="M91.323 64.712s4.116 17.29-33.844 23.235c-2.64.414-4.75 2.375-5.406 4.961-3.255 12.84-15.24 31.235-15.24 31.235h-4.905l7.957-35.082a12.7 12.7 0 0 1 3.79-6.54l19.36-17.81h28.288z"/>
            <path fill="#FFEDE3" d="M30.29 95.985a8.99 8.99 0 0 1 5.07-4.041l62.712-19.691a4.944 4.944 0 0 1 6.197 3.227 4.928 4.928 0 0 1-.63 4.258 30.98 30.98 0 0 1-22.156 13.329l-49.488 5.531a1.747 1.747 0 0 1-1.704-2.613z"/>
            <path fill="#F4935D" d="M16.018 53.286h22.735v-1.055H16.018z"/>
            <path fill="#EE4540" d="M12.378 53.058h9.023v-1.364h-9.023a4.92 4.92 0 0 1-4.857-4.23L1.35 9.487 0 9.705l6.17 37.962c.421 3.067 3.092 5.391 6.208 5.391"/>
            <path fill="#36222C" d="M1.35 9.486l.919.71L8.077 44.96l-.815.91z"/>
        </g>
        <path fill="#F3A953" d="M204.665 27.066l6.33-.034s-.482-1.92-.301-3.396a1.88 1.88 0 0 1 .885-1.348c6.204-3.869 4.683-8.289 4.683-8.289s-.675-5.612-8.65-6.112c-8.503-.534-7.954 7-7.954 7s-.364 4.194 4.061 7.017c.634.404 1.036 1.085 1.13 1.83.24 1.867-.184 3.332-.184 3.332"/>
        <path fill="#CA3E47" d="M210.995 27.016l.013 2.262c.004.848-.547 1.544-1.225 1.548l-3.855.02c-.678.004-1.238-.686-1.242-1.534l-.013-2.262 6.322-.034z"/>
        <path fill="#4E3440" d="M209.384 30.828l-.43 1.036-2.397.013-.53-1.03z"/>
        <path fill="#FEDA70" d="M210.43 15.41c-.72-.358-1.299-.016-1.624.306a.953.953 0 0 0-.278.683l.007 1.378c.807.065 1.584-.143 2.071-.868.33-.492.276-1.22-.177-1.498m-3.744 1.32c.004-.217-.318-1.94-1.384-.978a.464.464 0 0 0-.155.4c.084.606.947 1.013 1.558 1.212a5.256 5.256 0 0 0-.02-.634m2.111 1.329c-.08 0-.17-.005-.258-.009l.049 8.96-.433.002-.049-8.994a7.373 7.373 0 0 1-.954-.166 11.24 11.24 0 0 0-.006.49l.042 2.964.079 5.71-.433.003-.13-9.292c-.547-.175-1.055-.417-1.4-.743-1.477-1.394 1.039-2.922 1.709-.966.15.44.159.97.148 1.483.283.082.658.168.994.224 0 0-.012-.827-.005-1.358.005-.3.095-.601.296-.824 1.113-1.23 3.485-.356 2.532 1.437-.41.772-1.358 1.072-2.18 1.079"/>
        <path fill="#F6A506" d="M199.506 6.39a.334.334 0 0 0-.003-.472l-3.214-3.17a.335.335 0 0 0-.47.474l3.213 3.17c.132.13.343.13.474-.002M213.615 6.314a.333.333 0 0 1-.002-.472l3.178-3.206a.336.336 0 0 1 .474-.002c.132.13.133.34.003.472l-3.179 3.206a.335.335 0 0 1-.474.002M207.566 5.177a.334.334 0 0 0 .333-.336l-.025-4.509a.335.335 0 0 0-.67.004l.025 4.508a.335.335 0 0 0 .337.333"/>
        <g transform="translate(51 32)">
            <g fill="#F4935D">
                <path d="M49.427 18.458a.74.74 0 0 1-.589-.291c-.058-.077-1.516-1.922-4.051-1.922-2.56 0-4.037 1.902-4.051 1.922a.74.74 0 0 1-1.036.14.737.737 0 0 1-.141-1.033c.077-.102 1.943-2.504 5.228-2.504 3.285 0 5.15 2.402 5.228 2.504a.737.737 0 0 1-.588 1.184"/>
                <path d="M51.455 16.614c-.32 0-.637-.145-.846-.419-.085-.11-2.18-2.761-5.822-2.761-3.679 0-5.8 2.733-5.822 2.761a1.063 1.063 0 0 1-1.487.203 1.06 1.06 0 0 1-.204-1.485c.112-.147 2.793-3.6 7.513-3.6s7.4 3.453 7.513 3.6a1.059 1.059 0 0 1-.845 1.7"/>
                <path d="M53.23 14.265c-.407 0-.807-.183-1.072-.53-.107-.14-2.759-3.497-7.371-3.497-4.658 0-7.345 3.46-7.371 3.496-.449.59-1.29.706-1.884.257a1.342 1.342 0 0 1-.257-1.88c.141-.187 3.535-4.557 9.512-4.557s9.37 4.37 9.512 4.556a1.342 1.342 0 0 1-1.07 2.155M42.755 19.75c0 1.12.91 2.028 2.032 2.028a2.03 2.03 0 1 0 0-4.057 2.03 2.03 0 0 0-2.032 2.028"/>
            </g>
            <path fill="#FFEDE3" d="M.247 76.37c.96-1.6 2.36-2.619 3.89-2.829l95.686-13.146c1.652-.227 3.13 1.374 3.3 3.576.11 1.419-.355 2.809-1.22 3.65-5.86 5.694-12.892 8.851-20.143 9.044l-80.612 2.14c-.622.016-1.135-.641-1.148-1.47-.005-.35.082-.692.247-.966z"/>
            <ellipse cx="83.362" cy="100.788" fill="#F5F5F8" rx="32.293" ry="5.987"/>
            <path fill="#36222C" d="M69.142 97.905s2.138 1.941 7.015 3.157c1.073.268 2.23-.09 2.23 1.643H72.47l-4.921-.832v.832H64.89s-.74-4.254.812-4.8h3.439z"/>
            <path fill="#F6B58E" d="M68.843 94.85l.299 3.055c-.97.658-2.243.7-3.256.107l-.183-.107-.552-3.056h3.692z"/>
            <path fill="#36222C" d="M94.37 97.905s2.138 1.941 7.014 3.157c1.074.268 2.231-.09 2.231 1.643h-5.918l-4.921-.832v.832h-2.658s-.74-4.254.813-4.8h3.438z"/>
            <path fill="#F6B58E" d="M93.107 94.85l1.262 3.055c-.97.658-2.243.7-3.256.107l-.183-.107-1.997-3.056h4.174z"/>
            <path fill="#F39F85" d="M16.26 14.947l-1.68 5.48-5.734-2.148 4.565-7.67z"/>
            <path fill="#F6B58E" d="M17.587 16.636c.663.257 1.311.414 1.738.29 3.047-1.95 4.013-10.25 4.013-10.25l-2.484-2.54-4.845.777L13.7 9.777c-.616 1.299-.515 2.835.272 4.14.928 1.192 2.172 2.158 3.615 2.719"/>
            <path fill="#36222C" d="M15.429 7.976c.562-.744 1.262-2.711 2.053-2.216.576.362 2.662 1.341 3.376 1.642 1.702.715 5.016 1.326 6.107-1.26.545-1.293-.24-2.936-.897-3.602-.643-.653-1.532-1.009-2.448-1.066-2.15-.134-5.244.265-6.151-.351-1.527-1.036-3.602-.759-4.175.666-.613 1.522-.781 4.127-.647 5.884a8.613 8.613 0 0 0 .764 2.935l2.018-2.632z"/>
            <path fill="#F6B58E" d="M13.624 7.437c.521-.175 1.204.187 1.527.809.322.62.162 1.266-.359 1.44-.52.176-1.203-.186-1.526-.807-.322-.621-.162-1.267.358-1.442"/>
            <path fill="#36222C" d="M33.108 49.676l26.713-.414a4.744 4.744 0 0 1 4.787 4.173l4.616 42.255h-4.003s-9.532-20.228-7.977-30.773c1.555-10.544-37.12-8.828-37.12-8.828l12.984-6.413z"/>
            <path fill="#F3754B" d="M9.02 17.575c-16.033 16.35 4.497 44.767 4.497 44.767l19.59-12.666c-7.416-13.033-7.87-13.841-18.26-31.363-1.237-2.085-4.13-2.469-5.828-.738"/>
            <path fill="#F6B58E" d="M45.788 40.46a.818.818 0 0 0-.581-.782l-3.348-1.015a3.52 3.52 0 0 0-2.504.177l-3.039 1.413-.426.066v2.975c.605-.305.959-.49.959-.49l1.915-.958s4.79 3.188 5.96-.344c.851 3.267 1.756 2.789 1.756 2.789l-.692-3.83z"/>
            <path fill="#F4935D" d="M10.468 20.907c-8.751 0-8.158 19.482-7.239 28.79.277 2.807 2.856 4.82 5.645 4.371 12.86-2.07 28.569-11.125 28.569-11.125l-1.124-2.726-22.802 4.49s8.19-23.8-3.05-23.8"/>
            <path fill="#4E3440" d="M13.517 62.342s4.287 9.46 22.32 9.46c18.035 0 30.348-6.413 30.348-6.413S71.55 79.016 89.46 95.69h4.284L75.63 58.171a9.238 9.238 0 0 0-8.78-5.117L24.302 55.37l-10.785 6.972z"/>
            <g fill="url(#a)" transform="translate(9.012 13.72)">
                <path d="M.316 3.597L6.18 5.178l.289-1.413L2.407.237z"/>
            </g>
            <g fill="#63C0C4">
                <path d="M53.12 50.638H32.143v-1.442h20.07l10.887-22.372 1.3.63z"/>
            </g>
        </g>
        <path stroke="#F4D2D2" stroke-linecap="round" stroke-linejoin="round" stroke-width="2" d="M1 31.215c23.182-2 34.773 9.984 34.773 35.954v60.128c0 14.314 11.22 25.918 25.062 25.918H265.814c13.842 0 25.062-11.604 25.062-25.918V92.05c0-14.313 11.221-25.917 25.062-25.917C329.78 66.132 341 54.528 341 40.215"/>
        <g transform="translate(137 149)">
            <ellipse cx="4" cy="4.008" fill="#FFB085" rx="4" ry="4.008"/>
            <path fill="#EE4540" d="M18 0l6 4.008-6 4.008z"/>
            <path fill="#F3A953" d="M34 0l6 4.008-6 4.008z"/>
            <path fill="#4E3440" d="M50 0l6 4.008-6 4.008z"/>
        </g>
    </g>
</svg>
