<svg xmlns="http://www.w3.org/2000/svg" width="24" height="24" viewBox="0 0 24 24">
    <g fill="#EE4540" fill-rule="nonzero">
        <path d="M6.984 22.85a12.017 12.017 0 0 1-6.107-6.4c-2.48-6.133.48-13.093 6.587-15.573 6.133-2.48 13.12.48 15.6 6.587 2.4 5.947-.32 12.747-6.16 15.387-.96.426-1.6-1.014-.667-1.467 5.067-2.293 7.414-8.187 5.334-13.333C19.437 2.77 13.384.21 8.077 2.344c-5.306 2.16-7.866 8.213-5.706 13.52.96 2.4 2.826 4.427 5.36 5.573l.24-1.28c.026-.133.213-.186.293-.053l1.973 3.413-3.946.48c-.134.027-.24-.16-.134-.266l.827-.88z"/>
        <path d="M15.677 8.104c0 .373-.4 1.12-.8 1.12-.053 0-.48-.16-1.226-.453-.774-.294-1.387-.454-1.84-.454-1.014 0-1.52.4-1.52 1.2 0 .534.453 1.014 1.36 1.414 1.573.693 2.4 1.066 2.506 1.12.907.586 1.36 1.386 1.36 2.4 0 .8-.213 1.466-.666 2-.454.533-1.067.826-1.867.906 0 .667.213 1.654-.8 1.654-.4 0-.667-.08-.8-.214-.24-.266-.133-1.04-.133-1.386-.667-.054-2.934-.534-2.934-1.36 0-.374.32-1.12.747-1.12.053 0 .48.133 1.227.426.773.294 1.36.427 1.84.427.986 0 1.466-.4 1.466-1.2 0-.587-.453-1.067-1.333-1.467-.827-.346-1.653-.72-2.507-1.066-.906-.56-1.333-1.334-1.333-2.32 0-1.76 1.12-2.774 2.8-3.014 0-.24-.027-.506-.027-.746 0-.614.294-.907.854-.907.666 0 .933.24.933.907 0 .24-.027.48-.027.746.64.054 2.72.56 2.72 1.387z"/>
    </g>
</svg>
