<svg xmlns="http://www.w3.org/2000/svg" width="47" height="51" viewBox="0 0 47 51">
    <g fill="none" fill-rule="evenodd" transform="translate(-17 -18)">
        <circle cx="40" cy="40" r="40"/>
        <path fill="#FFEDE3" d="M52.93 61.005c-9.618 9.09-25.445 8.56-30.849 4.043-5.404-4.515-8.206-16.82.722-23.416C31.73 35.034 53.47 27.589 60.07 35.24c6.6 7.651 2.478 16.674-7.14 25.764z"/>
        <g fill-rule="nonzero">
            <path fill="#EE4540" d="M26.996 36.866a22.163 22.163 0 0 0-5.284 9.082c-.96 3.239-1.444 7.436-.007 10.61 1.584 3.499 6.263 3.96 9.636 4.486 4.113.642 8.275.836 12.423.453 3.727-.343 8.278-.706 11.334-3.072 2.515-1.947 3.513-5.152 3.264-8.23-.29-3.568-2.097-6.66-4.213-9.477-1.268-1.688-2.567-3.347-3.806-5.056-1.164-1.608-2.432-3.062-4.222-4.005-3.557-1.874-7.74-1.708-11.633-1.385-1.27.105-1.884 1.178-1.848 2.162-2.123 1.152-4.068 2.799-5.644 4.432zm6.602-2.884c.248.105.543.154.89.119 2.71-.277 5.59-.585 8.26.125 3.086.821 4.528 3.305 6.384 5.652 2.995 3.789 8.524 9.824 4.924 14.945-1.733 2.466-5.59 2.805-8.337 3.189-3.423.477-6.926.569-10.373.353a46.141 46.141 0 0 1-4.962-.576c-1.547-.267-3.62-.432-4.97-1.278-2.5-1.565-1.863-6.415-1.344-8.821.732-3.392 2.39-6.49 4.605-9.162 1.46-1.762 3.186-3.148 4.923-4.546zM45.382 18.367c-1.46-.714-3.928-.197-5.476-.026a44.987 44.987 0 0 0-5.944 1.064c-.676.168-1.123.843-1.103 1.507a1.487 1.487 0 0 0-.436.151c-1.004.546-1.926 1.279-2.862 1.933-.64.446-1.102 1.407-.566 2.134 1.698 2.298 4.29 3.413 6.846 4.512.314.135.77.057.849-.342.234-1.167-.7-1.787-1.6-2.362-.993-.636-1.77-1.38-2.48-2.23a18.546 18.546 0 0 0 1.674-1.256c.01-.01.015-.019.025-.027.743 1.02 1.567 1.996 2.509 2.784.468.39 1.102.016.996-.575-.227-1.274-.709-2.542-1.269-3.753a35.512 35.512 0 0 1 3.066-.492c1.194-.133 2.71-.407 4.008-.317-.035 1.09-1.341 2.404-1.902 3.033-1.206 1.354.758 3.34 2.019 1.999.701-.747 1.404-1.526 1.934-2.403.414.112.83.222 1.236.282-.092.094-.18.183-.267.256-1.308 1.104-2.675 2.295-3.523 3.8-.539.954.682 1.81 1.48 1.13 1.064-.909 2.041-1.846 3.174-2.684.849-.626 2.205-1.361 2.53-2.432.574-1.89-1.914-2.701-3.752-3.14.043-1.03-.224-2.086-1.166-2.546z"/>
            <path fill="#4E3440" d="M36.01 54.249c.743.611 1.708.619 2.652.507.029.432.059.863.09 1.293.114 1.576 2.608 1.588 2.493 0-.038-.53-.067-1.06-.097-1.59 1.114-.092 2.352-.23 3.096-.898.982-.88.9-2.711.778-3.881-.27-2.57-2.047-3.769-4.162-4.585-.01-1.296.009-2.592.024-3.887.158.022.29.042.376.052.859.107 1.475.847 1.545 1.734.043.538.933.756 1.029.138.17-1.103.595-1.991-.154-3.047-.63-.885-1.719-1.018-2.753-1.093.001-.931-.081-1.868-.491-2.655-.174-.338-.62-.264-.811 0-.498.683-.693 1.58-.8 2.476-.73-.025-1.415.093-1.974.719-.919 1.027-1.293 2.756-1.37 4.083-.121 2.072 1.304 2.7 2.921 3.201a90.39 90.39 0 0 0 .109 5.318c-.269-.002-.474-.03-.55-.102-.275-.258-.165-1.693-.231-2.161-.22-1.56-2.977-1.21-2.803.376.158 1.429-.178 2.963 1.082 4.002zm5.535-6.163c.913.69 1.064 1.567 1.037 2.654-.029 1.119-.59 1.091-1.559 1.16a208.29 208.29 0 0 1-.122-4.21c.23.116.446.246.644.396zm-3.082-3.751a.983.983 0 0 1-.24-.128c-.307.053-.413-.055-.319-.326a2.888 2.888 0 0 1 .056-.633c.054-.405.249-1.809.662-2.105a76.422 76.422 0 0 0-.16 3.192z"/>
        </g>
    </g>
</svg>
