<svg xmlns="http://www.w3.org/2000/svg" width="52" height="55" viewBox="0 0 52 55">
    <g fill="none" fill-rule="evenodd" transform="translate(-14 -17)">
        <circle cx="40" cy="40" r="40"/>
        <path fill="#FFEDE3" d="M53.806 63.228c-10.668 10.1-28.22 9.51-34.214 4.493-5.994-5.018-9.102-18.689.8-26.02 9.902-7.33 34.014-15.602 41.334-7.1s2.748 18.526-7.92 28.627z"/>
        <g fill-rule="nonzero">
            <path fill="#4E3440" d="M28.156 50.21c-.689-.28-1.206.131-1.417.687-.022 0-.046-.005-.067-.004-.776.023-1.583.633-1.963 1.264-.92 1.535.173 3.606 1.757 4.21 1.67.637 3.658-.37 4.2-2.016.645-1.959-.795-3.441-2.51-4.14zm.2 3.633c-.282.433-.917.62-1.353.296-.448-.333-.568-1.033-.21-1.471.073-.089.205-.161.357-.231.174.101.396.16.674.155.54-.01.795.843.532 1.25z"/>
            <path fill="#EE4540" d="M63.633 40.421c-3.078-2.718-5.585-5.908-7.454-9.557-.26-.508-.97-.646-1.443-.378a370.664 370.664 0 0 0-6.21 3.624c.385-.65 4.508-7.288 4.912-8.375.696-1.876-6.761-5.023-8.986-5.916-1.368-.548-3.355-1.507-4.74-.473-.648.483-1.375 2.584-1.505 2.888-.016-.33-.464-4.008-1.375-4.632-1.428-.98-3.879-.482-5.495-.424-4.032.14-8.04.536-12.049.952-1.08.111-1.487 1.215-1.213 1.978-.66 9.592-1.66 40.149-.637 41.675 1.025 1.528 3.088 1.172 4.674 1.153l7.284-.079c.996-.011 2.216.104 3.39.076.022.003.041.011.065.016 1.707.28 25.882-.677 27.603-.643 1.493.029 2.77-.52 3.125-2.076.438-1.925.299-4.149.353-6.112.06-2.226-.348-4.452-.096-6.664.164-1.437-5.377-.527-7.274-.308a341.219 341.219 0 0 1 6.82-4.778c.62-.424.892-1.38.25-1.947zm-8.813-7.599a34.868 34.868 0 0 0 5.96 8.279C52.679 46.345 44.948 52.12 37.548 58.3c.45-2.722.698-5.477.864-8.23v-.008c3.176-3.094 5.185-7.618 7.397-11.363.337-.572.676-1.141 1.012-1.713a406.333 406.333 0 0 0 7.999-4.164zM41.157 20.99c.755-.14 8.253 4.103 9.764 4.297-.073.123-10.955 18.177-12.304 20.148.138-4.675.082-9.356-.05-14.027-.062-2.237-.146-4.47-.246-6.705.297-.467 1.951-3.551 2.836-3.713zm-21.03 39.175c-.455-.226.01-29.896-.351-39.39 2.664-.282 5.33-.56 8.003-.741 1.28-.088 7.182-.273 7.622-.16.024.056.673 18.083.569 23.43a145.066 145.066 0 0 1-.382 8.442 84.64 84.64 0 0 1-.372 3.776c-.14 1.136-.392 2.526-.604 3.655-.253 1.343-14.283 1.089-14.486.988zM61.241 48.92c-.024 1.4-.058 2.799-.095 4.196-.046 1.725.188 3.985-.28 5.658-.2.715.093.563-.674.654-.327.038-.726-.054-1.054-.077a177.52 177.52 0 0 0-7.31-.36c-3.338-.096-6.68-.145-10.019-.013-.222.01-.445.02-.669.032a287.658 287.658 0 0 1 12.525-9.756c2.548.128 5.054-.004 7.576-.334z"/>
        </g>
    </g>
</svg>
