<svg xmlns="http://www.w3.org/2000/svg" width="53" height="56" viewBox="0 0 53 56">
    <g fill="none" fill-rule="evenodd" transform="translate(-15 -18)">
        <circle cx="40" cy="40" r="40"/>
        <path fill="#FFEDE3" d="M55.617 65.228c-10.668 10.1-28.22 9.51-34.214 4.493-5.994-5.018-9.102-18.689.8-26.02 9.902-7.33 34.014-15.602 41.334-7.1s2.748 18.526-7.92 28.627z"/>
        <g fill-rule="nonzero">
            <path fill="#EE4540" d="M62.618 20.197c-2.872.131-5.63.252-8.275.363-7.597.318-14.26.556-19.989.711-4.914.134-9.141.207-12.68.221-.008-.233-.018-.465-.023-.698-.017-.703-1.082-.705-1.065 0 .005.234.006.469.011.703-.403 0-.807.004-1.21.005-2.003.003-2.006 3.203 0 3.2.411-.001.822-.01 1.234-.012-.013 3.964-.147 7.933-.125 11.894.018 3.309.006 6.621.024 9.933a5.654 5.654 0 0 0-1.404.387c-.465.203-.25.858.127 1 .406.153.84.24 1.287.29.013 1.394.034 2.788.069 4.181.018.723.573 1.303 1.283 1.318l13.73.3c-.279 2.144-.959 4.229-1.143 6.363l-.662.085c-2.271.297-4.523.946-6.791 1.187-.485.051-.49.837 0 .786 2.126-.225 4.326-.032 6.468-.105l1.87-.062c.149.023.303.016.454-.015 1.494-.049 2.987-.1 4.48-.169 1.646-.076 3.292-.137 4.939-.191.484.454 1.296.448 1.679-.056 2.228-.065 4.458-.113 6.687-.148 1.686-.026 1.689-2.742 0-2.694a252.35 252.35 0 0 0-6.56.274 107.07 107.07 0 0 0-.416-5.014l3.772.082c2.602.057 5.52.49 8.086-.09 2.163-.49 3.493-1.941 3.818-4.194.419-2.896.342-5.936.485-8.86.322-6.578.69-13.152 1.053-19.727m-41.327 15.14c-.17-3.97-.496-7.936-.7-11.905 4.373-.035 8.743-.141 13.11-.305 6.57-.246 13.136-.622 19.697-1.083 2.243-.158 4.485-.326 6.727-.502a6918.198 6918.198 0 0 1-1.245 23.776c-6.791-.487-13.636-.57-20.437-.638-3.487-.034-6.978.062-10.463.16a160.33 160.33 0 0 0-5.558.236c-.225.013-.453.023-.682.03m21.834 13.032c-1.5.096-3 .2-4.5.322-1.159.094-2.317.218-3.474.355-.044-1.027-.235-2.066-.353-3.071a21.333 21.333 0 0 1-.13-2.984l4.777.106 4.585.1m13.24-2.818c-.82.562-2.091.491-3.02.484-10.928-.105-21.862-.516-32.788-.792-.027-.95-.055-1.9-.091-2.85.315-.007.627-.012.928-.004 1.744.042 3.487.052 5.231.073 3.598.043 7.193.157 10.79.218 6.661.112 13.306.493 19.96.74"/>
            <path fill="#4E3440" d="M41.49 49.814a1.485 1.485 0 0 1-.06-.02c-.271-.082-.687.049-.808.339-.018.043-.033.085-.06.123a.485.485 0 0 0 0 .496c.027.038.042.08.06.123.12.29.533.422.807.339l.062-.02c.662-.201.663-1.18 0-1.38zM29.047 39.304a.516.516 0 0 0-.507.519.532.532 0 0 0 .148.366.52.52 0 0 0 .359.152c.13 0 .266-.058.358-.152a.53.53 0 0 0 0-.734.52.52 0 0 0-.358-.151z"/>
            <path fill="#EE4540" d="M24.802 38.654c.044-.002.09-.002.134-.003-.022.723-.045 1.446-.07 2.17-.007.201.166.344.348.356 1.801.123 3.602.26 5.404.366.513.03 1.048.1 1.533-.115.524-.233.806-.744.908-1.301.15-.816.072-1.7.088-2.527l.052-2.7c.036-1.866.078-3.731.125-5.598a.327.327 0 0 0-.319-.326c-2.543.006-5.087.047-7.629.123-.438.013-.48.646-.129.756-.141 2.823-.215 5.646-.3 8.47l-.146.01c-.2.008-.2.328 0 .32zm7 2.195c-.539.164-1.216-.015-1.763-.053-1.488-.104-2.976-.205-4.465-.308.021-.608.04-1.217.055-1.825.452.021.907.061 1.353.069.865.015 1.729.015 2.593.02.732.003 1.464-.007 2.196-.014.232-.002.739-.009.77-.01l-.01.371c-.022.62-.017 1.534-.728 1.75zm-6.278-10.983c2.385-.107 4.772-.183 7.159-.23-.028 2.742-.041 5.487-.115 8.229-.033-.002-.565.01-.797.017-.732.022-1.464.043-2.196.08-.864.044-1.729.086-2.593.149-.446.032-.896.098-1.344.15.062-2.8.05-5.593-.114-8.395z"/>
            <path fill="#4E3440" d="M46.558 35.944c.217 0 .444.098.598.257a.912.912 0 0 1 .248.622c-.01.228-.082.464-.248.623a.864.864 0 0 1-.598.257.857.857 0 0 1-.598-.257.913.913 0 0 1-.248-.623c.01-.227.081-.463.248-.622a.864.864 0 0 1 .598-.257z"/>
            <path fill="#4E3440" d="M56.3 35.235c-.14-.004-.28-.004-.42-.005.052 1.231.105 2.463.162 3.694.019.407-.336.708-.699.727l-10.56.546c-2.12.11-5.542.89-7.012-1.28-.788-1.166-.66-2.685-.68-4.038-.024-1.804-.083-3.608-.128-5.412-.09-3.608-.175-7.216-.288-10.823a.64.64 0 0 1 .619-.644 845.07 845.07 0 0 1 17.675.18c.877.017.962 1.304.259 1.535.241 4.952.42 9.907.625 14.862.15.007.298.016.447.02.394.014.395.651 0 .638zm-17.68 2.598c.498 1.056 1.67 1.159 2.673 1.117 1.494-.062 2.988-.172 4.48-.25l8.84-.464c-.044-.993-.082-1.986-.114-2.977-1.047.047-2.1.133-3.136.152-2.041.037-4.082.044-6.123.06-1.7.013-3.4-.003-5.1-.013-.528-.003-1.762-.015-1.85-.02l.004.118c.028.756-.002 1.581.326 2.277zm16.044-18.09a844.534 844.534 0 0 0-16.739-.444c.053 3.052.123 6.103.193 9.154l.12 5.265c.093-.004 1.318.017 1.835.029 1.723.041 3.445.078 5.167.149 2.01.082 4.018.16 6.026.278 1.067.063 2.14.196 3.21.298-.136-4.912-.103-9.81.188-14.729z"/>
        </g>
    </g>
</svg>
