<svg xmlns="http://www.w3.org/2000/svg" width="59" height="66" viewBox="0 0 59 66">
    <g fill="none" fill-rule="evenodd" transform="translate(-21 -20)">
        <circle cx="50" cy="50" r="50"/>
        <path fill="#FFEDE3" d="M66.163 76.256c-12.023 11.364-31.806 10.7-38.562 5.055-6.755-5.645-10.257-21.025.902-29.271 11.16-8.247 38.336-17.553 46.585-7.989 8.25 9.565 3.098 20.842-8.925 32.205z"/>
        <g fill-rule="nonzero">
            <path fill="#EE4540" d="M50.005 20.17c-1.633-.668-2.729.756-2.679 2.173-2.622.417-5.233 1.077-7.798 1.646-3.861.852-7.721 1.713-11.584 2.56-.84.184-1.407 1.042-1.423 1.859-.117 5.639-.23 11.28-.346 16.92-.1 4.873-.722 9.978 1.195 14.598 1.718 4.146 5.348 7.603 8.536 10.683 3.16 3.049 6.702 5.75 10.664 7.69 1.724.843 3.508 1.793 5.382.802 2.143-1.133 4.12-3.057 6.039-4.535 3.99-3.071 7.779-6.342 10.966-10.258 2.993-3.677 4.481-7.24 4.724-11.963.265-5.156-.22-10.308-.351-15.46a77.473 77.473 0 0 1-.019-3.703c.023-1.094.268-2.406-.354-3.406-1.108-1.783-4.46-2.486-6.316-3.243-5.498-2.241-11.14-4.112-16.636-6.363zm20.249 11.374c.397.675.059 2.307.094 3.098.192 4.334.737 8.644 1.004 12.974.12 1.926.193 3.865.125 5.793-.1 2.762-1.16 4.771-2.944 6.832-2.793 3.227-6.03 5.96-9.327 8.656a164.859 164.859 0 0 1-4.982 3.897c-.804.606-1.61 1.209-2.415 1.813-1.346 1.007-2.137 1.076-3.652.315-3.358-1.691-6.364-3.932-9.086-6.508-2.757-2.608-6.056-5.639-7.788-9.044-2.224-4.373-1.362-9.742-1.255-14.467l.338-15.037c3.333-.953 6.668-1.9 10.003-2.851 2.81-.802 5.717-1.53 8.468-2.571 4.1 1.551 8.26 2.97 12.46 4.228 1.965.588 3.929 1.188 5.876 1.826.567.186 2.806.583 3.08 1.046z"/>
            <path fill="#4E3440" d="M59.353 40.21c-2.321 2.682-4.245 5.743-6.451 8.522a255.984 255.984 0 0 1-5.483 6.668c-1.346-2.314-2.716-4.66-4.376-6.72-.63-.78-2.09.062-1.718.993 1.255 3.147 3.03 6.133 4.495 9.195.427.892 1.82 1.01 2.463.317 2.51-2.718 4.936-5.51 7.23-8.413 2.183-2.759 4.62-5.572 6.34-8.642.848-1.514-1.282-3.328-2.5-1.92z"/>
        </g>
    </g>
</svg>
