<svg xmlns="http://www.w3.org/2000/svg" width="47" height="49" viewBox="0 0 47 49">
    <g fill="none" fill-rule="evenodd" transform="translate(-17 -20)">
        <circle cx="40" cy="40" r="40"/>
        <path fill="#FFEDE3" d="M52.93 61.005c-9.618 9.09-25.445 8.56-30.849 4.043-5.404-4.515-8.206-16.82.722-23.416C31.73 35.034 53.47 27.589 60.07 35.24c6.6 7.651 2.478 16.674-7.14 25.764z"/>
        <path fill="#EE4540" fill-rule="nonzero" d="M45.44 59.201c7.714-1.813 14.069-8.63 15.166-16.488.868-6.22-1.273-12.538-5.41-17.01-.064-.28-.308-.51-.604-.623-2.414-2.394-5.432-4.186-8.885-5.034-.477-.116-.88-.004-1.183.232-6.456-.51-13.244.655-18.135 4.804-.251.098-.462.274-.56.498a17.555 17.555 0 0 0-2.614 3.041c-4.578 6.74-4.652 16.037.378 22.51 5.03 6.474 13.768 9.969 21.846 8.07zm-16.931-6.468c2.053-1.691 4.191-3.448 5.967-5.4 2.82 2.152 6.5 3.07 9.838 1.45a9.507 9.507 0 0 0 2.17-1.476c1.748 1.928 3.855 3.666 5.887 5.34a17.398 17.398 0 0 1-5.613 3.461c-6.158 2.314-13.196.66-18.249-3.375zm4.506-14.018c.51-3.08 2.734-5.15 5.427-6.18.236.376.632.653 1.199.677 4.04.17 8.535 3.33 7.576 7.784-.722 3.349-3.798 6.464-7.432 5.864-3.682-.608-7.42-4.223-6.77-8.145zm20.874 12.363c-1.716-2.09-3.632-4.103-5.545-5.974 1.179-1.851 1.81-4.056 1.62-6.2-.162-1.838-.941-3.415-2.087-4.706.036-.029.073-.062.11-.098 1.93-1.872 3.88-3.896 5.633-5.998 2.78 3.195 4.417 7.404 4.472 11.788.051 4.133-1.553 8.1-4.203 11.188zm-9.955-29.43c.04.516.351.995 1.015 1.152a16.357 16.357 0 0 1 7.077 3.692c-2.119 1.746-4.299 3.566-6.04 5.61a1.633 1.633 0 0 0-.202.296c-1.836-1.222-4.041-1.977-6.143-2.21-.569-.063-.975.177-1.209.545-1.204.214-2.374.702-3.425 1.38l-.009-.012c-1.915-2.246-4.36-4.225-6.67-6.13 4.256-3.345 10.032-4.497 15.606-4.324zm-20.036 9.77a15.892 15.892 0 0 1 2.868-4.04c1.856 2.305 3.975 4.526 6.078 6.572a10.2 10.2 0 0 0-.9 1.147c-2.235 3.335-1.878 7.251.467 10.23-1.906 1.876-3.809 3.892-5.504 5.977-2.67-2.65-4.515-5.973-4.88-9.753-.331-3.443.322-7.038 1.871-10.134z"/>
    </g>
</svg>
