<svg xmlns="http://www.w3.org/2000/svg" width="61" height="70" viewBox="0 0 61 70">
    <g fill="none" fill-rule="evenodd" transform="translate(-19 -20)">
        <circle cx="50" cy="50" r="50"/>
        <path fill="#FFEDE3" d="M34.544 81.24c11.646 11.044 30.808 10.398 37.352 4.912 6.543-5.486 9.936-20.435-.874-28.45s-37.133-17.06-45.124-7.765c-7.99 9.297-3 20.258 8.646 31.303z"/>
        <g fill-rule="nonzero">
            <path fill="#553C48" d="M76.067 64.741a1.794 1.794 0 0 1-1.816-1.807c-.072-3.398-9.295-3.76-13.289-3.904-1.234-.072-2.251-.072-2.905-.144-.944-.145-3.776-.579-4.575-2.82-1.016-2.602 1.307-5.277 3.776-8.168 1.308-1.518 3.05-3.615 3.123-4.554-.726-.073-2.469.289-3.558.506-3.268.722-8.134 1.734-9.44-2.314-1.308-3.976 1.887-9.18 3.34-11.205 2.396-3.397 6.318-7.445 9.44-7.59 1.017 0 1.816.723 1.888 1.735.073 1.012-.726 1.807-1.743 1.88-1.016.072-3.994 2.24-6.68 6-2.252 3.253-3.414 6.433-2.905 8.024.29.94 3.268.289 5.228-.145 2.687-.578 5.302-1.157 6.9.29.58.505 1.234 1.445 1.088 3.108-.217 2.096-2.033 4.265-3.994 6.578-1.089 1.301-3.122 3.687-3.122 4.554.145.072.508.362 1.743.506.435.073 1.452.073 2.541.145 5.81.217 16.63.578 16.703 7.518.072 1.012-.727 1.807-1.743 1.807zM43.243 77.175c-.944 0-1.743-.723-1.815-1.59-.29-2.892 1.525-5.133 2.977-6.94.436-.506.871-1.085 1.09-1.518 2.178-3.398 2.904-6.29 2.396-9.181-.29-1.59-1.017-2.602-2.252-3.036-1.888-.65-4.938.144-6.68 1.807l-3.414 3.036.363-4.626c0-.362.073-.796.146-1.302.653-7.228.145-9.253-.436-9.686 0 0-.363 0-1.162.506-1.234.795-3.703 3.759-5.81 7.735-2.105 4.048-2.977 7.662-2.396 9.542.29.94-.218 1.952-1.162 2.24-.944.29-1.96-.216-2.25-1.156-1.962-6.361 5.518-18.94 9.803-21.47 2.396-1.445 3.994-1.012 4.938-.433 2.541 1.59 2.687 5.855 2.324 10.77 2.178-.867 4.72-1.228 6.971-.433 2.542.867 4.212 2.964 4.648 5.855.871 4.988-1.235 9.109-2.905 11.711-.363.578-.872 1.157-1.307 1.807-1.162 1.446-2.324 2.964-2.179 4.338.073 1.012-.653 1.88-1.598 1.952-.145.072-.217.072-.29.072z"/>
            <path fill="#EE4540" d="M49.343 79.344c-3.413 0-6.826-.651-10.021-2.025-6.464-2.747-15.25-9.397-18.809-18.867-2.324-6.217-1.96-12.795 1.017-19.012 7.19-14.747 21.495-22.193 35.656-18.506.726.217 1.234.795 1.307 1.446 9.295 1.518 13.58 4.77 16.121 7.518 4.212 4.554 6.028 10.843 5.156 18.795-1.162 11.566-7.044 21.253-16.194 26.602-4.502 2.675-9.44 4.049-14.233 4.049zm-6.971-54.651c-7.262 2.313-13.58 7.952-17.574 16.265-2.615 5.35-2.905 10.771-.872 16.12 3.123 8.458 11.038 14.386 16.775 16.844 6.609 2.82 14.306 2.169 21.06-1.735 8.133-4.771 13.434-13.446 14.451-23.856.726-6.867-.726-12.216-4.212-15.975-6.536-7.012-19.317-7.446-28.394-7.157-.436 0-.944-.145-1.234-.506z"/>
        </g>
    </g>
</svg>
