<svg xmlns="http://www.w3.org/2000/svg" width="47" height="55" viewBox="0 0 47 55">
    <g fill="none" fill-rule="evenodd" transform="translate(-17 -14)">
        <circle cx="40" cy="40" r="40"/>
        <path fill="#FFEDE3" d="M52.93 61.005c-9.618 9.09-25.445 8.56-30.849 4.043-5.404-4.515-8.206-16.82.722-23.416C31.73 35.034 53.47 27.589 60.07 35.24c6.6 7.651 2.478 16.674-7.14 25.764z"/>
        <path fill="#EE4540" fill-rule="nonzero" d="M41.704 17.651c-1.532 2.184-3.472 4.67-5.168 6.727-3.784 4.585-6.937 9.171-10.668 13.8a4258.34 4258.34 0 0 1-2.623 3.25c-.923 1.14-.357 2.826 1.205 2.9 1.636.078 8.84.47 9.072.485-.12.598-2.175 16.82-2.617 20.483-.176 1.454 2.017 2.295 2.936 1.213a432.936 432.936 0 0 0 11.41-14c3.7-4.745 7.247-9.673 11.174-14.234.555-.646.517-1.638-.273-2.101-.573-.335-1.409-.218-2.046-.21-1.385.02-8.968.26-9.19.267.029-.245.9-6.017 1.264-8.694.568-4.165 1.155-8.336 1.525-12.52.19-2.125-3.617-.763-6.001 2.634zm6.53 21.4c1.42-.093 2.838-.187 4.257-.275-3.227 3.77-6.5 7.493-9.639 11.344-2.614 3.206-5.198 6.435-7.826 9.63l1.135-9.234.42-3.41c.143-1.18.57-2.609.462-3.79-.088-.996-.707-1.566-1.646-1.78-2.374-.543-4.982-.587-7.525-.588 5.435-7.087 10.825-14.212 15.894-21.567.009-.013.018-.023.026-.036-.258 2.206-.517 4.412-.785 6.616-.307 2.538-.59 5.077-.906 7.61-.104.837-.734 4.732-.183 5.29.598.608 1.5.47 2.272.436 1.348-.06 2.697-.158 4.045-.246z"/>
    </g>
</svg>
