<svg xmlns="http://www.w3.org/2000/svg" width="56" height="51" viewBox="0 0 56 51">
    <g fill="none" fill-rule="evenodd" transform="translate(-11 -15)">
        <circle cx="40" cy="40" r="40"/>
        <path fill="#FFEDE3" d="M20.088 59.226c7.695 7.28 20.355 6.854 24.679 3.238 4.323-3.616 6.565-13.469-.577-18.751-7.142-5.283-24.535-11.245-29.814-5.118-5.28 6.127-1.983 13.352 5.712 20.631z"/>
        <g fill-rule="nonzero">
            <path fill="#EE4540" d="M16.31 58.035c-1.513 1.595-3.688 4.935-1.735 7.04 2.006 2.158 6.686.01 8.751-1.104 3.153-1.703 5.812-4.226 8.372-6.713 3.135-3.044 6.26-6.1 9.392-9.144l5.485-5.329c1.384-1.344 2.945-2.738 3.628-4.611 1.344-3.68-1.34-6.843-4.511-8.238-1.886-.828-3.121.633-3.048 2.015-1.288.654-2.497 1.566-3.614 2.471-.47-.125-.886-.013-1.1.614-.04.117-.058.231-.066.347a.5.5 0 0 0-.033.027c-2.648 2.186-4.956 4.813-7.204 7.408-2.289 2.641-4.397 5.436-6.748 8.024-2.358 2.598-5.171 4.663-7.57 7.193zm31.294-21.902c.432 1.26-1.029 2.585-2.004 3.54a650.656 650.656 0 0 0-4.441-3.812c.893-.727 4.734-4.705 6.445.272zm-14.38 8.116a99.844 99.844 0 0 1 5.879-6.544c.231.254 2.752 3.155 3.68 4.466.042.063.086.116.131.17-1.693 1.689-3.386 3.375-5.08 5.061-2.492 2.485-4.99 4.965-7.486 7.447-2.072 2.059-4.15 4.163-6.558 5.818-1.186.816-2.446 1.54-3.796 2.03-.953.35-4.088 1.468-3.566-.443.748-2.74 3.916-4.445 5.898-6.191 4.012-3.524 7.501-7.692 10.897-11.814z"/>
            <path fill="#4E3440" d="M33.87 28.295c1.519 1.681 4.156-1.002 2.463-2.475a64.53 64.53 0 0 0-3.66-2.956c-.968-.724-2.384-2.191-3.682-1.723-.394.143-.629.444-.656.865-.08 1.33 1.528 2.236 2.387 3.05a59.28 59.28 0 0 1 3.148 3.24zM47.087 23.263c-.31-1.497-.42-3.048-.605-4.564-.147-1.193-.171-2.372-.803-3.424-.21-.35-.769-.383-.971 0-1.203 2.284-.584 5.486-.958 7.988-.433 2.887 3.906 2.739 3.337 0zM54.401 29.666c.679-1.362 1.678-2.585 2.577-3.773.717-.95 1.879-2.067 2.118-3.311.058-.303-.132-.7-.458-.664-1.187.127-2.207 1.238-3.101 2.044-1.141 1.031-2.176 2.276-3.348 3.247-2.26 1.872 1.018 4.855 2.212 2.457zM66.331 36.365c-1.403-.601-2.997-.673-4.497-.845-1.682-.19-3.36-.438-5.042-.626-2.61-.29-2.615 4.587 0 4.297 1.682-.187 3.36-.434 5.042-.628 1.504-.17 3.09-.24 4.497-.846.625-.27.626-1.081 0-1.352zM51.553 47.93c1.651.919 3.207 1.97 4.868 2.874 1.199.653 2.659 1.786 4.07 1.205.202-.083.33-.332.325-.527-.032-1.37-1.815-2.164-2.835-2.966-1.393-1.094-2.807-2.224-3.981-3.522-1.807-1.995-5.1 1.466-2.447 2.937z"/>
        </g>
    </g>
</svg>
