<svg xmlns="http://www.w3.org/2000/svg" width="72" height="66" viewBox="0 0 72 66">
    <g fill="none" fill-rule="evenodd" transform="translate(-9 -20)">
        <circle cx="50" cy="50" r="50"/>
        <path fill="#FFEDE3" d="M53.864 49.013C41.84 37.65 22.057 38.315 15.302 43.96c-6.755 5.644-10.258 21.024.902 29.271 11.16 8.247 38.336 17.553 46.585 7.989 8.25-9.565 3.098-20.843-8.925-32.206z"/>
        <g fill-rule="nonzero">
            <path fill="#EE4540" d="M69.483 28.944c-7.014-4.877-15.642-6.68-23.872-8.363-1.706-.349-2.808 1.117-2.783 2.436a29.347 29.347 0 0 0-6.93 1.94c-5.78 2.409-10.638 6.662-13.704 12.122-6.17 10.993-4.695 25.503 4.64 34.279 8.367 7.868 21.277 10.56 32.207 7.164C65.34 76.564 71.02 72.821 74.9 67.47c4.19-5.78 6.39-13.634 5.707-20.737-.716-7.484-5.03-13.556-11.123-17.788zm4.856 31.49c-2.458 5.594-6.764 9.844-12.233 12.532-9.057 4.454-20.303 3.715-28.775-1.723-9.378-6.017-12.796-17.455-9.458-27.892 1.927-6.02 6.073-10.719 11.39-14.052 2.56-1.605 5.36-2.773 8.261-3.605.723-.207 1.48-.41 2.255-.592 11.138 2.04 24.566 5.017 29.578 16.392 2.618 5.943 1.525 13.152-1.018 18.94z"/>
            <path fill="#4E3440" d="M44.48 64.435c1.404-2.91 6.547-4.112 8.26-.812.775 1.493-1.26 3.281-2.442 1.878-1.497-1.779-3.112-.438-4.928.09-.702.205-1.175-.565-.89-1.156zm13.504-6.707c1.733 1.116.096 3.902-1.618 2.757-5.057-3.375-10.265-2.513-15.62-.427-.596.23-.877-.568-.56-.956C44.5 53.82 52.69 54.32 57.984 57.728zm3.413-6.322c1.772 1.056.136 3.847-1.618 2.757a21.949 21.949 0 0 0-11.791-3.32c-2.125.014-4.29.268-6.354.771-1.87.46-4.303.904-5.964 1.874-.354.208-.628-.302-.314-.533 1.095-.803 1.863-1.741 3.048-2.445.922-.55 1.879-.98 2.887-1.344 2.167-.789 4.393-1.185 6.696-1.25a24.901 24.901 0 0 1 13.41 3.49zm5.341-6.586c2.26 1.406.006 5.034-2.052 3.5-4.855-3.616-10.031-5.532-16.12-5.605-3.209-.038-6.43.478-9.494 1.428-1.308.407-2.593.903-3.876 1.38-1.474.546-2.995 1.543-4.56 1.754-.379.05-.79-.31-.541-.701 1.622-2.536 5.455-4.285 8.158-5.39 3.19-1.3 6.498-1.952 9.947-2.02 6.957-.134 12.706 2.032 18.538 5.654z"/>
        </g>
    </g>
</svg>
