<svg xmlns="http://www.w3.org/2000/svg" width="24" height="24" viewBox="0 0 24 24">
    <g fill="#EE4540" fill-rule="nonzero">
        <path d="M12 3.6a8.4 8.4 0 1 0 8.4 8.4A8.41 8.41 0 0 0 12 3.6zm0 1.2c.702 0 1.59 1.369 2.064 3.71a19.372 19.372 0 0 0-4.128 0C10.41 6.17 11.298 4.8 12 4.8zm2.257 4.943c.093.749.14 1.503.143 2.257-.002.755-.05 1.508-.143 2.257-.749.093-1.502.14-2.257.143a18.738 18.738 0 0 1-2.257-.143 17.878 17.878 0 0 1 0-4.514c1.499-.19 3.015-.19 4.514 0zM9.874 5.121a10.8 10.8 0 0 0-1.189 3.564 10.799 10.799 0 0 0-3.564 1.19A7.23 7.23 0 0 1 9.874 5.12zM4.8 12c0-.702 1.369-1.59 3.71-2.064a19.372 19.372 0 0 0 0 4.128C6.17 13.59 4.8 12.702 4.8 12zm.321 2.126a10.799 10.799 0 0 0 3.564 1.189 10.8 10.8 0 0 0 1.19 3.564 7.23 7.23 0 0 1-4.754-4.753zM12 19.2c-.702 0-1.59-1.369-2.064-3.71.686.072 1.375.109 2.064.11.69-.001 1.378-.038 2.064-.11C13.59 17.83 12.702 19.2 12 19.2zm2.126-.32a10.8 10.8 0 0 0 1.189-3.565 10.799 10.799 0 0 0 3.564-1.19 7.23 7.23 0 0 1-4.753 4.754zM19.2 12c0 .702-1.369 1.59-3.71 2.064.072-.686.109-1.375.11-2.064a19.924 19.924 0 0 0-.11-2.064c2.341.474 3.71 1.362 3.71 2.064zm-3.885-3.315a10.8 10.8 0 0 0-1.19-3.564 7.23 7.23 0 0 1 4.754 4.753 10.799 10.799 0 0 0-3.564-1.189z"/>
        <path d="M4.363 4.36a10.805 10.805 0 0 1 14.615-.6h-.19a.6.6 0 0 0 0 1.2h1.698a.6.6 0 0 0 .6-.6V2.663a.6.6 0 0 0-1.2 0v.306A11.987 11.987 0 0 0 .99 16.753a.6.6 0 0 0 1.101-.475A10.744 10.744 0 0 1 4.363 4.36zM23.01 7.24a.6.6 0 0 0-1.102.476A10.793 10.793 0 0 1 5.022 20.234h.19a.6.6 0 0 0 0-1.2H3.514a.6.6 0 0 0-.6.6v1.697a.6.6 0 0 0 1.2 0v-.307A11.987 11.987 0 0 0 23.01 7.24z"/>
    </g>
</svg>
