<svg xmlns="http://www.w3.org/2000/svg" viewBox="0 0 488.55 133"><defs><style>.cls-1{fill:#ed443f;}.cls-2{opacity:0.4;}.cls-3{fill:#fff;}.cls-4{fill:#1e2022;}</style></defs><title>Asset 1</title><g id="Layer_2" data-name="Layer 2"><g id="Layer_1-2" data-name="Layer 1"><rect class="cls-1" width="133" height="133" rx="42.77"/><g class="cls-2"><path class="cls-3" d="M108.58,42c2.56-2.37,1.68-6.42-1.8-6.14-9,.72-15,6.91-22.23,11.73h0l-.86.57c-.87.55-1.76,1.09-2.68,1.59l-.55.29-.17.08-.38.18-.2.08-.35.15-.2.08-.34.12-.2.07-.33.11-.2.06-.35.09-.16,0-.43.1h-.08l-.52.09h-.07l-.43.05h-.14l-.35,0H74.41l-.33,0-.14,0-.39,0h-.08c-.32,0-.63-.11-1-.19A15.74,15.74,0,0,1,67,48.25c-5.33-4-10-10.62-15.51-13-13.1-5.71-23.78,6.62-11.66,16.43.5.41,1,.79,1.49,1.16a40,40,0,0,0,6.28,3.8C52.46,59,56.76,60,61.17,63.19c4,2.86,4,2.78,5.32,5.38.07.14.13.28.19.41s0,.09,0,.13l.11.27,0,.15c0,.09.06.17.08.25a.83.83,0,0,1,0,.15,2.33,2.33,0,0,1,.07.25l0,.14c0,.08,0,.17,0,.25s0,.09,0,.13,0,.2,0,.29a.22.22,0,0,0,0,.08,6.09,6.09,0,0,1,0,.74v.07l0,.28a.38.38,0,0,1,0,.1,2.17,2.17,0,0,1,0,.25.3.3,0,0,1,0,.1,2.38,2.38,0,0,1,0,.26.24.24,0,0,0,0,.08l-.09.28v0a6.33,6.33,0,0,1-.44,1h0l-.18.3c-2.61,4.28-7.43,9.72-11.15,12.23-7.51,5.08-10,17.45-1.73,18.75a13.75,13.75,0,0,0,5.8-.42c.24-.06.49-.15.74-.24,9.92-3.61,18.56-11.16,31.43-37.48C97.36,55.31,99.63,50.24,108.58,42Z"/></g><path class="cls-3" d="M101,45.51c2.56-2.37,1.68-6.42-1.8-6.14-9,.72-15,6.91-22.23,11.73h0l-.86.56c-.87.56-1.76,1.1-2.68,1.6l-.55.29-.17.08-.38.18-.2.08-.34.15-.21.08-.33.12-.21.07-.33.11-.19.06-.36.09-.16,0-.43.1h-.08c-.17,0-.35.06-.52.09h-.07l-.43,0h-.14l-.35,0H66.86l-.34,0-.14,0L66,54.8h-.08c-.32,0-.63-.11-1-.19a15.74,15.74,0,0,1-5.54-2.82c-5.33-4-10-10.62-15.51-13C30.81,33,20.13,45.36,32.25,55.17c.5.41,1,.79,1.49,1.15A39,39,0,0,0,40,60.13c4.87,2.38,9.17,3.44,13.58,6.59,4,2.86,4,2.78,5.32,5.38.07.14.13.27.19.41s0,.08.05.13.08.18.11.27l0,.15a2.41,2.41,0,0,1,.08.25s0,.1.05.15l.06.25,0,.14a2.21,2.21,0,0,1,.05.25.59.59,0,0,1,0,.13,2.89,2.89,0,0,1,0,.29s0,0,0,.08a6,6,0,0,1,0,.73v.08c0,.09,0,.19,0,.28s0,.06,0,.09a2,2,0,0,1,0,.26s0,.07,0,.1l-.06.26a.19.19,0,0,0,0,.08l-.09.28v0a6.33,6.33,0,0,1-.44,1h0l-.18.3c-2.6,4.28-7.42,9.71-11.15,12.23-7.51,5.08-10,17.45-1.73,18.75a13.74,13.74,0,0,0,5.8-.42,7.07,7.07,0,0,0,.74-.24C62.37,104.83,71,97.28,83.88,71,89.8,58.84,92.07,53.77,101,45.51Z"/><path class="cls-4" d="M231.16,38.36l-38.39,73.7H175.94l12-22.88L169.78,38.36h16.83l11.33,34.21,16.61-34.21Z"/><path class="cls-4" d="M271.86,43.59q6.48,6.66,6.49,19.19a50.92,50.92,0,0,1-.33,5.61H242.93q1,12.33,13.53,12.32a26.86,26.86,0,0,0,15.73-5.28l3.52,11.11a25.08,25.08,0,0,1-9,4.84,37.42,37.42,0,0,1-11.44,1.76,31.87,31.87,0,0,1-14.85-3.3,23.88,23.88,0,0,1-9.9-9.29A27,27,0,0,1,227,66.63a32.6,32.6,0,0,1,3.57-15.45,26.44,26.44,0,0,1,9.79-10.51,26.72,26.72,0,0,1,14-3.74Q265.37,36.93,271.86,43.59Zm-28.6,16.55H264.6q0-5.94-2.59-8.85a9,9,0,0,0-7.09-2.92Q245.13,48.37,243.26,60.14Z"/><path class="cls-4" d="M304.31,71q-.78,9.9,8.58,9.9A47,47,0,0,0,318,80.6l-1.87,12a35.94,35.94,0,0,1-6.16.55q-11.12,0-16.72-4.84T287.59,74a27.46,27.46,0,0,1,.11-3l1.65-20.35H279.12l1-12.43h10.23l1.21-15.84h16.61L307,38.25h13.53l-.88,12.43H306Z"/><path class="cls-4" d="M376.8,38.36l-28.05,53.9H334.67l-19.25-53.9h16.83l11.33,34.21,16.61-34.21Z"/><path class="cls-4" d="M419.53,40.07a20.91,20.91,0,0,1,8.09,9,31.31,31.31,0,0,1,2.86,13.8,36.35,36.35,0,0,1-3.25,15.68,25.43,25.43,0,0,1-9.13,10.72,24,24,0,0,1-13.47,3.85q-11,0-16.61-8.25l-2.09,27.17H369.32l5.83-73.81h16.39L391,44.74A18.24,18.24,0,0,1,398,39a21.73,21.73,0,0,1,9.52-2.09A23,23,0,0,1,419.53,40.07Zm-8.91,36.08Q414,71.7,414,64q0-7-3.14-10.78t-9-3.74a10.78,10.78,0,0,0-9.08,4.46q-3.36,4.45-3.35,12,0,7.16,3.08,10.89t8.8,3.74A11,11,0,0,0,410.62,76.15Z"/><path class="cls-4" d="M483.93,41.94q4.62,5,4.62,14.68c0,1.54,0,2.72-.11,3.52l-2.53,32.12H469.3l2.54-31.46q.44-5.38-1.71-8.14t-6.66-2.75a10.47,10.47,0,0,0-8.13,3.25A14.26,14.26,0,0,0,451.93,62l-2.42,30.25H432.89l4.29-54h16.17l-.55,6.38A19.37,19.37,0,0,1,460.18,39a24.23,24.23,0,0,1,10.12-2Q479.32,36.93,483.93,41.94Z"/></g></g></svg>